<?xml version="1.0" encoding="UTF-8"?>
<svg id="Layer_2" data-name="Layer 2" xmlns="http://www.w3.org/2000/svg" width="316" height="316" viewBox="0 0 316 316">
  <g id="Layer_1-2" data-name="Layer 1">
    <path d="M158.0064,310.2082h-.0128c-40.6483,0-78.8705-15.8316-107.6155-44.5766C21.6267,236.8865,5.795,198.6643,5.7918,158.0064c-.0032-83.9272,68.2746-152.2114,152.221-152.2146,83.9176.0064,152.1922,68.2842,152.1954,152.2018.0032,83.9272-68.2746,152.2114-152.2018,152.2146Z" fill="#fff"/>
    <path d="M158.0064,42.1794h-.0064c-63.8476,0-115.8015,51.9507-115.8047,115.8015-.0032,30.9313,12.0407,60.0151,33.9135,81.8879,21.8696,21.8728,50.9502,33.9199,81.8847,33.9231h.0064c63.8476,0,115.8015-51.9475,115.8079-115.7983.0032-63.8508-51.9443-115.8047-115.8015-115.8142ZM248.5901,217.598c-2.0317.3224-4.0602.6589-6.0971.9573,2.4165-3.906,4.6411-8.0868,6.6069-12.5426,2.2223-.37,4.4318-.7875,6.6469-1.1811-2.1264,4.417-4.4741,8.7041-7.1567,12.7663ZM215.0109,250.1587c-.0503-.0064-.0995-.0136-.1498-.02.2233-.1095.4551-.1998.6812-.3033-.1758.1103-.3552.2138-.5314.3232ZM266.5329,157.9936c0,1.1607-.1382,2.2862-.1746,3.4381-1.919.6301-4.5093,1.4384-7.9378,2.3825.0575-1.5279.0895-3.0781.0959-4.6475-.2845-3.4777-.6616-6.8594-1.1251-10.1293,2.8608-.7184,5.7047-1.5227,8.5523-2.3114.384,3.705.5897,7.4627.5893,11.2676ZM256.8415,145.4223c-.8694-5.3092-1.9658-10.3403-3.2603-15.1093,2.9031-.682,5.7882-1.4396,8.6774-2.1827,1.3948,4.8613,2.4252,9.8644,3.1312,14.977-2.8452.7927-5.6875,1.5942-8.5483,2.315ZM207.3872,249.2437c-1.1603-.1279-2.3206-.2461-3.484-.3612,1.2869-1.1199,2.5603-2.3533,3.8349-3.5727.9477-.4455,1.8791-.9297,2.8735-1.2602.5825-.0851,6.2909-3.5088,6.2909-3.5088.2313-.1906.4299-.4175.6545-.6161l1.8607-.012c-3.9407,3.4493-7.9734,6.6065-12.0304,9.331ZM176.0499,258.3853c-1.6973-.1822-3.4009-.3388-5.1046-.4667,1.2434-2.1128,2.5507-4.4781,3.89-7.0928,2.9662.0543,5.9357.147,8.9019.2749-2.653,2.8064-5.2453,5.2229-7.6873,7.2845ZM177.3029,262.189c-.147.0703-.2973.1438-.4411.2142.0927-.0767.1918-.1566.2877-.2333l.1534.0192ZM78.2544,197.2051c-.535-.8746-.9325-1.8263-1.1783-2.8216v-.0455c-.374.2433-.6928.5622-.9361.9361-.2573,1.0033-.4171,2.0293-.4779,3.0633,0,1.1783-.694,1.414-2.108,2.1212-1.414.7068-2.1276,1.1715-2.3501,1.8851-.0615.2237-.0859.4555-.1386.6812-1.9122-4.544-3.5016-9.3878-4.7822-14.6402,5.9932,1.1922,12.0088,2.2694,18.0435,3.2251,1.3137,4.7466,2.8608,9.5987,4.6827,14.3837-4.0634-.563-8.1104-1.2494-12.1602-1.9146.0895-.2557.1326-.5254.2269-.7795.1698-1.1039.4059-2.1971.7072-3.2731h.9361c.1378-.9657-.0244-1.9506-.4651-2.8212ZM237.5418,130.0509c-.1814-.6057-.4163-1.1751-.6077-1.7744.5853.3033,1.1563.6357,1.6625,1.0584h1.545v-.8315c1.0117-.2837,1.9602-.7567,2.7952-1.3944.8247-.8315-.1442-1.6757-.7072-2.7952-.4679-1.2961-.6137-2.6866-.4255-4.0518-.012-1.4048-.3432-2.788-.9689-4.0458-.2749-.563-3.0765-.2749-3.0765-.2749h-.0064c-.4191.8315.8315,4.8901.8315,5.5841s-.9757.7004-1.1131,1.3944c-.1374.6936.2881,1.2566.1442,2.3697-.0531.4123-.6868.6201-1.442.7659-1.3417-3.9048-2.8184-7.7176-4.5349-11.3503,1.3497-.3045,2.6882-.6696,4.0346-.9925.4015.537.4175.2577,1.2482.9653.8378.7136.5694.4187,1.2634,0,.6936-.4191-.1506-.5434-.7072-1.388-.0048-.0076-.0148-.0092-.02-.0164.4835-.1187.9669-.2357,1.45-.3568.736.7719,1.0021,1.0732,1.7976,1.0732.9817,0,1.1063-.8315,1.5319-.8315.2893,0,.4155-.5789.2637-1.1259.207-.0547.4159-.0979.6225-.153,2.2247,4.8713,4.216,10.1101,5.9165,15.7453-3.8229.863-7.6553,1.6717-11.4974,2.426ZM250.046,131.1281c1.3009,4.7754,2.4005,9.8257,3.2635,15.1636-3.9827.9589-7.975,1.8475-11.9832,2.669-.5562-5.3316-1.5087-10.4617-2.8-15.3937,3.8516-.7607,7.6905-1.5726,11.5197-2.4388ZM231.5306,201.3249c-.5358-.3708-1.1279-.6517-1.7848-.716-.6804.195-1.3736.3412-2.0748.4387-.9617-.1394-1.8831-.4811-2.7037-1.0017-.9106-.3944-1.9274-.4703-2.8867-.2162-.7595.177-1.2506,2.1408-1.2506,2.1408-.573-.0695-1.1207-.2761-1.597-.6025-.4387-.4255-.0851-1.44-.0851-1.44-.5897-.1842-1.1883-.3372-1.7936-.4583-.2965-.0396-1.0292-.1203-1.6857-.191.4547-1.6022.9733-3.0717,1.394-4.741,6.8211-.8087,12.3604-1.7452,17.3371-2.7489-.8295,3.3314-1.8159,6.4747-2.8691,9.536ZM193.8038,252.2243c-.0883-.187-.2489-.378-.4099-.5674.3756.0264.7523.0455,1.1279.0735-.2421.1782-.4763.3188-.718.4938ZM143.4405,247.751c-2.3046.0959-4.5676.1982-6.7635.3037-2.1951-2.4221-4.2168-4.9923-6.2329-7.5654l9.7449-.0631c1.08,2.5883,2.1683,5.0595,3.2515,7.3249ZM132.0199,248.2912c-2.7361.1438-5.3635.2909-7.8503.4379-3.0286-2.5259-5.845-5.3084-8.6114-8.1432l10.3159-.0671c1.9857,2.641,3.9795,5.278,6.1458,7.7724ZM127.642,236.8697c-2.2514-3.0801-4.4258-6.2193-6.4163-9.4828,4.753.1758,9.506.31,14.259.4059,1.0436,3.1912,2.1352,6.1646,3.2423,9.0054l-11.085.0715ZM95.1113,142.2239c-1.1127-2.0425-1.1127.2225-2.3829-1.7612-.4383-.6545.2749-2.7952.2749-3.3973,0-.6025-1.4072.851-2.8212,1.5646-.8842-.0691-1.7232-.4175-2.3961-.9953-.4531-.3348-.4407-1.8919-.4379-2.0565,2.0852.3744,4.1765.7092,6.2673,1.0488.0392.0216.0819.0364.1211.0583l.3928,2.5663,1.9638.3991,1.7105-.1362c.0252,3.2012.1131,7.3329.3476,12.1726-2.8088-.358-5.6036-.8123-8.4061-1.2146.5749-.0507,1.1383-.2134,1.609-.5506l1.08-1.1323c.6101-.5698,1.1807-1.1799,1.7085-1.8263.2985-.4143.6221-.8103.9689-1.1851.2669-1.1699.2669-2.3845,0-3.5544ZM220.9015,79.7943c-2.0788.4886-4.2076.726-6.3156,1.0748l-.7012-1.044v-1.7804c1.1511.6369,2.4424.9765,3.7577.9885.8566-.0555,1.7093.0579,2.5631.1326.2289.2229.4679.4023.696.6285ZM232.1683,128.9162c.3528-.0963.7208-.1187,1.0772-.2006.2229.6832.4938,1.3341.7036,2.0257-.1934.0364-.3888.0619-.5821.0979-.217-.5841-.6169-1.0272-1.3621-1.0272-.8123,0-1.1427.879-1.2849,1.4723-4.1749.7499-8.3533,1.4847-12.545,2.11-1.4064-5.1558-3.1484-10.2092-5.1398-15.1157.8538-.1362,1.6977-.33,2.5503-.4735l.6365.6884s1.8527.8838,1.8527,1.8591c-.2098,1.034.3272,1.8982.3272,2.494s.7919,1.5778.7919,2.1735c.2913,1.0256.6908,2.0173,1.1914,2.9586,1.2801-.1694,2.5112-.6041,3.6135-1.2766,1.388-.9753.6549-5.5117.6549-5.5117-.7999-1.6733-1.8986-3.1844-3.2363-4.4685,2.1911-.4135,4.3946-.7571,6.5769-1.221,1.6781,3.4876,3.1253,7.1519,4.4474,10.9008-.0012,0-.0036.0004-.0048.0004-1.1127.1442-1.1127,2.5139-1.1127,2.5139h.8442ZM211.2532,199.4642c.0064-.3752.0547-.7488.1442-1.1131-.5893-.5941-1.1099-1.253-1.5514-1.9638-.2317-.4043-.3208-.7332-.4203-1.0592.7028-.0639,1.3788-.1311,2.0577-.1974-.3532.3968-.6033.9749-.6033.9749l.0132.0655c.6485-.0304,1.2949.032,1.9418.0815-.352,1.3101-.716,2.5967-1.0896,3.8624-.2621-.2249-.4922-.4407-.4922-.6509ZM213.1902,194.9936c-.0304-.0036-.0591-.014-.0891-.0184.0312-.0032.0659-.006.0971-.0092-.0024.0096-.0056.018-.008.0276ZM216.397,179.8804c-.7368.2601-.6073,1.0129-.6073,2.1372,0,.3312.0531.5378.1263.682-.5478,2.9195-1.1355,5.7683-1.7844,8.5044-2.1416.2333-4.4601.4487-6.871.6553.0236-.0228.0416-.038.0651-.0615.5502-.5562,1.2634-.851,1.2634-1.4008s.4191-.2813.1374-1.1323c-.2813-.851-1.8263-2.7952-1.4008-3.9279.2525-.6748.7539-1.2274,1.4008-1.5446,0,0-.8442-.4255-.7068-.851s1.5446.1438,1.6889-.7072c.1438-.851-1.1195-.8442-1.8263-1.8131-.7072-.9689-1.5514-2.3961-1.5514-2.3961-.569.505-1.0824,1.0692-1.5319,1.6825-.8378,1.1191-1.6889.5694-1.6889,1.2634v1.1323s-.8446-.9885-1.4008,0c-.5566.9885-1.6825,2.9459-1.6825,2.9459-.4279.3776-.8982.7048-1.4008.9753-.4255.1374-.1438,1.8263-.5498,2.3829s-1.7021-.4059-2.3961.2881c-.6936.694-.9885.5502-.8442,1.6825.0611.7823-.036,1.5626-.0927,2.3437-.6976.038-1.3473.0803-2.0657.1163.7192-4.8042,1.3137-9.8416,1.7644-15.1093,5.4906-.38,10.6052-.8746,15.546-1.4108-.5969,1.1123-.9669,1.5638.0412,2.323,1.1127.8378,1.1259-.9821,1.6825-1.9638.157-.2769.2637-.4539.3484-.5929,1.394-.159,2.8448-.3053,4.1924-.4735.2389.2857.4795.5566.7352.8075-.1822,1.1799-.392,2.3114-.5905,3.4629ZM193.1006,247.5125l-.6233.4347c-.364-.0244-.7268-.0575-1.0912-.0811.1898-.2321.3792-.4986.5694-.7352l1.1451.3816ZM218.2581,113.606c-.1978-.5178-.3292-1.0648-.3536-1.6389,0-1.1851.2094-3.8756,2.0489-4.0914,1.8391-.2162,1.5514,1.7936,3.2271,2.3302.6029.1934,1.1779-.1131,1.7081-.5658.4655.839.9673,1.6429,1.4148,2.4984-2.6694.5574-5.3623.9845-8.0453,1.4675ZM217.9816,168.0866c-.038-.036-.0683-.0791-.1103-.1103-.563-.4319-1.4072-1.1191-2.1144-.9885l.1506.4323-.7068,1.2634c.3232.4691.7571.851,1.2634,1.1127.6712.2725.5933,1.0344,1.3457.3268-.0587.5262-.0643,1.05-.1334,1.5766-.0032.0256-.0064.0543-.0096.0799-1.6977.2202-3.556.4075-5.3308.6125-.2661-.4307-.7687-.6185-.7687-.6185-.1906.2202-.2945.4866-.3948.7523-5.2005.5845-10.6048,1.1239-16.443,1.5359.2717-3.8548.4667-7.8311.569-11.9257,0-1.0504-.0124-2.1004-.028-3.1508.2857-.008.5726.0152.8546-.036.0336-.0344.0356-.0883.0675-.1239,7.3872-.5318,14.7577-1.2789,22.0941-2.2702.1778,3.8201.0284,7.6709-.3053,11.5313ZM161.7078,210.51c.0064-4.3631.0128-8.7677.0192-13.1978,6.9693-.0635,13.2494-.1902,19.0156-.3652,1.4476,1.1831,3.6015,2.8304,4.4769,3.9168,1.0872,1.3493,1.4468.9517,2.0621.9489-.5146,2.5963-.9957,5.27-1.5754,7.7129-8.0037.489-16.0042.8151-23.9984.9845ZM188.0016,196.943s-.0184-.1111-.0507-.2497c.1227-.0052.2573-.0088.3796-.014-.0192.1103-.0451.205-.0643.3148l-.2645-.0511ZM184.2578,193.1909c-.1079-.1578-.215-.3081-.3216-.4703-.8706-1.3221-1.6889-1.1191-3.6135-1.6821-1.583-.2613-3.1372-.6732-4.6415-1.2306-1.8919-.8774-1.6561-1.7612-3.0374-1.774-1.3812-.0132-3.5676-.157-3.5676-.157l-.0196.032s-.1179.7855.3144.7855c1.0656.4095,2.072.9601,2.9914,1.6365.4255.2617,2.6905,2.0489,2.6905,2.0489.4007-.3456.9941-.3456,1.3944,0,.3424.2929.4914.6597.6297,1.0316-4.7446.1215-9.8289.211-15.347.2601.0064-4.9608.016-9.9439.0224-14.9239,3.2767.014,6.366-.0591,9.506-.1091l.6652,1.5658,1.3093,1.7804.923.851,1.0017,1.1523c.5142.5821.9277,1.2458,1.2242,1.9638.203.7919,1.0081,1.08,2.088,1.931,1.0596.4095,2.086.8998,3.0701,1.4663.6609.3268,1.3637.5602,2.0884.694.386.3077.6153-.157.8442-.694-.8914-1.0268-1.6401-2.1699-2.2255-3.3973-.203-1.3812-1.1523-1.6889-1.1523-2.8476-1.4983-1.0596-3.132-1.9138-4.8573-2.5399-.386.851-1.774-.4715-2.7101-1.0081-.189-.4531-.35-.7164-.495-.9381,4.0706-.0803,7.9957-.2186,11.8334-.3964.1047.3065.6868.2997,1.4627-.0639,1.4571-.0727,3.0074-.1079,4.431-.1934-.4699,5.2516-1.0868,10.2636-1.8283,15.0485-1.5011.0643-3.0849.1215-4.6735.1778ZM172.9191,173.3242c.7807-1.0748,1.3089-2.3126,1.5446-3.6199.0072-.9865.3029-1.949.851-2.7693.6549.1506,2.1667-.0392,2.3893.2949.3452.8163.5805,1.6749.7004,2.5531.2465.9813.6021,1.9322,1.0604,2.8344,0,0,.3928-.2945,1.0932.7791.348.4767.7807.885,1.2766,1.2042h1.5842c.0156,0,.0336.0455.0495.0495-3.562.1614-7.199.2757-10.9596.3464.0144-.7272.0991-1.3613.4103-1.6725ZM191.3202,160.9914c-.4047-.7108-1.0548-1.2182-1.6441-1.7784.6513-.0352,1.3049-.0364,1.9562-.0751.0132.8167.0192,1.6333.024,2.45-.1275-.1898-.2038-.4095-.336-.5965ZM204.1904,115.1682l.5825-1.1914c.4367-.6808,1.0053-1.249,1.6282-1.7544.4942,1.054,1.0192,2.0848,1.4911,3.154-1.0928.1562-2.1971.2289-3.2919.3728l-.4099-.5809ZM209.8156,111.2338c.9285.4854,1.2302,1.7768,1.3948,2.8312-.4291-.9737-.9481-1.8707-1.3948-2.8312ZM196.5019,155.1464c-.177-.0755-.3936-.0919-.6844-.1115-.2086-.014-.3252.0799-.4123.2062-.0763.0052-.1518.0144-.2281.0196-.0236-.7136-.1135-1.4192-.1438-2.132.7392.0116,2.3254-.143,3.2259-.143.9753,0,3.5807,0,4.242-.7987s2.0816-.6549,4.0654-2.6514c1.9834-1.9965,2.7557-3.3646,4.3399-5.1386s2.959-1.7872,3.1552-5.5381c.0252-.4795.0631-.8878.1087-1.2466.4387-.0603.8814-.0903,1.3197-.1522,1.2274,5.0695,2.1064,10.2316,2.5571,15.4545-7.1555.9697-14.3385,1.7017-21.5452,2.2319ZM210.4941,124.2802c-.7787-.3991-1.9638,0-1.571-.8247.3712-.6133.8323-1.1675,1.3684-1.6433.0451-.0759.0743-.1598.1187-.2361.5214,1.3433,1.0528,2.6814,1.5327,4.0442-.4831-.4479-.921-.9441-1.4488-1.3401ZM191.546,155.4972c-1.1942.0707-2.3937.0791-3.5891.1378.0204-.0623-.0144-.1267.0116-.1882.9138-1.0172,2.1152-1.7181,3.4353-2.0629.0296.7064.1191,1.406.1422,2.1132ZM163.7475,166.5555c1.0748-1.3545,2.2638-2.6138,3.5548-3.7641.1506.9166,1.3093.7527,1.4532,1.3093.1123.7619.2965,1.5119.5498,2.2391.3572.4559.6664.9473.923,1.4663.7727.7723.4583.851.4583.851.503.6073.7987,1.3597.8446,2.1472.0483,1.1879-.0507,2.3777-.2949,3.5412-.0272.1099-.0767.3971-.1243.6656-3.0933.0471-6.1302.1263-9.353.0959.004-3.0825.0084-6.1434.0132-9.2136.4343.4599,1.2518.662,1.9754.662ZM161.7797,160.7549c.0004-.3632.0012-.7332.0016-1.096.0184.0004.0364-.0004.0547,0v.8155c0-.2769-.0236-.1111-.0563.2805ZM161.7046,214.1507c7.6905-.163,15.3905-.4699,23.0906-.9238-.9749,3.7941-2.0201,7.3932-3.1069,10.7942-6.6676.2237-13.3577.3452-19.9965.3069.0032-3.3594.0064-6.7475.0128-10.1773ZM207.9625,211.4178c-.9729,2.5523-1.9985,4.9592-3.0469,7.3009l-.4767.3176c-1.543-.1478-3.1005.01-4.5824.4651-.6664.3348-1.2638.7923-1.7608,1.3485l-.4059,2.1799-.1239.163c-1.2194.0767-2.4392.1402-3.6587.209l.0316-.3392-3.5088-.2817-.1047.5502s-.3396.1263-.839.3228c-1.2678.0611-2.5347.1642-3.8025.217,1.0644-3.4361,2.0776-7.0608,3.0238-10.8869,6.4215-.4219,12.843-.9429,19.255-1.5662ZM219.0827,136.9391c4.6351-.6952,9.2475-1.4967,13.8547-2.3425.4283.34.9082.6105,1.4436.7599.5362.1023.3828-.3848.0899-1.0192.157-.0296.3152-.0503.4723-.0799,1.3041,4.9352,2.2598,10.0718,2.7968,15.4161-5.3443,1.0356-10.7111,1.9466-16.0937,2.7329-.4635-5.2293-1.3457-10.3946-2.5635-15.4673ZM134.4044,210.1105c-.9717-4.2608-1.8379-8.7453-2.5699-13.4599,8.7453.4763,17.5833.6744,26.2518.684-.0064,4.5165-.0128,8.9339-.016,13.2202-7.9142.0447-15.7805-.1023-23.666-.4443ZM158.0639,214.1923c-.0032,3.484-.0096,6.8722-.0128,10.1389-6.5813.0416-13.2106-.0096-19.8431-.1247-1.0324-3.2955-2.0137-6.7667-2.9247-10.417,7.5914.3132,15.2147.4603,22.7806.4027ZM131.3071,192.9779c-.6009-5.0631-1.0388-10.1645-1.3201-15.2723.4803.032.9621.044,1.4424.0747-.0168,1.1475.2146,1.8543,1.1127,2.15.897.4111,1.9578.0172,2.3689-.8802.0404-.0879.0735-.179.0991-.2721.0999-.2597.1406-.535.2182-.8015,7.621.4235,15.2523.7084,22.8868.7551-.0096,5.0599-.016,10.0622-.0224,14.9622-8.9339.0959-17.8677-.2174-26.7856-.716ZM135.6354,174.3507c-.0687-1.2538.0268-2.0145-.6253-1.726v-.0264c-.6217.4663-1.1259,1.0508-1.6274,1.6345-1.1899-.0715-2.3821-.1063-3.5715-.187-.0052-.1263.0004-.2521-.0044-.3784.2621-.6832.4755-1.3872.8371-2.0253,1.0668-1.9638,3.1484-5.5709,3.8884-6.893,1.2634-2.2518,0-2.6842,0-2.6842l1.1191.1442s-.0719.0983.7136-.1442c.7855-.2421,1.3093,0,1.3093-.9949s.4974-.8838.4974-.8838l1.7872-.3995s-.1071-.0467.877-.907c5.7699.2693,11.5381.6197,17.308.7024-.0096,5.1909-.016,10.3722-.0256,15.5088-7.5007-.0455-14.9958-.3276-22.4829-.7404ZM101.6247,139.8474s1.8327-.2817,2.828-.38c.8826-.1518,1.7712.2369,2.2582.9885.557.6624,1.0376,1.3848,1.4336,2.154.5953.6692,1.3736,1.1495,2.2391,1.3812.8574.2749,2.4089-1.4076,3.1161-.7072-.7072.7072-1.2766,1.4076-1.2766,1.4076l-1.3093.2813c.4507.7583.9773,1.4687,1.571,2.1212.6545.5761.6872.7464,1.9638.4187,1.4204-1.5446.2225.7136.1438,1.7085.2669,1.4336,1.4787,3.19,2.3549,4.5173-5.0327-.4627-10.0602-.9833-15.0789-1.5878-.2565-4.8905-.3604-9.0713-.3987-12.3224l.155.0192ZM144.5884,155.5672c1.0816-.7599,1.1775-1.3573,1.0001-2.1168-.1834-.7855,1.3093-2.3174,1.3093-2.3174.8946.6049,2.0497.6676,3.005.1634,1.9046-.7855,3.7442-.8838,4.5365-1.4663.7919-.5825.9361-1.034,1.5383.1506.4595,1.052.8442,2.1348,1.1519,3.2403.193.5438.5905.9681,1.0228,1.3441-.0008.4615-.0012.9182-.002,1.3796-4.5213-.0659-9.0425-.1966-13.5618-.3776ZM79.2253,167.7809c-.2517-.0455-.5014-.1043-.7531-.1502.1738-.4055.3576-.8351.5414-1.2961.0751.497.1307.9321.2118,1.4464ZM70.0438,150.9876c.0899,1.4555.362,4.4661.362,4.4661,0,0,.537-1.0017-.4515,1.9638,1.0888.1882,2.2051.139,3.2731-.1442,1.4204-.4187,2.7297.2553,3.391,0,.5422-.207.865-.4735,1.1203-.7484.0919.8702.1974,1.79.322,2.8304-.0947.0639-.1754.1462-.2709.2094-.6021.1898-1.3093.6549-2.0748.8378-.9222.1055-1.8535.1055-2.7757,0h-2.1603c-.6085,0-.9949-1.3876-.9949-1.3876,0,0-1.1587-1.7153-.563-1.7412.5957-.0264-.5698-2.3961-.7072-3.2731-.2857-1.0081-.7987-1.9374-1.4991-2.7169-.181-.2901-.2821-.6169-.4315-.9226,1.1523.2158,2.3066.4183,3.4605.6265ZM69.81,182.5486c.7855-.9877,1.6433-1.9154,2.5663-2.7757,1.5434-2.0912,2.86-4.3403,3.9275-6.71.215-.541.2094-1.3653.3088-2.1108,1.084.2006,2.16.4463,3.2455.6389.8598,4.9224,1.9849,10.4234,3.4457,16.1673-5.2269-.8454-10.4298-1.8211-15.6247-2.8492.6768-.8167,1.3812-1.6098,2.1308-2.3605ZM83.0802,168.4585c-.9537-5.7559-1.5135-10.4454-1.8379-13.5958.147-.0424.3136-.0859.6065-.1295.9725-.1442,1.6134-.9038,2.1208-1.4048,4.787.7364,9.5799,1.448,14.3861,2.0537.2909,4.7946.7288,10.091,1.3776,15.6271-5.5649-.748-11.117-1.5982-16.6531-2.5507ZM100.2,174.7426c.6872,5.1685,1.563,10.4873,2.6818,15.7613-5.2037-.6169-10.3978-1.3201-15.5791-2.116-1.4959-5.6832-2.6594-11.1745-3.5608-16.1225,5.4722.9238,10.9604,1.7516,16.4581,2.4772ZM102.0826,155.8424c5.4334.6473,10.89,1.0352,16.3391,1.5179.4835,1.621,1.0632,3.2116,1.8399,4.7178.6181.6864,1.0049,1.5498,1.1063,2.468,0,0,1.3812,1.9638,1.9638,2.1799s1.1323,2.1012,1.1323,3.2731c.2725,1.3229.7623,2.5907,1.4388,3.7585-7.4791-.5733-14.9435-1.3209-22.3882-2.2562-.6648-5.5297-1.1219-10.8357-1.432-15.659ZM126.3271,177.4467c.2717,5.1142.7032,10.2252,1.2881,15.3106-6.9713-.4475-13.9362-1.0516-20.8819-1.8155-1.1379-5.2261-2.0329-10.5353-2.7393-15.7134,7.4252.9206,14.8727,1.6589,22.3331,2.2183ZM128.1203,196.4364c.7128,4.721,1.5566,9.2215,2.4996,13.4951-6.2777-.3228-12.5458-.7671-18.8075-1.3329-1.6525-4.4014-3.0429-9.0905-4.2128-13.901,6.8243.7288,13.6709,1.3105,20.5207,1.7388ZM131.4701,213.6169c.8886,3.679,1.8507,7.1855,2.8576,10.5129-5.095-.1119-10.1964-.2685-15.2947-.4667-1.8187-3.206-3.5128-6.4918-5.0726-9.848-.2142-.4699-.4219-.9461-.6297-1.4288,6.038.5242,12.0887.9333,18.1394,1.2306ZM139.4003,227.8664c6.2297.0991,12.4339.1311,18.6477.1055-.004,3.041-.0072,5.9037-.0104,8.7009l-15.327.0995c-1.1275-2.804-2.2419-5.7443-3.3102-8.9059ZM161.6854,227.9686c6.2541,0,12.4711-.0739,18.7116-.2673-.5494.5829-1.0836,1.1819-1.6977,1.6977-.7675.6237-1.7828.8514-2.7429.6153l-.8706-.36c-.8934-.1438-1.8083-.0559-2.6578.2553l-1.7216.2225-1.2506,1.6497.7923.7072-.1506.9166c-.4239.8434-.7807,1.7189-1.0672,2.6182-.0376.1794-.147.38-.2901.5797l-7.0648.0455c.0036-2.9055.0072-5.6979.01-8.6806ZM177.7552,244.7408c.2977.0112.5933.0543.8914.0551l1.9638-1.3093,3.2731.4255c.4067-.2889.8894-.4527,1.388-.4711l4.3455.8095c-.9114,1.1515-1.8231,2.301-2.7313,3.3566-3.4233-.1758-6.8466-.3037-10.27-.3868.3784-.7915.7595-1.6481,1.1395-2.4796ZM209.8832,205.9936c-.2445-.0156-.5582-.0699-.9797-.35-.9953-.6613-1.617-.2617-2.2391-.2617-.6217,0-1.6102,1.0736-1.6102,1.0736h.0064c.8626.728,1.9889,1.0648,3.1097.9293.7332-.1307.3596.1179.8638-.2749.1694-.1323.3828-.2202.5873-.3164-.0931.2709-.1774.5618-.2717.8303-6.5781.6585-13.1691,1.2114-19.76,1.6525.2269-.9937.3991-2.116.6161-3.1348.7.3648,1.388.7551,2.1224,1.0468.6968-.1334,1.374-.3532,2.0165-.6549.7659-.4515,1.4468.7136,2.9718.5502,1.5255-.1638,1.6365-.3208,3.0505-.4583s1.8527-.0851,2.6774-.2421c.8251-.1574.8642.1243,1.1523-.6549.2881-.7787-1.5123-.4187-1.5123-.4187l-.5106-.4651-2.3697-.3991.1638-1.3093s-.9821.0392-2.2518.1506c-1.2702.1111-1.1.2158-1.1.2158-.5014.2305-.9757.5158-1.414.851-.36.36-.1047-.5302-.5106-.4583-.3232.0575-2.85-.4027-3.9855-.2985.0623-.3108.1231-.6245.1842-.9377l1.2354-.6101s.4451-.0392-.1506-.6936c-.2281-.3816-.3836-.8011-.5941-1.1922.2285-1.2434.5058-2.3753.718-3.6531,1.3505-.0655,2.611-.1394,3.8916-.2118.0116.7172-.0443,1.1271.3836,1.2342.372.0843.7515.1307,1.1327.1374,0,0-.4183.9873.2877,1.4004.0376-.0424.9789-1.0968,1.8068-.9553.8446.1438-.1442.7004.7004.7004s1.9638-.4191,2.1076.1438c.2122.5494.4982,1.0672.851,1.5383,0,0,1.6761-.9753,1.8199-1.6821.0416-.8474.1354-1.6913.2817-2.5267.0803-.205.1107-.4255.183-.6333.4139-.0328.8263-.0663,1.2318-.0999-.2781,1.0148-.5626,2.0297-.7212,3.0709,0,.9753,1.1327.4255,1.2634,1.2566.1311.8315-.4187,3.3714.4191,3.5152s.9949-.2813.9949-.2813c0,0-.1506-2.671.5434-3.0965s.5698.1442.7072.9885c.0739.4539.5881,1.0144,1.0568,1.4492-.3748,1.2026-.7639,2.3737-1.1571,3.5356ZM213.503,206.642c.3396-.543.7032-1.0716,1.1083-1.5682.3732-.3991,2.1144-1.211,2.1144-1.6038s-1.7412-.3928-1.7412-.3928c0,0-.2513.193-.5602.4323.2537-.8103.487-1.6609.732-2.4892.2038.1806.3644.3088.3644.3088l1.4731.5234.2289.5761s.1766.3796,1.4859,1.1523c.8922.4922,1.8515.8518,2.8476,1.0668l1.3093.4387s.4467.3892.9565.8594c-3.494.4343-6.9845.8934-10.4865,1.2654.0607-.1794.1071-.3892.1674-.5694ZM217.9736,190.7564c.5022-2.1883.9613-4.4557,1.4008-6.7567.6916.2509,1.386.4986,2.0453.8267,0,0-.8578-2.5267,0-2.2518.4419.1686.9206.2186,1.3876.1442,0,0-1.6757-2.959-1.3876-3.5088.1582-.3073.2517-.6437.2749-.9885l-.9885-1.3944s-.0855.0603-.1243.0859c.0991-.6421.219-1.2486.3132-1.8986,6.1147-.8438,11.7019-1.7708,16.7554-2.7233-.4986,5.4946-1.2945,10.6823-2.3461,15.5919-4.9927,1.0484-10.5001,2.0265-17.3307,2.8735ZM221.4001,171.2745c.6137-5.1046.7575-10.1932.5018-15.2275,5.3955-.7831,10.7782-1.6909,16.1385-2.7233.1726,2.7137.2365,5.4818.1854,8.2946-.0447,2.3557-.1406,4.6603-.2845,6.9202-4.9704.9525-10.4905,1.8859-16.5412,2.7361ZM237.3548,109.5521c-.3812-.1914-.7739-.3596-1.1343-.5897h-.0004c-.3584.3228-.3983.6325-.3065.9401-1.9766.4823-3.9463,1.0033-5.9313,1.4432-1.1171-2.1791-2.3038-4.2963-3.5312-6.3716-.2114-.8175-.5398-1.599-1.1039-2.2439l.7923-1.5778-.203-2.9654s-.1626-.3448-.3844-.8131c.4371-.0915.8706-.1982,1.3069-.2929.5162.5498,1.0648,1.1331,1.5518,1.8199.865,1.3513,1.6537,2.7501,2.3629,4.1896l1.2634-.1374.2749-1.257s2.3829.2749,2.3829-.2813c0-.5566-2.2255-1.8068-3.3514-2.2323-.8502-.3212-1.5722-1.2698-2.5387-2.5375,1.7057-.3896,3.4265-.7088,5.1218-1.1471,2.7169,4.0019,5.2708,8.3393,7.6042,13.038-1.3872.3676-2.7852.6692-4.1761,1.016ZM231.6796,92.3145c-1.9034.4751-3.8396.8231-5.7599,1.2374-.3272-.2297-.6389-.4815-1.0005-.6573-.4215.3049-.4699.6153-.3748.9525-.2082.0436-.4155.0915-.6241.1342-.1914-.3908-.388-.7947-.5566-1.1295-.9953-1.977-.7791-2.9586-1.3684-3.7509-.5893-.7919-3.5676-4.1437-3.5676-4.1437l-1.1851-.203-.5825,1.7808h-1.7872s-1.6106-.8494-1.0596-1.7636c3.367-.509,6.72-1.1004,10.0158-1.9502,2.7105,2.9151,5.3411,6.0699,7.8503,9.4932ZM225.6253,78.5237l-.1015-.2761-1.1783-1.388-.1898-.3928,1.774-.1898.3995-.6021c.4683.684.8654,1.4144,1.1847,2.1799.0032.0084.004.0168.0072.0252-.6361.1982-1.2562.4591-1.8958.6437ZM88.3949,131.56c.0727.1163.0943.2517.1486.376-.7288-.1299-1.4559-.2693-2.1843-.4035.4387-.6505,1.0728-1.1023,2.0357.0276ZM65.614,127.1234c-.1247-.03-.2485-.0627-.3728-.0931.2154-.7787.4843-1.7264.4843-1.4012-.0947.4922-.0463.9981-.1115,1.4943ZM65.0199,126.9748c-.4655-.1135-.9297-.2333-1.3948-.3488.312-.8514.732-4.0734.9613-3.8249.3876,1.3573.4998,2.7673.4335,4.1737ZM65.3287,130.9403c.0036.1594-.042.3164-.0356.4759.4191,1.0081,1.211,5.0079,1.6889,6.2189s-.1307,2.3957.5698,4.5169c.7376,1.4,1.2985,2.8863,1.6693,4.425.0567.1854.0683.3812.1199.5678-1.3085-.2397-2.6222-.4539-3.9287-.7032-.4443-.8386-.8075-1.7216-.9633-2.6598.1854-1.0612.1854-2.1464,0-3.2076-.6992-.911-1.1663-1.9778-1.3617-3.1093l.7919-5.3351c-.0755-.5118-.0471-1.0308-.0835-1.5466.5098.1251,1.0228.2341,1.5331.3572ZM62.635,201.5626c-.1678-1.5558-.5486-3.0813-1.3481-4.4426.5985-1.802,1.3792-3.5296,2.2059-5.2329.9877,3.661,2.0748,7.201,3.3786,10.5169-1.4156-.2625-2.8232-.5654-4.2364-.8414ZM88.3542,192.23c5.1142.7639,10.238,1.4416,15.3714,2.0361,1.1315,4.7818,2.474,9.4868,4.069,13.9522-4.8809-.4795-9.7489-1.0356-14.6138-1.6653-1.8699-4.7242-3.4649-9.5636-4.8265-14.323ZM109.2329,212.0155c.4571,1.1251.9269,2.2311,1.4192,3.3178,1.2849,2.7681,2.6594,5.485,4.1169,8.154-4.5229-.1982-9.0489-.4315-13.5686-.6968-2.4037-3.8708-4.5293-8.0453-6.4087-12.3636,4.8042.6009,9.6179,1.1315,14.4412,1.5886ZM116.885,227.2207c1.951,3.3258,4.0846,6.5314,6.2969,9.6782l-11.0119.0711c-2.6846-2.9958-5.3128-6.0531-7.6997-9.3434-.2557-.3452-.5082-.6936-.7575-1.0452,4.3886.2461,8.7804.4571,13.1723.6393ZM110.4607,240.6187c2.7121,2.9487,5.5285,5.7878,8.5052,8.4364-3.1644.2046-6.0348.4027-8.5503.5849-3.6347-2.5927-7.3293-5.6136-11.0255-8.9494l11.0706-.0719ZM122.9581,252.4497c3.3977,2.7649,6.9457,5.3379,10.6279,7.7129-1.1891.2397-2.3781.4954-3.564.7671-4.6284-2.0776-9.5891-4.6923-14.7257-7.9845,2.3525-.1598,4.9192-.3292,7.6617-.4954ZM128.4463,252.13c2.1544-.1215,4.3918-.2397,6.7028-.3548,2.2247,2.3973,4.5357,4.7147,6.9265,6.9553-1.0484.1438-2.0968.2973-3.142.4667-3.6279-2.1671-7.1279-4.5261-10.4873-7.0672ZM139.9501,251.5451c1.7228-.0767,3.4745-.1502,5.2548-.2205,1.2466,2.4356,2.4644,4.6507,3.6311,6.6517-.6648.0575-1.3297.1183-1.9913.1854-2.3749-2.1256-4.6763-4.3311-6.8946-6.6165ZM145.6364,261.9525c.8726.7639,1.758,1.5183,2.653,2.263-1.3968-.668-2.7776-1.3649-4.1425-2.0872.4954-.0607.9909-.1183,1.4895-.1758ZM150.6899,261.4762c.0831-.0064.1662-.0096.2493-.016.0991.1566.1982.3164.2973.4699-.1822-.1502-.3644-.3005-.5466-.4539ZM152.9817,257.6821c-1.1571-1.9338-2.3877-4.1073-3.6567-6.5142,2.848-.0991,5.7535-.1918,8.6941-.2653-.0032,2.3877-.0032,4.5932-.0064,6.5909-1.6781.032-3.3562.0927-5.0311.1886ZM158.0096,261.1342c-.0032,1.6014-.0032,3.0142-.0064,4.2192-.8215-1.1379-1.7708-2.5187-2.8192-4.1361.9429-.0384,1.8827-.0671,2.8256-.0831ZM147.5063,247.5912c-1.0888-2.2135-2.1907-4.6419-3.2879-7.191l13.8147-.0895c-.0024,2.3977-.0052,4.7898-.0076,6.9513-3.5735.0895-7.0928.2014-10.5193.3292ZM168.9536,240.2399l-.0212.2553-2.1408,1.4731c-.6245.4251-1.1699.9569-1.6102,1.571,0,0,1.5315.8051,1.7936,1.4595.2617.6549,1.3812.6549,1.3812.6549l1.1715-1.2766s2.8671.6936,3.7773.8902c.01.002.0176-.004.0272-.002-.2961.6237-.5941,1.2829-.8878,1.8815-3.6055-.0384-7.1918-.032-10.7814.032.0024-2.2179.0052-4.614.008-6.8918l7.2825-.0471ZM161.6471,261.131c.9525.016,1.905.0416,2.8544.0735-1.0708,1.6397-2.0361,3.0206-2.8576,4.1489,0-1.3872.0032-2.7968.0032-4.2224ZM161.6503,257.4904c.0032-2.1863.0064-4.4078.0096-6.6708,2.979-.0543,5.9644-.0607,8.9435-.0479-1.3489,2.5667-2.653,4.8617-3.874,6.885-1.6909-.0831-3.385-.1374-5.079-.1662ZM168.8101,261.4187c1.042.0671,2.0872.1438,3.1293.2301-2.2151,1.6493-4.2352,2.979-5.9772,4.0338.863-1.2274,1.8219-2.6466,2.848-4.264ZM188.4263,251.3341c.9034.0511,1.8056.1187,2.7085.1762-.4003.2194-.718.4475-.718.4475-.1163,1.3029.5278,1.5826,1.3852,1.6437-3.0621,2.116-6.0827,4.0498-8.9471,5.6596-.6648-.0991-1.3265-.195-1.9913-.2877,2.4388-2.2087,4.9863-4.7498,7.5626-7.6393ZM199.946,252.1684c.8343.0735,1.6653.1502,2.4996.2301-3.9571,2.4005-7.8663,4.4877-11.6124,6.2937,2.979-1.9242,6.0443-4.0914,9.1129-6.5238ZM222.4485,221.1156c-2.0437.2221-4.0922.3812-6.137.5805l-.0567-.6301,1.6429-.7987,1.6761.1111.6545-1.5646.1506-1.8327c-1.1187-.4163-2.3314-.5138-3.502-.2817-.9513.2549-1.9666-.0056-2.6774-.6872l-.6549.6153-1.0996-.203.3928-1.0604-2.3809-.4359c.5174-1.2921,1.0408-2.5683,1.5363-3.9164,4.9036-.509,9.7989-1.0984,14.6881-1.7248.139.155.2709.3176.4527.4275.326-.0775.6453-.1806.9557-.3077.1191-.0224.2417-.02.3616-.0388-1.8183,4.1829-3.8329,8.0996-6.0028,11.7475ZM234.4817,204.5796c.1135-.3264.4387-.5638.4683-.7823.0124-.0911-.1079-.1838-.2857-.2721,1.406-3.9787,2.6626-8.1496,3.6958-12.5737,2.8831-.6361,5.632-1.2881,8.4033-1.9498,1.5407-.3676,3.0941-.7384,4.6891-1.1091-1.3137,5.2772-2.9694,10.2156-4.9096,14.8504-4.0111.6521-8.0313,1.2658-12.0611,1.8367ZM245.9195,185.4601c-2.2247.5306-4.4334,1.058-6.7124,1.5726.9749-4.8841,1.7101-10.0366,2.1607-15.4673,4.9831-1.0005,9.375-2.0137,13.1499-2.9662-.4059,5.3955-1.1411,10.5001-2.1607,15.3522-2.2151.505-4.3375,1.0101-6.4375,1.5087ZM241.6331,167.8065c.1151-2.0009.1918-4.0466.2301-6.1179.0575-3.0877-.0192-6.1115-.2237-9.0777,4.085-.8311,8.154-1.7324,12.2102-2.7073.4219,3.0461.7671,6.1754,1.0356,9.4037-.0096,1.8603-.0543,3.6854-.1374,5.485-3.7206.9557-8.0996,1.9881-13.1147,3.0142ZM252.5839,126.8098c-1.7005-5.68-3.6918-10.9764-5.9101-15.902,2.623-.7348,5.2293-1.5355,7.8347-2.3417,2.6434,5.1406,4.9212,10.4937,6.7268,16.0674-2.8803.7408-5.7579,1.4971-8.6514,2.1763ZM245.1076,107.5676c-2.2886-4.6987-4.7914-9.0457-7.4603-13.07,2.2339-.6269,4.4426-1.3441,6.6529-2.0545,3.1049,4.0778,5.9792,8.3333,8.4916,12.8326-2.5563.7867-5.1118,1.577-7.6841,2.2918ZM235.4673,91.3236c-.3676-.5154-.7543-.9853-1.1271-1.4891.2677.3096.6297.5274.8654.8638l.495.5542c-.0783.0216-.155.0495-.2333.0711ZM227.7705,81.7217c.2593-.0783.5106-.1886.7695-.2693.1538.5941.382,1.1675.505,1.7692-.4275-.4934-.8422-1.0188-1.2746-1.4999ZM60.8238,109.9549c.7631.3808.8394.5514,1.4252.6441.4807.0783.9661.1219,1.4532.1311,0,0-.2162-.6549.8638-.0983.5945.2178.9357.8418.7987,1.4595l1.1391,1.0672,1.1.6021,1.6757-.157c.5686-.1179,1.1607-.0148,1.6561.2881.3995.3144-.1374,2.7429-.8838,4.4254-.6872,1.5446-1.3812.7787-2.2518,1.8655-.7855.9429-1.1847,1.1719-1.8723.9753-.6872-.1962-.8315.5698-1.6561,0-.8247-.5694-.9557-.4515-2.2451-.4515-.9617-.1418-1.9086-.372-2.828-.6876-.5502,0-.7464-.5106-1.6761-.8638-.4631-.1762-.5893-.1574-.694-.1442,1.1958-3.0925,2.5319-6.1071,3.9955-9.0557ZM64.6619,213.2038c.195-1.4532.0991-2.9319-.5534-4.2676.2885-1.4428-.0615-2.5675-.4727-3.4864,1.6425.3148,3.2771.6676,4.9232.9657.5997,1.3321,1.3133,2.5751,1.9714,3.86-.016.0164-.0232.0388-.0396.0547.2845.9142.4411,1.8639.4647,2.8212,0,1.4404-.7068,1.9246-.2289,2.6186s1.1783.9361,2.5791.2289c.1123-.0527.1598-.1746.2629-.2401,1.086,1.7824,2.1691,3.5648,3.3874,5.2736-2.5803-.2213-5.1502-.4779-7.724-.7224-1.6298-2.311-3.1336-4.6879-4.57-7.1063ZM75.2051,211.3267c.1143-.6868.2281-1.4719.2281-2.3845.0955-.4471.2725-.8718.3832-1.3153,4.9048.8107,9.8145,1.5894,14.7433,2.2502,1.8219,4.3662,3.8868,8.6302,6.2233,12.6417-5.0119-.3196-10.0174-.6808-15.0134-1.0836-.3069-.4059-.6137-.8151-.9174-1.2306-2.0988-2.8344-3.9315-5.8154-5.6472-8.8779ZM99.126,226.3129c.7735,1.1859,1.5758,2.3397,2.4069,3.4617,1.8315,2.5263,3.8544,4.8677,5.8586,7.2266l-11.827.0767c-3.6163-3.54-7.2214-7.3832-10.755-11.7527,4.7658.3676,9.538.6968,14.3166.9877ZM94.0853,240.725c3.5999,3.4453,7.2102,6.5945,10.7878,9.3338-1.5454.1211-2.7425.2198-3.6998.3001-4.6232-2.8556-9.0665-6.0276-13.2646-9.5939l6.1766-.04ZM109.3959,253.3638c3.0501,2.126,6.0364,3.9543,8.9746,5.6368-4.0402-1.5838-8.0025-3.3538-11.8282-5.4195.9106-.0703,1.7916-.139,2.8536-.2174ZM135.9994,263.4005c.7384-.1374,1.4799-.2717,2.2247-.3964,1.3601.7915,2.7533,1.5343,4.1473,2.2726-.4603-.0663-.9206-.1319-1.3792-.2038-1.6278-.5202-3.2128-.9973-4.9927-1.6725ZM208.2822,253.0026c.5686.0635,1.1335.1466,1.7017.213-3.3478,1.8347-6.8055,3.4868-10.3547,4.9672,2.8556-1.5814,5.7423-3.2703,8.653-5.1801ZM226.4472,241.5552c-.8838-.3077-2.1667.7268-2.0361,1.3485.1311.6221-5.2632,1.6957-5.8522,2.7429-.183.3256-.6465.5266-1.1811.6992,2.5391-2.0109,5.0359-4.1621,7.4895-6.4683l2.8056-.0184c-.016.1934-.1287.3692-.1199.5642.0563.3652.2973.3568.5817.2385-.5006.4255-.9753.8774-1.4835,1.2941.0392-.181.002-.3292-.2042-.4007ZM220.6541,236.2672c.3904-.6169.7196-1.1467.7196-1.1467l1.3093-2.4221-.0655-1.2506.2421-1.7936,1.6757-1.9638s1.0017-2.2071,1.4951-3.3246c2.9566-.3396,5.9121-.6924,8.8584-1.08-3.5512,4.8121-7.4468,9.0657-11.4826,12.9633l-2.7521.018ZM226.981,220.601c2.116-3.7717,4.0722-7.8024,5.827-12.1079.394-.0547.7859-.1199,1.1799-.1754.0408.0092.0783.0128.1179.0224.4779.1179.5761,1.1323.5761,1.1323.4495.0667.9082.042,1.3485-.0719.7348-.0835,1.4787-.028,2.1927.1638-.5122-.5022-.9285-1.0872-1.3349-1.6777,2.6322-.3832,5.2656-.7567,7.8934-1.1739-2.1064,4.4749-4.4749,8.6366-7.0512,12.517-3.5799.4922-7.1599.9493-10.7494,1.3712ZM257.6933,200.7983c-2.3118.4207-4.6212.8506-6.9409,1.2446,1.8475-4.7115,3.4137-9.7138,4.6475-15.0453,2.3206-.5118,4.8321-1.016,7.4647-1.5143-1.3812,5.2588-3.0505,10.3974-5.1713,15.315ZM263.8671,181.5956c-2.7009.4918-5.2736.9897-7.6361,1.4959.9557-4.8905,1.6302-10.0398,1.9913-15.4577,3.2371-.871,5.8837-1.6613,7.9382-2.311-.374,5.5457-1.1139,10.9843-2.2934,16.2727ZM241.9784,89.3395c-1.3337.4179-2.667.8347-4.0099,1.2218.0036-.1506.0128-.3104.0128-.4519,0-1.3944-1.5774-2.7693-1.7804-3.3582-.1466-.8494-.2146-1.7109-.203-2.5727,0,0-1.3812-1.774-2.3697-1.9638-.9605-.1846-1.7037-1.8367-1.7456-1.9318.4159-.1458.8327-.2857,1.247-.4367,3.1205,3.0014,6.1031,6.1406,8.8488,9.4932ZM72.1362,224.2213c2.5743.2353,5.1414.4974,7.722.7108,3.4725,4.4977,7.026,8.4896,10.6012,12.179l-6.5318.042c-.881-.8255-1.8179-1.5694-2.6758-2.4272-3.313-3.313-6.2925-6.8594-9.1157-10.5045ZM233.0585,236.1865l-.7727.0052c.4523-.718.8239-1.4955-.026-2.0661-1.2162-.8163-1.8635,1.0484-2.4201,2.082l-1.249.008c3.9811-4.1093,7.8-8.5795,11.2524-13.6042,1.9402-.2725,3.8696-.5981,5.8066-.8918-3.7805,5.1841-7.9734,10.0326-12.5913,14.4668ZM157.9936,0C70.8732.0032-.0032,70.8828,0,158.0064,0,200.2113,16.4358,239.8879,46.2803,269.7293c29.8414,29.8414,69.5148,46.2707,111.7133,46.2707h.0128c87.1204-.0032,157.9968-70.8828,157.9936-158.0064C315.9968,70.8828,245.1236.0064,157.9936,0ZM158.0064,310.2082h-.0128c-40.6483,0-78.8705-15.8316-107.6155-44.5766C21.6267,236.8865,5.795,198.6643,5.7918,158.0064c-.0032-83.9272,68.2746-152.2114,152.221-152.2146,83.9176.0064,152.1922,68.2842,152.1954,152.2018.0032,83.9272-68.2746,152.2114-152.2018,152.2146ZM65.5748,245.5423l-6.2649-7.1615,2.7101-5.073-3.3842-3.8624-11.5145,22.7874,3.3514,3.836,23.8018-8.7589-3.3646-3.8492-5.3351,2.0816ZM52.9603,250.4915l4.3662-8.2942,4.3203,4.9032-8.6865,3.391ZM44.3913,221.5108c-.157.6453-.157,1.3185,0,1.9638.1179.5761.491,1.8459,1.0996,3.8033.7,1.8551.9641,3.846.7727,5.8194-.2941,1.804-1.3792,3.3818-2.959,4.3011-1.0244.6241-2.2123.9273-3.4105.8706-1.2989-.0623-2.5479-.519-3.5807-1.3093-1.2518-.9729-2.2994-2.1831-3.0833-3.5612-1.3872-1.9562-2.0133-4.3511-1.7608-6.736.3596-1.975,1.5518-3.6994,3.2731-4.733l2.6182,3.9931c-.8195.5993-1.3884,1.4807-1.597,2.4744-.0563,1.0692.2505,2.1256.8706,2.9982.5254,1.0164,1.3692,1.8327,2.4025,2.3242.5302.2561,1.1559.2166,1.6497-.1047.4703-.2845.7875-.7651.8638-1.3093-.0008-1.5718-.3077-3.1281-.9034-4.5824-.6017-1.7085-1.0017-3.4817-1.1914-5.2828-.0743-1.2002.1742-2.3981.72-3.4697.6465-1.1479,1.595-2.0964,2.7429-2.7429,1.1587-.7008,2.4964-1.0488,3.8492-1.0017,1.4224.0408,2.7956.5262,3.9279,1.388,1.3712,1.08,2.5223,2.4137,3.391,3.9275,1.418,2.0293,2.0485,4.5049,1.774,6.9653-.4743,2.2758-1.8056,4.2823-3.7182,5.6032l-.0459.0531-2.7952-3.7577c1.044-.8035,1.7772-1.9438,2.0748-3.2271.1498-1.2386-.147-2.4896-.8378-3.5284-.557-1.1039-1.4835-1.9774-2.6182-2.468-.8327-.3392-1.7752-.2741-2.5531.1766-.4507.2573-.7959.6652-.9753,1.1523ZM47.6839,209.7145l-21.6023,9.6558-1.9314-4.3403,21.6023-9.6423,1.9314,4.3267ZM43.2258,199.3391l-5.7147-.3336-2.7229-9.1125,4.5824-3.5088-1.4731-4.9028-19.9594,15.894,1.4595,4.8705,25.2881,1.9638-1.4599-4.8705ZM23.9085,198.246l7.4428-5.7211,1.8659,6.2449-9.3086-.5238ZM37.8059,180.0478l-23.5665,2.4288-.4711-4.5824,14.84-11.3379-15.8416,1.6298-.4583-4.3858,23.5661-2.4221.491,4.7458-14.4932,11.1286,15.4752-1.5842.4583,4.3794ZM37.5486,139.809l-23.3419-3.9743.7979-4.6851,23.3415,3.9743-.7975,4.6851ZM38.7812,131.2328l-22.6108-6.9325,1.3485-4.4318,18.0807-4.6607-15.2263-4.6611,1.3093-4.222,22.6431,6.9389-1.4008,4.5824-17.6748,4.6216,14.8795,4.5824-1.3485,4.1829ZM27.6654,99.4708c-.6225-1.1371-.8938-2.4332-.7787-3.7246.1702-1.577.6485-3.1049,1.4072-4.4973.9461-2.2103,2.663-4.0015,4.8313-5.0407,1.8727-.7284,3.9695-.6089,5.7475.3272l-2.0361,4.3011c-.9393-.3724-1.9822-.3888-2.9327-.0459-.9457.507-1.6897,1.3225-2.1076,2.311-.5829.9869-.8434,2.1308-.7464,3.2731.0799.5853.4455,1.0932.9753,1.3549.5054.2493,1.098.2493,1.6038,0,1.3289-.8199,2.4888-1.8863,3.4169-3.142,1.1371-1.4124,2.4356-2.6866,3.8688-3.7969.9833-.6896,2.1344-1.1016,3.3322-1.1914,2.7137-.0867,5.2588,1.3137,6.6377,3.6531.71,1.2202,1.0148,2.6342.8706,4.039-.2062,1.7416-.7484,3.4269-1.597,4.962-.9917,2.2662-2.7709,4.0962-5.0079,5.1518-2.1791.7671-4.5664.6764-6.6852-.2417l1.7364-4.3211c1.2278.4747,2.5843.5002,3.8293.0719,1.1407-.5122,2.0541-1.4252,2.5663-2.5659.6493-1.054.9046-2.3042.72-3.5284-.1323-.8938-.6812-1.6717-1.4795-2.0948-.4519-.2597-.9857-.3372-1.4927-.2162-.6409.201-1.2214.5586-1.6889,1.0408-.4187.4191-1.3093,1.3944-2.6774,2.9327-1.2102,1.563-2.7617,2.828-4.5365,3.6986-1.6961.702-3.6171.6085-5.2369-.2553-1.0656-.5562-1.9478-1.4088-2.5399-2.4548ZM38.434,107.1561c.01.0044.0212.0028.0312.0072l-.0048.0124-.0264-.0196ZM39.1676,80.6505l-3.2076-2.3957,11.2528-14.9842,3.2076,2.3957-4.1896,5.5905,15.7106,11.783-2.854,3.8101-15.7106-11.783-4.2092,5.5837ZM67.8986,76.003l-17.2033-16.2803,3.2731-3.4433,17.1705,16.2803-3.2403,3.4433ZM59.9057,55.6509l-2.5795-3.0833,14.3689-12.0515,2.5727,3.0833-5.3415,4.4841,12.6273,15.0561-3.6459,3.0569-12.6473-15.0561-5.3547,4.5105ZM83.0858,47.9065l-6.3696-10.9388,4.1173-2.3829,6.4611,11.1286c.6321,1.1711,1.3497,2.2934,2.1472,3.3582.6229.7248,1.4935,1.1918,2.4416,1.3093,1.1167.0847,2.2303-.2006,3.1684-.8115.9673-.4894,1.7468-1.2829,2.2191-2.2586.3156-.7647.3296-1.621.0396-2.3957-.5242-1.2438-1.1391-2.4468-1.8395-3.6003l-6.6049-11.4103,4.1045-2.3893,6.2713,10.775c1.0628,1.7196,1.9634,3.534,2.6905,5.4203.3604,1.0516.4547,2.1759.2749,3.2731-.2257,1.1239-.7148,2.1783-1.4272,3.0765-.9869,1.1867-2.1939,2.1711-3.5544,2.8999-1.4667.9461-3.1065,1.5914-4.8245,1.8986-1.1507.1398-2.3178.0124-3.4105-.3732-.9369-.3408-1.7816-.8942-2.468-1.617-1.3209-1.5255-2.4732-3.1892-3.4369-4.962ZM100.1776,28.5828l-1.4008-3.7641,17.5833-6.5462,1.3944,3.7769-6.5462,2.4352,6.8342,18.4275-4.4845,1.6629-6.8342-18.4275-6.5462,2.4352ZM126.6504,39.9331l-4.4645-23.2456,17.1905-3.2731.7527,3.9279-12.5098,2.3893.9753,5.119,11.652-2.2323.7527,3.9279-11.6588,2.2191,1.2178,6.3041,12.9549-2.4744.7527,3.9275-17.6156,3.4105ZM183.8834,35.8158c4.8629-4.6395,5.8981-12.0132,2.5008-17.8122-1.8667-2.5008-4.7031-4.0962-7.8095-4.3926-1.7272-.2869-3.4952-.211-5.1913.2225-1.207.3216-2.3362.885-3.3186,1.6561-1.0372.8123-1.9234,1.8008-2.6186,2.9199-1.0332,1.7992-1.6881,3.7909-1.9246,5.8522h-.0132c-.6381,3.198.0216,6.5186,1.8331,9.2299,4.0962,4.9132,11.2508,5.9185,16.542,2.3242ZM170.4051,24.8119l.0196-.02c.1366-2.1859,1.068-4.2464,2.6182-5.7934.0871-.0695.1762-.1366.2669-.2014,2.9395-2.1052,7.0284-1.4288,9.1336,1.5107,1.0544,1.9086,1.3732,4.1373.8966,6.2649-.141,2.2215-1.0856,4.3155-2.6578,5.8913-1.3589,1.1707-3.1652,1.6813-4.9356,1.3944-1.7916-.2086-3.3942-1.2106-4.3662-2.7297-1.0972-1.9118-1.4448-4.1633-.9753-6.3168ZM193.6048,41.4454l-4.5037-1.4863,7.43-22.4665,15.4097,5.1062-1.257,3.7901-10.8797-3.6003-1.7744,5.2764,9.4265,3.1093-1.2566,3.8033-9.4265-3.1093-3.1684,9.5771ZM227.0948,57.6214l11.4754-15.9595-5.682-4.085,2.3302-3.2731,15.2263,10.9324-2.7493,3.7246-5.2369-4.5428-11.4754,15.9727-3.8884-2.7693ZM238.2234,65.948l16.7646-16.7059,12.3592,12.3987-2.854,2.828-8.975-9.0338-3.705,3.6918,8.3661,8.3989-2.8476,2.828-8.3597-8.4053-4.5824,4.5297,9.3022,9.3414-2.8348,2.828-12.6337-12.6996ZM261.8882,73.6593c2.6226-2.0625,5.9433-3.027,9.2627-2.6905,2.9922.4635,5.6368,2.1991,7.2534,4.759,1.5806,2.0685,2.275,4.6795,1.931,7.2598-.3152,1.6553-1.0708,3.1952-2.1863,4.4581l-3.6135-3.2144c1.6725-1.7416,1.8443-4.4362.4059-6.376-.8966-1.3728-2.3629-2.2694-3.9931-2.4416-2.1771-.0288-4.2935.7184-5.97,2.108-1.9658,1.1091-3.4928,2.858-4.3271,4.9552-.4411,1.5554-.139,3.2271.8183,4.5301.6728,1.0041,1.6945,1.7228,2.8671,2.0161,1.4508.2593,2.9463.0623,4.2811-.563l-.0004-.0128,1.4404,4.6347c-2.148.8794-4.5281,1.0152-6.7623.386-4.9316-1.9462-7.8167-7.0904-6.9062-12.3132.7831-3.1209,2.7569-5.8114,5.499-7.4955ZM265.4753,99.8571l21.6023-9.6423,1.9638,4.3531-8.5099,3.7905,3.8165,8.5887,8.5099-3.7969,1.9638,4.3535-21.6023,9.6227-1.9246-4.3335,9.4133-4.196-3.8233-8.5819-9.4329,4.196-1.9766-4.3539ZM274.3912,120.7518l23.0423-5.4398,1.0736,4.5105-13.2626,13.1511,15.4948-3.6722.9953,4.3139-23.0231,5.4398-1.0996-4.6479,12.9417-12.9221-15.1544,3.5743-1.0081-4.3075ZM297.0539,142.3286c-1.9598-.6924-4.0402-.9773-6.1143-.8378l-.0132.0128c-3.2563-.0739-6.4055,1.1643-8.7393,3.4369-4.1109,4.9056-3.8277,12.1302.6549,16.6991,5.431,3.9419,12.855,3.6527,17.9624-.7004,2.1324-2.297,3.1972-5.3867,2.9327-8.5099-.028-1.7404-.4087-3.4577-1.1191-5.0471-.5318-1.1351-1.2969-2.1456-2.2455-2.9654-.9721-.889-2.0964-1.5966-3.3186-2.088ZM297.8266,157.4434c-1.6753,1.386-3.8045,2.102-5.9768,2.0097-2.2155.2553-4.4478-.3132-6.2713-1.597-.1466-.1251-.2877-.2569-.4227-.3948-2.4512-2.508-2.4057-6.5282.1019-8.9794,1.6801-1.4124,3.8225-2.1536,6.016-2.0816,2.1863-.2421,4.3862.316,6.1926,1.571,1.3948,1.1579,2.2047,2.8743,2.2127,4.6871.1374,1.7928-.5434,3.552-1.8523,4.785ZM279.6412,167.6367l23.2125,3.2731-.6545,4.6935-19.2526-2.7297-1.6757,11.8226-3.9735-.563,2.3437-16.4965ZM293.6897,192.1453c-1.5862-1.3469-3.4369-2.3461-5.4334-2.9327l.0064.0064c-3.0262-1.2026-6.4075-1.1483-9.3937.1506-2.794,1.4168-4.8617,3.9455-5.6951,6.9653-1.1199,2.8975-.9533,6.135.4583,8.9027,3.7158,5.6036,10.7846,7.9354,17.1054,5.6428,2.786-1.4056,4.8513-3.92,5.6883-6.9261.5841-1.6465.8247-3.3953.7072-5.1386-.0939-1.2538-.4555-2.4724-1.0604-3.5743-.6029-1.1663-1.41-2.2147-2.3829-3.0961ZM292.5438,202.7173c-.4811,1.74-1.7332,3.1632-3.3973,3.862-2.0673.7088-4.3227.6321-6.3368-.2158-2.1528-.5434-4.0338-1.8539-5.2892-3.6854-.9166-1.5319-1.0968-3.3942-.491-5.0734.523-1.7224,1.7848-3.1233,3.4433-3.8229,2.078-.7424,4.3579-.684,6.3955.1634l.0004-.0064c2.1284.5362,3.9891,1.8271,5.2369,3.6331.915,1.561,1.076,3.4517.4383,5.1454ZM284.479,219.39c1.1451,1.8351,1.6941,3.9803,1.571,6.1402-.155,1.9426-.7699,3.8209-1.7936,5.479-1.0924,2.1819-2.8604,3.9519-5.0407,5.0471-1.9238.7987-4.0734.8638-6.0419.1834l1.6298-4.5824c1.1123.3013,2.2942.2162,3.3518-.2421,1.1039-.5226,2.0073-1.3912,2.5727-2.4744,1.0077-1.5674,1.2825-3.496.7527-5.2828-.7727-1.9897-2.2726-3.6115-4.196-4.5365-1.8847-1.2821-4.1741-1.8295-6.4351-1.5383-1.8247.3824-3.387,1.5514-4.268,3.1948-.5086.903-.8438,1.8935-.9885,2.9195-.1702.9709-.1946,1.9614-.0719,2.9395l2.6182,1.4991,2.6642-4.6415,3.4892,1.9638-5.0798,8.8372-8.1763-4.6871c-.338-1.6593-.3536-3.3686-.0455-5.0339.2869-1.9518.9373-3.8325,1.9178-5.5445,1.0796-1.9798,2.6594-3.6411,4.5824-4.8181,1.774-1.0576,3.8333-1.5359,5.8917-1.368,2.1799.1774,4.2911.8486,6.173,1.9638,1.9949,1.0964,3.6866,2.671,4.9228,4.5824ZM259.7538,241.7914l16.0578,2.3174-3.6527,4.268-10.7622-1.8982,3.6135,10.2576-3.5871,4.1701-4.7854-15.5276-7.541-6.4611,3.0833-3.6135,7.5738,6.4874ZM131.7302,277.3103l3.6135.7004-4.5365,23.2848-4.445-.8638,3.2731-16.765c-1.9446,1.2106-4.1289,1.9834-6.4019,2.265l.7919-4.0454c1.4707-.2337,2.8899-.7188,4.196-1.4336,1.4496-.6852,2.6686-1.7768,3.5088-3.1424ZM150.4218,281.4448c-2.8719-3.1596-7.7616-3.3926-10.9208-.5202-1.5027,1.5203-2.3369,3.5771-2.3174,5.7147-.1606,2.0481.4958,4.077,1.8263,5.6428,1.1647,1.4188,2.8911,2.2578,4.7262,2.2978,1.6489.0911,3.2463-.5917,4.3203-1.8463-.0128,1.8731-.5042,3.7118-1.4268,5.3419-.541.7911-1.4444,1.2562-2.4025,1.237-.6497-.0036-1.273-.2569-1.7412-.7068-.4683-.569-.7392-1.2742-.7727-2.0097l-4.4122.3336.0004.0004c.1247,1.6965.8458,3.2947,2.0361,4.5101,1.225,1.0732,2.8032,1.6561,4.4318,1.6365,2.4149.1482,4.7594-.8426,6.3364-2.6774,1.9294-2.6949,2.8851-5.966,2.7101-9.2759.3804-3.2156-.3296-6.4659-2.0161-9.2299-.1203-.1542-.2465-.3041-.378-.4487ZM146.8259,290.3311c-.5474.6365-1.3541.9905-2.1931.9621-.8722-.0232-1.6869-.4423-2.2127-1.1391-.6353-1.0001-.9078-2.1875-.7723-3.3646-.0643-1.1327.2561-2.2542.9098-3.1816.5214-.6189,1.2993-.9617,2.108-.9293.9182.0575,1.7564.5422,2.265,1.3093.6792.9861.9921,2.1787.8838,3.3714l.0064-.0068c.0535,1.0828-.3013,2.1456-.9949,2.9786ZM169.2269,289.4533c1.545,1.4488,2.4396,3.4597,2.4812,5.5773.1506,1.8787-.3232,3.7541-1.3485,5.3351-1.3253,2.1548-3.6507,3.4928-6.1798,3.5548-1.9138.2086-3.8384-.2873-5.4135-1.3944-1.4699-1.1067-2.4648-2.7309-2.782-4.5432l-.02-.006,4.4973-.7659c.1354.913.6013,1.7444,1.3093,2.3369.6141.5346,1.4124.8095,2.2255.7659.9349-.0555,1.792-.5386,2.3242-1.3093.6624-1.0684.9313-2.335.7591-3.5807.0108-1.2046-.4251-2.3709-1.2242-3.2731-.69-.6856-1.6497-1.0288-2.6182-.9361-1.3732.1239-2.6234.8414-3.4237,1.9638l-3.679-.2881,1.5319-12.4375,12.0188-.7855.2617,4.2288-8.5755.563-.5038,4.0518c.9409-.5374,1.9893-.8594,3.0701-.9425,1.9518-.1602,3.8784.5266,5.2892,1.8851ZM187.1046,279.0979c-.1486-.1442-.3029-.2829-.4627-.4147-3.2875-2.7189-8.1567-2.2574-10.8753,1.03-1.2817,1.7105-1.8219,3.864-1.4991,5.9768.1291,2.0557,1.0712,3.9751,2.6182,5.3351,1.3529,1.2406,3.178,1.8327,5.0015,1.6234,1.6429-.1506,3.1265-1.0456,4.0258-2.4288.2433,1.8567.0184,3.745-.6549,5.4922-.4427.845-1.2674,1.4232-2.2127,1.5514-.6445.0979-1.3005-.0751-1.8131-.4779-.5642-.4823-.9361-1.1515-1.0476-1.8851l-4.3335.9621h.0264c.3564,1.6661,1.2997,3.148,2.6578,4.1765,1.3457.9014,2.9822,1.2614,4.5824,1.0081,2.4021-.1962,4.5776-1.4943,5.8913-3.5152,1.5235-2.9395,2.0057-6.3084,1.3684-9.5572-.0639-3.2423-1.217-6.3692-3.2731-8.8767ZM184.9442,284.9436c.1926,1.0564-.01,2.1468-.5698,3.0633-.4491.7112-1.2046,1.1715-2.0425,1.2438-.861.1131-1.7252-.1822-2.3369-.7987-1.4196-1.8823-1.7169-4.383-.7787-6.5462.4359-.6784,1.1607-1.1179,1.9638-1.1914.9098-.0779,1.8044.2701,2.4221.9429.8235.897,1.3033,2.0565,1.3549,3.2731l-.0128.0132ZM96.1845,273.8019c0,3.3186-2.6905,6.0092-6.0092,6.0092s-6.0096-2.6905-6.0096-6.0092c0-3.3162,2.6866-6.006,6.0028-6.0096,3.3202,0,6.0124,2.6893,6.016,6.0096ZM233.615,271.8904c.0036,3.3186-2.6842,6.0124-6.0028,6.016-3.319.0036-6.0124-2.6842-6.016-6.0028-.0036-3.319,2.6838-6.0124,6.0028-6.016h.0064c3.3118.0108,5.9952,2.6909,6.0096,6.0028ZM182.6792,190.5479c-.1702.2485-.8578.1506-.8578.1506-.2573-.1782-.4647-.4191-.6021-.7004l-.0064.0064s.4059-.6021.8115-.1834c.4059.4191.8251.4779.6549.7268ZM67.1718,117.4995l-.7855-.9034.9034-.5698s.4583-.7987.9034-.9034,1.0148.4583,1.0148.4583c-.1119.2881-.1842.5897-.2162.897-.0204.3892-.3045.7136-.6872.7855-.384.0443-.7631.1231-1.1327.2357ZM224.9217,92.8914c-.0012.0008-.0012.0024-.0024.0032-.0016-.0008-.0024-.002-.004-.0028l.0064-.0004ZM232.8623,103.3588s1.9638.1442,2.5135,1.2634c.5502,1.1195.8315,1.8135.8315,1.8135h-1.1127l.1438,1.2634c-.6341-.4803-1.1982-1.0464-1.6757-1.6825-.6632-.7132-.9258-1.7105-.7004-2.6578ZM215.8356,145.4251c-.0292.6453-.1758,1.2797-.4323,1.8723-.5761,1.2242-.314,1.211-.7919,1.9638-.8902-.1111-1.8004-1.0017-1.7085-2.7952.0915-1.7936.1834-3.4301,1.9246-3.6854v-.0132c.8902-.1307,1.1323,1.1063,1.0081,2.6578ZM197.7813,199.0838s.0124-.0128.0132-.0136c.0004,0,0,.0004.0004.0004l-.0136.0132ZM211.5672,171.7736h0l.0004-.0004-.0004.0004ZM214.5395,169.3775c.2881.4191.9885,1.2634.4255,1.8263-.5502.5546-1.4456.5582-1.9997.008-.1982-.1966-.334-.4479-.3896-.7216-.2881-1.4008-1.1327-1.1127-.1442-2.2387v.0068c.7567.2613,1.4675.6389,2.108,1.1191ZM211.1421,166.8508c-1.1127-.1506.0196-.4191.1506-1.4008.1307-.9821-1.2829-.9885-1.5514-1.6957-.2685-.7068.4059-1.1191.563-1.9638.157-.8442.0196-.8442-.4059-1.5446s.5498-1.1195,1.4008-1.1195c.5574.03,1.0932.2261,1.5383.563,0,0,1.2762,1.6889,1.8263,2.2518.5498.563.2881.9753.2881,1.5383s-.4323.4191-.1442,1.8263c.1846.7947-.0276,1.6294-.5694,2.2391v-.0068c-1.9638.9885-1.9834-.537-3.0961-.6872Z" fill="#3f6433"/>
  </g>
</svg>