<?xml version="1.0" encoding="UTF-8"?><svg id="b" xmlns="http://www.w3.org/2000/svg" width="327" height="304.63" xmlns:xlink="http://www.w3.org/1999/xlink" viewBox="0 0 327 304.63"><defs><style>.t{clip-path:url(#k);}.u{clip-path:url(#q);}.v{fill:#fff;}.w{fill:url(#j);}.x{fill:none;}.y{fill:url(#m);}.z{clip-path:url(#h);}.aa{fill:#ffb301;}.ab{clip-path:url(#o);}.ac{clip-path:url(#n);}.ad{fill:url(#i);}.ae{clip-path:url(#r);}.af{fill:url(#f);}.ag{clip-path:url(#g);}.ah{fill:url(#p);}.ai,.aj{fill:#80c41c;}.ai,.ak{fill-rule:evenodd;}.al{clip-path:url(#l);}.am{clip-path:url(#d);}.an{fill:#001b0b;}.ak{fill:#33a02c;}.ao{clip-path:url(#e);}.ap{fill:url(#s);}</style><clipPath id="d"><path class="x" d="M54.93,61.67c9.49,96.6,43.84,168.33,108.26,209.97h0c62.96-42.7,98.46-112.82,106.97-209.97h0c-44.32-7.05-78.61-24.19-107.62-46.58h0c-28.64,22.74-63.21,39.58-107.61,46.58"/></clipPath><clipPath id="e"><polygon class="x" points="192.58 -87.09 384.73 185.6 120.84 371.58 -71.35 98.89 192.58 -87.09"/></clipPath><linearGradient id="f" x1="488.48" y1="-382.38" x2="495.27" y2="-382.38" gradientTransform="translate(18960.24 -24045.29) rotate(90) scale(49.17 -49.17)" gradientUnits="userSpaceOnUse"><stop offset="0" stop-color="#33a02c"/><stop offset="1" stop-color="#001b0b"/></linearGradient><clipPath id="g"><path class="x" d="M5.88,239.79c6.51-3.28,15.31-.47,21.91,2.06h0c6.46,2.49,9.09,4.25,9.09,4.25h0c1.8-3.31,6.68-6.39,17.37-11.51h0c4.3-2.05,6.12-4.13,6.13-6.1h0c.33-10.43-47.29-19.45-47.29-19.45h0c9.17,12.95-7.22,30.75-7.22,30.75"/></clipPath><clipPath id="h"><rect class="x" x="8.48" y="188.54" width="53.9" height="63.95" transform="translate(-183.46 176.13) rotate(-69.41)"/></clipPath><linearGradient id="i" x1="522.12" y1="-326.05" x2="523.61" y2="-326.05" gradientTransform="translate(16152.2 21252.72) rotate(-159.41) scale(43 -43)" gradientUnits="userSpaceOnUse"><stop offset="0" stop-color="#ffcc01"/><stop offset="0" stop-color="#ffcc01"/><stop offset=".13" stop-color="#ffc901"/><stop offset=".26" stop-color="#ffbf00"/><stop offset=".42" stop-color="#ff9901"/><stop offset=".77" stop-color="#ff7e06"/><stop offset="1" stop-color="#ff7e06"/></linearGradient><linearGradient id="j" x1="35.37" y1="242.59" x2="60.39" y2="242.59" gradientUnits="userSpaceOnUse"><stop offset="0" stop-color="#8e3504"/><stop offset=".8" stop-color="#af6305"/><stop offset="1" stop-color="#af6305"/></linearGradient><clipPath id="k"><path class="x" d="M267.09,228.49c.05,1.96,1.87,4.04,6.17,6.09h0c10.71,5.12,15.55,8.2,17.37,11.51h0s2.61-1.76,9.09-4.24h0c6.59-2.5,15.43-5.35,21.88-2.07h0s-16.38-17.8-7.15-30.74h0s-47.66,9.01-47.35,19.45"/></clipPath><clipPath id="l"><polygon class="x" points="267.8 266.96 327.68 244.46 308.72 194.02 248.84 216.51 267.8 266.96"/></clipPath><linearGradient id="m" x1="463.09" y1="-348.06" x2="464.58" y2="-348.06" gradientTransform="translate(-13121.38 21257.6) rotate(-20.59) scale(43.01)" xlink:href="#i"/><clipPath id="n"><path class="x" d="M267.09,228.16l.98,28.85c2.83.06,5.85-.09,9.15-.52h0c8.75-1.23,14.27-3.39,14.92-6.67h0l-.58-2.93c-1.33-5.34-7.55-7.54-18.23-12.63h0c-4.3-2.04-6.12-4.11-6.15-6.1h-.08Z"/></clipPath><clipPath id="o"><rect class="x" x="266.61" y="227.27" width="25.04" height="28.88"/></clipPath><linearGradient id="p" x1="388.83" y1="-294.53" x2="390.93" y2="-294.53" gradientTransform="translate(-4359.76 3746.02) scale(11.9)" xlink:href="#j"/><clipPath id="q"><path class="x" d="M196.92,222.4c-.15-.06-.28-.12-.41-.15h0c.13.03.3.09.41.15M196.51,222.24c-1.21-.57-1.64-.76-1.64-.76h0s.92.42,1.64.76M131.22,222.13c-7.64,3.55-16.89,9.04-30.71,17.52h0l-9.09,5.57c-32.8,20.07-54.08,2.62-55.5,1.7h0l-.98,4.9-4.07,20.14c.92,5.92,12.54,8.18,21.85,9.02h0c13.04.65,31.07.05,51.87-12.67h0l9.11-5.61c6.86-4.16,23.17-14.72,31.13-17.47h0c2.97-1.01,6.32-1.9,10-2.47h0c4.88-.73,10.37-.93,16.34-.11h0c8.04,1.14,16.94,4.08,26.41,9.95h0v-.11c4.78,2.74,10.59,6.22,17.82,10.66h0l9.1,5.6c20.8,12.72,37.22,12.88,50.25,12.22h0c9.35-.84,20.96-3.1,21.89-9.02h0l-4.08-20.14-.98-4.9c-1.42.93-22.69,18.4-55.5-1.7h0l-9.09-5.57c-13.24-8.14-22.23-13.52-29.65-17.08h0s-.18-.06-.43-.18h0c.13.07.25.12.41.19h0c-5.57-2.51-10.94-4.25-16.05-5.46h0c-6.51-1.52-12.63-2.1-18.19-2.1h0c-16.83,0-28.63,5.43-31.87,7.11"/></clipPath><clipPath id="r"><polygon class="x" points="26.49 209.03 304.38 209.05 304.38 286.42 26.49 286.42 26.49 209.03"/></clipPath><linearGradient id="s" x1="482.79" y1="-358.05" x2="485.51" y2="-358.05" gradientTransform="translate(-49318.92 -44138.07) scale(102.21 -123.96)" gradientUnits="userSpaceOnUse"><stop offset="0" stop-color="#fee5a9"/><stop offset="0" stop-color="#fee5a9"/><stop offset=".08" stop-color="#ff7f01"/><stop offset=".31" stop-color="#ffcc01"/><stop offset=".45" stop-color="#ffc901"/><stop offset=".62" stop-color="#f0dd04"/><stop offset=".86" stop-color="#ff7f01"/><stop offset=".88" stop-color="#fe8f1c"/><stop offset=".99" stop-color="#fee5a9"/><stop offset="1" stop-color="#fee5a9"/></linearGradient></defs><g id="c"><path class="an" d="M155.14,5.76c-29.66,23.57-63.04,38-102.06,44.15l-11.09,1.77,1.12,11.17c4.94,50.33,16.62,94.01,34.7,129.8,19,37.47,45.53,67.41,78.9,89l6.63,4.27,6.52-4.44c32.99-22.37,59.16-52.31,77.84-89,18.4-36.14,29.91-79.81,34.31-129.76l.94-11.04-10.94-1.76c-38.08-6.06-71.51-20.54-102.21-44.24l-7.38-5.67-7.29,5.76Z"/><path class="v" d="M156.76,7.81c-30.04,23.83-63.83,38.47-103.26,44.69l-8.67,1.36.84,8.73c4.91,50.03,16.51,93.39,34.48,128.88,18.79,37.06,45.02,66.67,78,87.99l5.16,3.34,5.1-3.47c32.58-22.1,58.46-51.74,76.95-88.04,18.24-35.87,29.69-79.2,34.03-128.81l.77-8.61-8.55-1.37c-38.53-6.14-72.34-20.77-103.4-44.76l-5.76-4.44-5.7,4.51Z"/><path class="ak" d="M161.2,13.4c-31.02,24.63-65.89,39.72-106.62,46.17l-2,.29.2,2.03c9.8,99.86,46.57,171.01,109.23,211.57l1.2.78,1.18-.82c63.06-42.78,99.37-113.97,107.91-211.55l.18-1.98-1.99-.32c-39.72-6.36-74.58-21.45-106.63-46.19l-1.33-1.02-1.31,1.04Z"/><g class="am"><g class="ao"><rect class="af" x="-4.69" y="-24.54" width="322.81" height="333.57" transform="translate(-53.33 116.25) rotate(-35.17)"/></g></g><path class="aa" d="M133.36,85.91c-.71.33-1.14,1.12-1.14,1.92,0,.23.06.5.12.75.2.53.62.93,1.09,1.15.46.2.97.18,1.41-.03,7.27-3.32,18.28-5.24,30.16-5.24s22.71,1.88,30.01,5.17c.42.17.92.21,1.38,0,.47-.21.89-.61,1.07-1.15.38-1.02-.1-2.23-1.04-2.66-7.7-3.45-19.14-5.44-31.43-5.44s-23.9,2.03-31.64,5.54M133.78,88.97c-.31-.1-.53-.37-.68-.68-.21-.63.04-1.37.6-1.64,7.65-3.5,19.07-5.48,31.31-5.48s23.48,1.96,31.11,5.39c.56.26.83.99.61,1.64-.14.32-.35.57-.67.69-.23.12-.48.08-.72-.02-7.38-3.31-18.44-5.22-30.34-5.22s-23.09,1.95-30.52,5.32c-.23.11-.49.11-.7,0"/><path class="aa" d="M130.18,75.01c-.45.24-.78.64-.91,1.14-.04.16-.08.34-.08.5,0,.31.08.63.27.91.48.9,1.66,1.21,2.57.72,7.97-4.33,20-6.8,33-6.8s24.81,2.42,32.78,6.68c.93.49,2.08.18,2.58-.72.26-.45.3-.94.17-1.42-.15-.45-.47-.89-.92-1.11-8.54-4.55-21.12-7.15-34.61-7.15s-26.34,2.64-34.86,7.26M130.15,77.16c-.15-.23-.18-.53-.1-.78.06-.27.25-.51.5-.65,8.39-4.55,20.98-7.16,34.49-7.16s25.83,2.57,34.24,7.03c.26.14.42.36.54.65.07.25.05.56-.11.78-.31.53-.95.73-1.52.42-8.08-4.29-20.15-6.78-33.14-6.78s-25.34,2.51-33.39,6.89c-.52.31-1.22.12-1.5-.4"/><path class="aa" d="M161.94,76.12c0,1.79,1.33,3.24,2.95,3.24s2.95-1.45,2.95-3.24-1.32-3.23-2.95-3.23-2.95,1.47-2.95,3.23M162.77,76.12c0-1.32.94-2.42,2.11-2.42s2.14,1.1,2.14,2.42-.94,2.41-2.14,2.41-2.11-1.08-2.11-2.41"/><path class="aa" d="M160.81,76.12c0,2.46,1.84,4.47,4.07,4.47s4.07-2.01,4.07-4.47-1.82-4.49-4.07-4.49-4.07,2.01-4.07,4.49M161.62,76.12c0-2.03,1.47-3.68,3.27-3.68s3.28,1.65,3.28,3.68-1.48,3.68-3.28,3.68-3.27-1.65-3.27-3.68"/><path class="aa" d="M145.51,74.54c-1.24.25-2.14,1.56-2.14,3.07,0,.2.04.4.04.57.16.99.61,1.84,1.33,2.33.54.37,1.17.52,1.74.39,1.41-.25,2.36-1.87,2.11-3.64-.15-.96-.63-1.8-1.33-2.31-.52-.35-1.15-.54-1.74-.42M145.19,79.85c-.51-.37-.87-1.01-1-1.77-.17-1.34.47-2.52,1.45-2.72.4-.09.8.01,1.14.27.53.36.89,1.01.99,1.77.2,1.31-.46,2.53-1.44,2.74-.38.05-.77-.03-1.13-.29"/><path class="aa" d="M145.33,73.33c-1.76.3-2.93,2.13-2.93,4.23,0,.27,0,.54.02.82.21,1.34.92,2.53,1.84,3.23.74.53,1.59.72,2.4.56,1.95-.35,3.24-2.63,2.86-5.07-.18-1.32-.84-2.51-1.81-3.21-.73-.5-1.58-.73-2.38-.56M144.74,80.96c-.78-.6-1.33-1.55-1.49-2.72-.27-2,.72-3.85,2.22-4.13.6-.12,1.2.04,1.79.42.76.57,1.33,1.56,1.48,2.66.3,2.02-.68,3.89-2.21,4.17-.59.09-1.23-.06-1.79-.41"/><path class="aa" d="M131.55,78.84c-.99.29-1.62,1.46-1.62,2.89,0,.36.05.77.13,1.18.26,1.13.86,2.1,1.62,2.58.47.28.97.36,1.42.23,1.29-.36,1.93-2.14,1.54-4.06-.27-1.14-.88-2.12-1.67-2.59-.45-.27-.95-.35-1.42-.23M132.1,84.78c-.58-.33-1.04-1.13-1.25-2.07-.32-1.43.08-2.86.9-3.07.27-.1.54-.04.8.12.58.35,1.06,1.15,1.28,2.09.33,1.44-.07,2.86-.94,3.08-.23.06-.5,0-.79-.15"/><path class="aa" d="M132.08,77.55c-.75.2-1.27.88-1.52,1.96-.05.23.09.43.31.47.21.08.41-.07.46-.27.19-.76.56-1.28.96-1.4.21-.06.45,0,.7.15.8.49,1.46,1.69,1.76,3.13.55,2.21-.02,4.01-.85,4.22-.4.12-.87-.13-1.35-.7-.12-.18-.39-.21-.58-.08-.16.16-.2.4-.05.58.68.82,1.47,1.16,2.18.98,1.38-.39,2.03-2.65,1.48-5.19-.4-1.67-1.21-3.07-2.18-3.65-.43-.24-.91-.35-1.32-.21"/><path class="aa" d="M197.2,79.07c-.76.47-1.38,1.44-1.63,2.59-.45,1.92.22,3.7,1.48,4.06.49.13.95.05,1.43-.23.76-.48,1.4-1.45,1.64-2.61.44-1.9-.22-3.69-1.48-4.04-.47-.12-.99-.04-1.44.23M197.29,84.93c-.85-.22-1.29-1.64-.93-3.08.2-.94.68-1.74,1.27-2.09.28-.16.54-.22.78-.12.65.15,1.04,1.05,1.04,2.09,0,.31-.04.66-.11.97-.2.95-.71,1.75-1.28,2.08-.28.15-.53.21-.78.15"/><path class="aa" d="M196.77,77.76c-.97.58-1.79,1.98-2.15,3.65-.58,2.54.05,4.8,1.44,5.19.73.18,1.49-.16,2.21-.98.14-.18.12-.42-.09-.58-.15-.13-.39-.1-.55.08-.47.57-.99.82-1.34.7-.81-.21-1.41-2.01-.89-4.22.28-1.44,1.02-2.64,1.77-3.13.28-.15.49-.21.75-.15.4.12.75.65.91,1.4.07.2.3.35.53.27.19-.04.31-.24.27-.47-.26-1.08-.8-1.76-1.52-1.96-.45-.14-.91-.03-1.34.21"/><path class="aa" d="M182.49,74.96c-.68.51-1.18,1.35-1.32,2.31-.25,1.77.7,3.38,2.1,3.64.62.12,1.21-.02,1.73-.39.7-.49,1.18-1.34,1.34-2.33.22-1.73-.68-3.36-2.08-3.64-.62-.11-1.23.07-1.78.42M183.42,80.14c-.98-.2-1.66-1.42-1.45-2.74.1-.76.47-1.4.98-1.77.38-.26.76-.36,1.17-.27.83.15,1.44,1.13,1.44,2.24,0,.15,0,.3-.03.47-.11.76-.47,1.39-1,1.77-.36.26-.75.34-1.11.29"/><path class="aa" d="M182.03,73.88c-.95.71-1.63,1.89-1.81,3.21-.38,2.44.93,4.72,2.86,5.07.81.16,1.69-.03,2.38-.56.97-.7,1.67-1.89,1.85-3.23.35-2.41-.94-4.69-2.89-5.05-.81-.17-1.65.05-2.39.56M183.21,81.38c-1.52-.28-2.52-2.12-2.22-4.17.18-1.12.76-2.09,1.52-2.66.56-.41,1.17-.55,1.75-.42,1.53.28,2.56,2.13,2.22,4.13-.14,1.16-.7,2.12-1.49,2.72-.56.35-1.17.5-1.79.41"/><path class="aa" d="M161.58,62.58c-.73,0-1.34.66-1.34,1.45s.61,1.41,1.34,1.41h3.31c.23,0,.39-.17.39-.39s-.16-.38-.39-.38h-3.31c-.28,0-.53-.3-.53-.64,0-.36.24-.64.53-.64h3.31c.23,0,.39-.2.39-.41s-.16-.4-.39-.4h-3.31Z"/><path class="aa" d="M155.62,51.95c-.97.92-1.52,2.39-1.52,4.3-.08,4.01,4.35,6.07,4.52,6.15l.76.37-.19-.83c-.22-.72-.53-2.89.43-3.21.15-.02.31-.03.51.16.81.81,1.21,3.24,1.02,3.79-.04.21.08.42.28.49.23.09.44-.06.5-.26.25-.83-.23-3.56-1.23-4.55-.48-.5-1-.49-1.33-.36-.97.28-1.23,1.35-1.23,2.33,0,.33.04.66.09.93-1.17-.72-3.32-2.4-3.32-4.92v-.06c.03-1.71.44-2.97,1.24-3.73.64-.65,1.5-.95,2.52-.9,1.75.03,2.72,1.49,2.72,1.49.13.21.38.29.55.19.17-.13.24-.38.13-.59-.06-.08-1.19-1.86-3.35-1.91-1.29-.05-2.37.34-3.12,1.11"/><path class="aa" d="M164.89,62.58c-.2,0-.4.19-.4.4s.2.41.4.41h3.3c.29,0,.55.27.55.64,0,.33-.25.64-.55.64h-3.3c-.2,0-.4.17-.4.38s.2.39.4.39h3.3c.75,0,1.34-.63,1.34-1.41s-.59-1.45-1.34-1.45h-3.3Z"/><path class="aa" d="M171.04,50.84c-2.16.05-3.31,1.83-3.37,1.91-.1.2-.04.45.13.59.21.1.46.02.57-.13,0,0,.94-1.52,2.69-1.55,1.07-.05,1.94.25,2.56.88.81.78,1.23,2.04,1.24,3.75v.06c0,2.51-2.14,4.2-3.32,4.92.06-.27.1-.6.1-.93,0-.98-.28-2.05-1.24-2.33-.35-.12-.81-.14-1.32.34-1.03,1.01-1.45,3.75-1.26,4.56.08.21.31.36.51.27.22-.06.33-.27.27-.49-.16-.55.24-2.98,1.05-3.79.23-.19.38-.18.5-.16.96.32.66,2.5.45,3.21l-.18.83.74-.37c.21-.08,4.57-2.14,4.49-6.15,0-1.91-.51-3.38-1.47-4.3-.78-.76-1.86-1.16-3.13-1.11"/><path class="aa" d="M164.56,42.18s-1.53,2.13-2.87,3.75c-1.45,1.75-1.87,5.13.16,7.95,1.79,2.45,1.49,9.29,1.41,11.87l-.03.19c-.06,1.23.19,2.04.68,2.44.44.27.8.21.97.2.16.01.53.07.93-.2.47-.37.72-1.06.72-2.13v-.51c-.06-.81-.07-2.02-.07-3.38,0-3.01.22-6.78,1.45-8.47,1.02-1.33,1.4-2.84,1.4-4.2,0-1.5-.47-2.85-1.23-3.75-1.34-1.62-2.86-3.73-2.86-3.75l-.34-.45-.33.45ZM164.43,67.68c-.11-.07-.37-.39-.37-1.41v-.48c.05-.89.09-2.12.09-3.49,0-3.15-.26-7.02-1.65-8.88-.84-1.19-1.24-2.52-1.24-3.75,0-1.28.41-2.45,1.05-3.24,1-1.18,2.05-2.62,2.58-3.33.53.72,1.58,2.15,2.57,3.33.65.79,1.04,1.96,1.04,3.24s-.37,2.56-1.25,3.75c-1.33,1.86-1.63,5.73-1.63,8.88,0,1.37.06,2.6.09,3.49v.48c0,1.02-.26,1.34-.39,1.41-.13.12-.29.09-.33.07l-.1-.04-.15.04s-.2.05-.33-.07"/><path class="aa" d="M145.28,64.31l-3.27.68c-.71.13-1.2.86-1.08,1.67.08.38.28.74.61.95.28.2.65.28.97.2l3.25-.66c.21-.04.36-.26.31-.48-.03-.21-.25-.34-.45-.29l-3.26.65c-.15.02-.27-.03-.36-.08-.13-.09-.23-.23-.25-.43-.04-.34.15-.69.44-.76l3.22-.64c.24-.05.37-.26.35-.47-.06-.23-.26-.36-.48-.32"/><path class="aa" d="M137.31,53.98c-2.85.5-4.17,2.78-3.66,6.23.6,3.97,5.26,5.14,5.46,5.16l.78.2-.33-.75c-.3-.72-.96-2.76-.08-3.23.15-.08.3-.11.55.05.94.61,1.68,2.91,1.63,3.48-.01.23.11.41.34.44.22.03.43-.12.43-.36.12-.84-.77-3.44-1.93-4.23-.47-.31-.94-.34-1.38-.11-.66.36-.87,1.08-.87,1.8,0,.6.14,1.19.29,1.69-1.26-.49-3.7-1.75-4.1-4.26-.06-.45-.08-.87-.08-1.26,0-2.28,1.06-3.69,3.11-4.04,1.68-.32,2.84.9,2.86.96.17.15.42.15.58.02.16-.15.19-.39.05-.57-.1-.06-1.49-1.6-3.65-1.22"/><path class="aa" d="M148.52,63.66l-3.24.65c-.24.04-.35.26-.33.47.03.22.25.37.46.32l3.29-.67c.15-.03.26.03.32.09.13.09.21.24.28.42.04.32-.15.67-.45.75l-3.23.67c-.23.04-.4.23-.32.47.04.2.23.35.48.3l3.22-.65c.73-.16,1.19-.9,1.1-1.68-.08-.4-.28-.76-.61-.97-.27-.19-.64-.27-.97-.19"/><path class="aa" d="M149.43,51.52c-2.14.48-2.96,2.45-2.99,2.54-.07.2,0,.42.22.54.21.07.44-.04.54-.23,0,0,.69-1.69,2.4-2.05,1.06-.22,1.93-.11,2.65.34.93.61,1.53,1.76,1.83,3.44.02.22.02.49.02.75,0,2.17-1.56,3.94-2.47,4.82-.05-1.11-.33-2.84-1.71-2.99-.32-.03-.83.05-1.23.62-.83,1.17-.83,3.98-.49,4.74.11.16.38.27.58.16.16-.09.26-.32.16-.53-.24-.5-.26-2.98.4-3.9.19-.28.36-.29.48-.29.99.11,1.03,2.28.97,3.04l-.1.89.73-.53c.16-.11,4.12-3.02,3.43-6.94-.3-1.88-1.08-3.2-2.16-3.94-.91-.61-2.04-.76-3.27-.48"/><path class="aa" d="M141.65,44.31l-2.18,4.23c-1.18,2.02-1.05,5.43,1.39,7.79,2.19,2.07,3,8.83,3.32,11.38v.19c.15,1.22.49,2,1.11,2.26.42.19.74.08.95.04.19,0,.56-.07.89-.4.45-.45.54-1.3.3-2.52l-.05-.14c-.52-2.54-1.88-9.21-.52-11.99,1.56-3.18.57-6.4-1.11-7.88-1.57-1.29-3.43-3.08-3.45-3.11l-.37-.35-.29.5ZM145.64,69.43c-.15-.06-.49-.37-.64-1.63l-.03-.19c-.37-2.87-1.15-9.58-3.55-11.85-1.28-1.27-1.87-2.92-1.87-4.43,0-.89.2-1.74.62-2.39.74-1.36,1.57-3.01,1.99-3.81.66.65,1.89,1.79,3.03,2.77.97.81,1.67,2.3,1.67,3.96,0,.96-.25,1.97-.72,2.94-.49,1-.67,2.39-.67,3.91,0,3.08.75,6.67,1.14,8.57l.05.18c.07.37.08.71.08.98,0,.5-.1.72-.19.82-.11.13-.3.12-.3.12h-.15s-.13.05-.13.05c0,0-.15.1-.33,0"/><path class="aa" d="M127.39,57.17c-1.86,1.24-2.03,3.39-2.03,3.49-.02.22.15.42.4.42.2.01.41-.14.41-.36,0,0,.15-1.88,1.66-2.88.94-.66,1.84-.84,2.68-.66,1.01.26,1.92,1.08,2.64,2.51.4.7.55,1.42.55,2.17,0,1.6-.71,3.13-1.15,4.03-.26-.71-.68-1.61-1.38-2.01-.36-.22-.76-.26-1.16-.16-.32.1-.76.35-.96,1.09-.36,1.45.48,3.96,1.01,4.55.17.17.44.17.58,0,.16-.12.16-.39,0-.6-.36-.34-1.11-2.62-.8-3.76.08-.39.26-.48.39-.51.19-.06.38-.02.51.08.68.39,1.14,1.86,1.29,2.39l.19.91.51-.78c.13-.18,2.99-4.37,1.14-7.82-.89-1.6-1.95-2.59-3.16-2.89-1.05-.26-2.22,0-3.32.76"/><path class="aa" d="M117.92,53.43c.04.12,4.47,11.69,9.68,17.64,0,0,.53-.43.58-.47.51.95,1.02,1.8,1.36,2.42l.1.16c.42.68.51,1.15.51,1.42,0,.12-.04.23-.06.29,0,0-.03.01-.04.05-.21-.5-.58-1.36-.89-2.4l-.77.21c.52,1.67,1.13,2.95,1.14,2.98l.13.3.31-.08c.08,0,.63-.13.86-.73.24-.61.09-1.43-.51-2.45l-.09-.17c-1.37-2.35-4.57-7.91-4.12-11.06.49-3.57-1.43-6.25-3.5-6.99-1.86-.65-4.15-1.62-4.15-1.62l-.87-.41.32.89ZM119.04,54.05c.83.35,2.13.88,3.3,1.29,1.62.54,3.02,2.55,3.02,5.11,0,.32,0,.65-.06,1.03-.02.19-.04.44-.04.69,0,2.42,1.48,5.67,2.81,8.18-4.23-4.91-7.93-13.54-9.03-16.3"/><path class="aa" d="M130.2,68.92l-2.04,1.33c-.61.38-.84,1.25-.5,1.92.19.37.5.61.85.71.34.1.72.04,1.02-.15l2.03-1.31c.64-.41.86-1.27.51-1.94-.19-.35-.51-.61-.86-.72-.33-.08-.69-.04-1.01.16M128.72,72.11c-.16-.02-.25-.12-.34-.28-.13-.31-.05-.73.21-.87l2.06-1.34c.16-.09.28-.08.39-.06.14.02.25.14.31.29.05.1.08.22.08.32,0,.22-.11.46-.26.56l-2.05,1.32c-.18.1-.28.08-.4.05"/><path class="aa" d="M154.6,64.11c-1.2.16-1.85.85-2.92,2.05-.87.98-2.83-.25-2.86-.25-.2-.12-.45-.07-.56.15-.11.16-.06.44.11.52.13.07,2.57,1.59,3.83.15,1.08-1.16,1.57-1.73,2.45-1.81.95-.08,1.56.44,2.18.95.45.39.88.73,1.4.84,1.8.37,3.13-.18,3.59-1.52.06-.2-.02-.44-.25-.51-.2-.09-.44.02-.51.24-.42,1.18-1.7,1.19-2.7,1.01-.29-.09-.62-.36-1.02-.67-.67-.57-1.52-1.23-2.75-1.16"/><path class="aa" d="M163.27,65.6c-.59,2.12-4,2.12-4,2.12-1.23-.06-2.42-.48-3.14-1.07-1.13-.95-2.42.05-3.07.58l-.11.07c-.56.44-2.1,1.19-2.26,1.26-.15.03-2.55.48-3.11-.82-.11-.19-.34-.29-.56-.19-.18.06-.3.32-.18.51.82,1.93,3.9,1.3,4.01,1.28h.09l.04-.04c.06-.04,1.78-.84,2.48-1.37l.08-.05c.77-.64,1.49-1.12,2.07-.61.88.7,2.19,1.16,3.61,1.29.15,0,4.08,0,4.81-2.76.06-.21-.08-.43-.29-.47-.23-.07-.44.03-.49.25"/><path class="aa" d="M141.97,67.37c-.14,1.01-.87,1.55-2.18,1.55-.28.02-.64-.2-1.01-.41-.72-.39-1.61-.89-2.74-.48-1.09.37-1.51,1.19-2.23,2.6-.58,1.12-2.53.39-2.53.39-.23-.07-.48.01-.53.22-.11.2,0,.43.23.51.09.04,2.61,1,3.5-.7.79-1.45,1.1-2.01,1.81-2.3.82-.25,1.43.09,2.09.45.5.28.96.53,1.41.51,1.75-.04,2.83-.86,2.96-2.27.06-.22-.13-.42-.33-.44-.22-.05-.41.13-.45.35"/><path class="aa" d="M144.23,68.17c-.08,2.13-3.22,2.33-3.26,2.33-1.13.17-2.24.05-3-.36-.65-.35-1.66-.41-2.82,1.37-.26.42-1.04,1.19-1.36,1.47-.19.13-2.52,1.18-3.26.13-.12-.19-.37-.24-.55-.13-.21.13-.24.37-.11.57,1.17,1.71,4.22.21,4.35.16l.04-.06.07-.02s1.13-1.08,1.52-1.7c.97-1.52,1.52-1.2,1.73-1.11,1.33.76,2.88.59,3.5.47,1.29-.05,3.86-.79,3.95-3.07.03-.23-.16-.41-.35-.42-.25,0-.43.18-.43.37"/><path class="aa" d="M184.35,64.45c-.04.23.09.44.3.47l3.25.65c.3.08.51.41.44.77-.02.16-.14.35-.24.42-.1.06-.2.09-.36.08l-3.25-.65c-.21-.08-.42.08-.47.3-.04.2.09.43.33.47l3.25.66c.3.06.69,0,.95-.18.32-.24.54-.58.62-.94.1-.8-.36-1.54-1.11-1.69l-3.24-.71c-.22-.02-.42.14-.47.34"/><path class="aa" d="M189.13,55.03c-.16.17-.1.41.06.57.16.15.39.15.55-.02.04-.05,1.16-1.3,2.89-.97,2.02.35,3.1,1.78,3.1,4.05,0,.37-.01.81-.11,1.24-.37,2.54-2.8,3.81-4.09,4.26.17-.45.3-1.08.3-1.68,0-.72-.21-1.4-.88-1.79-.44-.22-.92-.2-1.35.09-1.18.81-2.07,3.39-1.97,4.25.04.23.25.4.46.37.22-.04.37-.23.34-.45-.05-.58.7-2.88,1.61-3.47.23-.19.42-.14.53-.07.92.5.25,2.56-.06,3.26l-.32.71.79-.18c.2-.04,4.85-1.21,5.44-5.16.53-3.44-.81-5.74-3.65-6.22-2.15-.4-3.58,1.14-3.64,1.21"/><path class="aa" d="M180.59,63.7c-.3.19-.52.55-.59.97-.13.77.37,1.49,1.07,1.66l3.27.64c.2.05.42-.11.46-.3.06-.23-.1-.44-.32-.47l-3.26-.68c-.29-.07-.45-.39-.41-.74.03-.19.11-.34.24-.43.1-.05.19-.1.37-.08l3.22.66c.25.06.43-.1.49-.3.06-.24-.1-.44-.32-.51l-3.25-.61c-.35-.09-.68,0-.97.2"/><path class="aa" d="M177.4,51.84c-1.12.72-1.86,2.08-2.18,3.96-.7,3.91,3.25,6.79,3.43,6.92l.74.5-.11-.87c-.03-.76-.02-2.92.95-3.05.13,0,.3,0,.51.29.65.94.63,3.39.39,3.92-.12.2,0,.43.2.54.17.06.42.02.53-.19.35-.78.35-3.53-.49-4.73-.41-.57-.88-.65-1.23-.59-1.41.13-1.66,1.86-1.71,2.94-.88-.83-2.51-2.64-2.51-4.8,0-.26.04-.51.06-.78.31-1.67.91-2.82,1.82-3.39.73-.48,1.61-.62,2.64-.36,1.7.39,2.43,2.03,2.44,2.06.08.19.3.28.52.21.22-.07.33-.3.22-.5-.04-.09-.85-2.08-3-2.57-1.26-.29-2.36-.1-3.25.48"/><path class="aa" d="M187.77,44.01s-1.83,1.79-3.4,3.1c-1.72,1.43-2.72,4.69-1.16,7.85,1.37,2.81-.01,9.46-.51,11.98l-.05.18c-.27,1.21-.16,2.06.31,2.52.31.35.69.38.88.38.21.08.53.19.97-.02.59-.3.95-1.01,1.11-2.27l.02-.16c.28-2.55,1.1-9.32,3.26-11.38,2.49-2.36,2.59-5.8,1.44-7.83-1.04-1.83-2.2-4.21-2.23-4.23l-.23-.51-.41.4ZM187.92,44.95c.4.81,1.27,2.47,2.01,3.8.38.67.59,1.53.59,2.43,0,1.48-.53,3.16-1.88,4.41-2.36,2.25-3.18,9-3.54,11.88l-.02.15c-.15,1.26-.48,1.58-.63,1.64-.19.09-.32,0-.32,0l-.13-.06h-.16s-.17.02-.32-.11c-.08-.08-.19-.32-.19-.83,0-.26,0-.58.11-.98v-.16c.44-1.91,1.19-5.49,1.19-8.57,0-1.53-.21-2.93-.7-3.92-.49-.98-.66-1.99-.66-2.94,0-1.67.66-3.14,1.62-3.94,1.14-1,2.42-2.19,3.02-2.8"/><path class="aa" d="M199.35,56.25c-1.23.29-2.24,1.26-3.14,2.9-1.84,3.42,1.01,7.62,1.14,7.79l.51.78.21-.89c.1-.55.57-2,1.28-2.42.16-.09.31-.13.52-.06.11.03.27.11.38.5.31,1.16-.44,3.44-.8,3.8-.18.14-.18.41,0,.57.14.16.42.16.57-.01.55-.57,1.42-3.09,1.02-4.53-.22-.76-.63-1.01-.96-1.1-.4-.12-.8-.06-1.15.14-.7.39-1.13,1.31-1.39,2.02-.42-.89-1.13-2.43-1.13-4.03,0-.75.17-1.48.52-2.17.72-1.4,1.67-2.26,2.63-2.48.86-.22,1.78,0,2.7.62,1.52,1.02,1.68,2.87,1.68,2.9,0,.21.19.38.39.35.25,0,.4-.19.4-.42-.02-.09-.19-2.25-2.02-3.49-1.1-.76-2.26-1.03-3.35-.76"/><path class="aa" d="M211.62,52.77s-2.29.97-4.14,1.62c-2.08.76-4.02,3.42-3.49,7.01.44,3.14-2.76,8.69-4.12,11.07l-.12.12c-.58,1.05-.75,1.88-.47,2.5.26.57.76.71.82.71.18.05.66.1,1.6-3.2l-.76-.21c-.32,1.04-.69,1.91-.9,2.42,0,0-.02-.05-.06-.06,0-.06-.02-.17-.02-.3,0-.27.12-.72.49-1.4l.11-.18c.37-.63.82-1.47,1.35-2.41.05.06.56.49.56.49,5.22-5.96,9.68-17.52,9.69-17.64l.36-.89-.9.38ZM204.83,62c0-.25-.01-.49-.05-.71-.06-.34-.08-.67-.08-1.01,0-2.58,1.43-4.56,3.01-5.13,1.19-.38,2.52-.94,3.33-1.27-1.1,2.77-4.78,11.37-9.02,16.33,1.33-2.52,2.8-5.79,2.8-8.21"/><path class="aa" d="M198.85,68.6c-.37.1-.67.34-.85.71-.09.22-.18.47-.18.69,0,.51.27.97.66,1.24l2.09,1.33c.3.19.66.24,1.02.15.34-.09.66-.35.83-.69.37-.7.14-1.54-.47-1.96l-2.06-1.31c-.33-.19-.68-.25-1.04-.16M200.99,71.88l-2.07-1.32c-.24-.17-.36-.57-.18-.9.06-.14.18-.23.32-.28.1-.03.21-.03.38.05l2.06,1.32c.27.2.34.59.18.9-.04.15-.18.25-.31.31-.09,0-.26.02-.38-.08"/><path class="aa" d="M172.74,65.1c-.37.28-.7.6-1.04.65-.97.22-2.24.2-2.7-1-.06-.21-.28-.32-.49-.25-.22.1-.32.32-.24.51.48,1.38,1.78,1.9,3.62,1.53.49-.1.92-.45,1.36-.8.62-.54,1.23-1.05,2.19-.99.89.1,1.4.64,2.36,1.76,1.36,1.48,3.79,0,3.91-.09.18-.11.23-.35.13-.57-.13-.18-.37-.24-.56-.11-.04.01-1.99,1.2-2.82.27-1.11-1.22-1.75-1.94-2.95-2.05-1.27-.1-2.11.58-2.77,1.14"/><path class="aa" d="M166.35,65.16c-.23.05-.38.28-.28.49.74,2.72,4.64,2.73,4.79,2.73,1.38-.09,2.76-.58,3.61-1.29.59-.49,1.31-.01,2.07.6l.11.09c.67.51,2.38,1.33,2.45,1.35l.04.05h.06c.11.02,3.2.66,4.09-1.28.07-.21,0-.43-.23-.53-.19-.09-.45,0-.52.21-.57,1.29-2.96.84-3.12.82-.14-.07-1.7-.82-2.26-1.28l-.08-.04c-.68-.55-1.95-1.56-3.09-.58-.73.58-1.9.98-3.13,1.06,0,0-3.43,0-3.98-2.12-.09-.2-.3-.34-.49-.28"/><path class="aa" d="M187.68,66.84c-.25.01-.39.23-.37.43.17,1.43,1.28,2.25,2.94,2.28.51.01.97-.25,1.46-.5.66-.37,1.29-.73,2.07-.45.75.27,1.08.83,1.8,2.21.92,1.77,3.44.81,3.55.79.23-.09.3-.31.23-.54-.07-.21-.29-.31-.53-.24,0,0-1.98.76-2.51-.29-.74-1.47-1.19-2.31-2.27-2.7-1.1-.37-2,.1-2.72.51-.38.22-.75.41-1.03.41-.92-.02-1.99-.32-2.18-1.56-.03-.23-.22-.37-.42-.35"/><path class="aa" d="M185.45,67.62c-.25,0-.42.21-.42.4.14,2.3,2.67,3.04,4.02,3.12,1.22.19,2.55.03,3.47-.48.2-.11.76-.42,1.69,1.09.4.62,1.5,1.65,1.56,1.69l.04.03.04.03c.12.08,3.19,1.59,4.35-.13.09-.19.09-.44-.11-.57-.19-.11-.47-.08-.56.11-.74,1.07-3.05,0-3.26-.11-.33-.3-1.09-1.06-1.37-1.47-1.1-1.79-2.12-1.73-2.78-1.38-.8.43-1.9.57-2.95.37-.11,0-3.22-.18-3.34-2.33,0-.22-.18-.38-.4-.37"/><path class="v" d="M102.9,171.2h-1.18v2.03l.02,1.18c.02,1.53.49,1.71,1.89,1.71v.67c-1.15-.01-2.3-.03-3.51-.03-1.03,0-2.05.02-3.07.03v-.67c1.3-.04,1.76-.26,1.8-1.71v-7.42c-.04-1.45-.5-1.69-1.8-1.72v-.68c.97,0,1.96.05,2.98.05.96,0,1.97-.05,2.95-.05,2.16,0,5.13.51,5.13,3.16,0,2.86-2.93,3.44-5.22,3.44M102.63,165.44c-.91,0-.91.06-.91.63v4.25c1.97,0,3.25-.27,3.25-2.45,0-1.5-.75-2.43-2.34-2.43"/><path class="v" d="M118.96,176.76c-.96,0-1.97.02-2.94.03v-.67c.51-.12,1.53.05,1.53-.76s-.44-1.64-.75-2.33h-4.14c-.27.64-.65,1.31-.7,1.99,0,1.04.77.93,1.59,1.1v.67c-.89-.01-1.77-.03-2.63-.03-.63,0-1.28.02-1.92.03v-.67c1.49-.15,2.01-1.55,2.47-2.71l3.83-9.04h.92l3.97,9.73c.53,1.33.67,1.82,2.19,2.02v.67c-1.16-.01-2.25-.03-3.43-.03M114.78,167.84l-1.76,4.31h3.44l-1.68-4.31Z"/><path class="v" d="M135.61,165.87c-.3.42-.3.95-.3,1.44v9.73h-.95l-8.57-9.56v5.96c0,1.52,0,2.39,1.76,2.68v.67c-.81-.03-1.63-.03-2.48-.03-.67,0-1.29,0-1.89.03v-.67c1.36-.2,1.66-.82,1.66-2.1v-7.54c-.48-.71-.97-1.21-1.89-1.21v-.69c.64,0,1.25.06,1.93.06s1.34-.05,1.97-.06l7.5,8.39v-5.15c0-1.47-.15-2.42-1.8-2.55v-.69c.66,0,1.26.06,1.91.06.83,0,1.65-.05,2.46-.06v.69c-.45.09-1.04.13-1.33.59"/><path class="v" d="M148.66,166.53c-1.02,1.79-2.06,3.57-3.19,5.28,0,.85,0,1.71,0,2.6.04,1.47.47,1.71,1.83,1.71v.67c-1.06-.01-2.08-.03-3.04-.03-1.2,0-2.35,0-3.54.03v-.67c1.36,0,1.82-.23,1.82-1.71.02-.75.02-1.49.02-2.25l-3.01-5.3c-.61-.99-.67-1.34-1.83-1.59v-.68c.97.02,1.94.05,2.95.05s2.08-.03,3.16-.05v.68c-.52.09-1.44,0-1.44.73,0,.64.67,1.53.97,2.05l1.61,2.86c.65-1.02,2.53-3.85,2.53-4.85,0-.7-.86-.79-1.43-.79v-.68c.68.02,1.29.05,1.95.05.75,0,1.47-.03,2.23-.05v.68c-.85.13-1.2.52-1.59,1.25"/><path class="v" d="M160.29,176.76c-.95,0-1.93.02-2.94.03v-.67c.52-.12,1.56.05,1.56-.76s-.45-1.64-.75-2.33h-4.14c-.3.64-.66,1.31-.7,1.99,0,1.04.77.93,1.57,1.1v.67c-.87-.01-1.75-.03-2.63-.03-.62,0-1.3.02-1.9.03v-.67c1.51-.15,2-1.55,2.46-2.71l3.84-9.04h.92l3.97,9.73c.55,1.33.66,1.82,2.2,2.02v.67c-1.16-.01-2.25-.03-3.44-.03M156.13,167.84l-1.77,4.31h3.45l-1.68-4.31Z"/><path class="v" d="M170.27,171.2h-1.17v3.21c.07,1.53.51,1.71,1.92,1.71v.67c-1.15-.01-2.33-.03-3.55-.03-1.01,0-2.02.02-3.03.03v-.67c1.32-.04,1.75-.26,1.8-1.71v-7.42c-.05-1.45-.48-1.69-1.8-1.72v-.68c.97,0,1.96.05,2.98.05.97,0,1.97-.05,2.98-.05,2.11,0,5.1.51,5.1,3.16,0,2.86-2.92,3.44-5.24,3.44M170.04,165.44c-.94,0-.94.06-.94.63v4.25c1.97,0,3.27-.27,3.27-2.45,0-1.5-.78-2.43-2.33-2.43"/><path class="v" d="M180,176.76c-1.01,0-1.99.02-2.98.03v-.67c1.32-.04,1.74-.28,1.81-1.71v-7.42c-.07-1.45-.49-1.69-1.81-1.72v-.68c.99.02,1.97.05,2.98.05,1.16,0,2.3-.03,3.51-.05v.68c-1.37.03-1.76.26-1.81,1.72l-.04,1.2v5.04l.04,1.18c.05,1.42.44,1.67,1.81,1.71v.67c-1.21-.01-2.34-.03-3.51-.03"/><path class="v" d="M200.67,166.68c-.3,1.07-.69,2.09-1.02,3.17-.7,2.4-1.55,4.81-2.46,7.17h-.9l-2.77-8-2.76,8h-.97l-3.47-9.83c-.41-1.27-.47-1.68-1.83-1.92v-.68c.97.02,2,.05,2.99.05,1.07,0,2.11-.03,3.19-.05v.68c-.65,0-1.58.03-1.58.83,0,.65.2,1.3.44,1.87l1.66,5.12,2.74-8.49h.85l2.98,8.38c.47-1.43,1.83-5.27,1.83-6.56,0-.89-.6-1.02-1.37-1.15h-.16v-.68c.62.02,1.28.05,1.89.05.78,0,1.52-.05,2.22-.05v.68c-.92.13-1.22.48-1.5,1.4"/><path class="v" d="M212.56,176.76c-1,0-2.01.02-2.96.03v-.67c.48-.12,1.52.05,1.52-.76s-.47-1.64-.74-2.33h-4.17c-.28.64-.62,1.31-.65,1.99,0,1.04.75.93,1.56,1.1v.67c-.91-.01-1.76-.03-2.61-.03-.68,0-1.29.02-1.93.03v-.67c1.49-.15,2-1.55,2.48-2.71l3.79-9.04h.95l3.98,9.73c.53,1.33.69,1.82,2.19,2.02v.67c-1.19-.01-2.26-.03-3.39-.03M208.34,167.84l-1.75,4.31h3.45l-1.7-4.31Z"/><path class="v" d="M228.18,168.05c-.27-1.9-1.48-2.51-3.31-2.51-.21,0-.44.05-.48.09-.15.08-.15.37-.15.61v8.17c0,1.53.55,1.71,1.91,1.71v.67c-1.13-.01-2.27-.03-3.34-.03-1.15,0-2.23,0-3.38.03v-.67c1.38,0,1.87-.18,1.87-1.71l.06-1.18v-7.31c0-.24-.12-.31-.35-.31l-.54-.02c-1.96,0-2.67.52-3.13,2.46h-.81c.1-1.16.13-2.31.13-3.45h1.96c.74,0,1.44.02,2.16.02h3.99c.67,0,1.36-.02,2.08-.02h1.91c0,1.14.06,2.29.16,3.45h-.76Z"/><path class="v" d="M107.28,192.64c-.4,0-.79.02-1.18.04v-.31c.51,0,.73-.12.74-.8v-3.38c-.01-.66-.23-.75-.74-.77v-.31c.39,0,.78.02,1.18.02.47,0,.97-.02,1.4-.02v.31c-.51.01-.7.11-.7.77v.57s0,2.28,0,2.28v.54c0,.68.2.8.71.8v.31c-.43-.02-.93-.04-1.4-.04"/><path class="v" d="M113.98,187.69c-.12.18-.12.44-.12.66v4.46h-.37l-3.42-4.37v2.71c0,.7,0,1.11.69,1.23v.31c-.3-.04-.65-.04-.99-.04-.26,0-.5,0-.77.04v-.31c.55-.08.69-.36.69-.95v-3.45c-.22-.32-.39-.56-.77-.56v-.32c.27.02.5.04.77.04.25,0,.54-.02.8-.04l3,3.85v-2.36c0-.68-.06-1.1-.71-1.15v-.33c.25.02.51.04.77.04.31,0,.66-.02,1-.04v.33c-.21.04-.44.05-.57.26"/><path class="v" d="M116.63,192.78c-.47,0-.92-.2-1.28-.56l-.08.45h-.35v-1.75h.35c.22.73.54,1.46,1.35,1.46.48,0,.89-.34.89-.9,0-1.3-2.53-.97-2.53-2.89,0-1.02.71-1.6,1.61-1.6.4,0,.8.11,1.12.42l.12-.33h.29c0,.51.05,1,.05,1.51h-.32c-.19-.63-.57-1.22-1.2-1.22-.37,0-.74.25-.74.7,0,.55.39.75.74.93.81.4,1.8.84,1.8,2s-.83,1.77-1.83,1.77"/><path class="v" d="M123.54,188.71c-.1-.9-.59-1.17-1.32-1.17-.09,0-.18.02-.2.04-.04.04-.04.17-.04.29v3.71c0,.72.19.8.76.8v.31c-.47-.02-.92-.04-1.37-.04-.42,0-.86,0-1.31.04v-.31c.53,0,.74-.08.74-.8v-.54s.01-3.06.01-3.06v-.26c0-.11-.03-.14-.13-.14l-.21-.02c-.79,0-1.06.23-1.25,1.15h-.34c.05-.55.07-1.08.07-1.6h4.83c0,.51.02,1.05.06,1.6h-.3Z"/><path class="v" d="M125.29,192.64c-.41,0-.8.02-1.21.04v-.31c.57,0,.72-.12.73-.8v-3.38c-.02-.66-.17-.75-.73-.77v-.31c.42,0,.8.02,1.21.02.45,0,.91-.02,1.38-.02v.31c-.53.01-.67.11-.71.77v3.38c.04.68.18.8.71.8v.31c-.47-.02-.93-.04-1.38-.04"/><path class="v" d="M131.57,188.71c-.12-.9-.57-1.17-1.33-1.17-.08,0-.15.02-.18.04-.06.04-.06.17-.06.29v3.71c0,.72.21.8.75.8v.31c-.43-.02-.89-.04-1.28-.04-.49,0-.93,0-1.38.04v-.31c.56,0,.76-.08.76-.8v-3.86c0-.11-.04-.14-.13-.14l-.22-.02c-.78,0-1.06.23-1.27,1.15h-.31c.07-.55.07-1.08.07-1.6h4.84c0,.51.02,1.05.06,1.6h-.32Z"/><path class="v" d="M137.16,187.73c-.07.22-.11.43-.11.68,0,.14.04.26.04.39v1.59c0,1.54-.7,2.38-2.11,2.38-.54,0-1.08-.09-1.51-.4-.58-.44-.69-1.03-.69-1.76v-2.42c0-.66-.18-.77-.7-.77v-.33c.42.02.77.04,1.17.04.5,0,.95-.02,1.42-.04v.33c-.57,0-.72.11-.72.77v2.42c0,.96.26,1.63,1.23,1.63,1.12,0,1.54-.67,1.54-1.85v-1.67c0-.32-.02-.85-.2-1.1-.18-.15-.38-.19-.55-.2v-.33c.27.02.51.04.77.04.34,0,.67-.02.97-.04v.33c-.21.04-.45.05-.56.3"/><path class="v" d="M142.62,188.71c-.12-.9-.59-1.17-1.32-1.17-.13,0-.2.02-.2.04-.07.04-.07.17-.07.29v3.71c0,.72.22.8.77.8v.31c-.45-.02-.9-.04-1.34-.04s-.89,0-1.35.04v-.31c.55,0,.76-.08.76-.8v-3.86c0-.11-.03-.14-.13-.14l-.19-.02c-.82,0-1.1.23-1.28,1.15h-.31c.02-.55.02-1.08.02-1.6h4.87c0,.51.01,1.05.06,1.6h-.29Z"/><path class="v" d="M147.5,191.85c0,.27,0,.54.04.84h-1.03l-.76-.02h-1.3c-.42,0-.87.02-1.3.02v-.31c.55,0,.72-.12.72-.8v-3.38c0-.66-.18-.75-.72-.77v-.31h4.07c0,.49.04.98.06,1.47h-.34c-.15-.92-.67-1.06-1.42-1.06-.15,0-.42,0-.47.06-.03.03-.03.1-.03.15v1.9c.63,0,1.03-.18,1.03-.92h.31c0,.33-.03.7-.03,1.05l.03,1.03v.13h-.31c-.13-.76-.3-.91-1.03-.91v1.07c0,.86.14,1.21.93,1.21s1.16-.35,1.31-1.24h.3c-.01.29-.06.52-.06.8"/><path class="v" d="M153.71,192.78c-1.46,0-2.76-1.17-2.76-2.89s1.35-2.89,2.83-2.89,2.82,1.14,2.82,2.96-1.4,2.82-2.89,2.82M153.76,187.37c-1.16,0-1.5,1.38-1.5,2.47s.27,2.53,1.5,2.53,1.52-1.34,1.52-2.5-.27-2.51-1.52-2.51"/><path class="v" d="M160.95,188.56c-.23-1-.82-1.04-1.6-1.04-.13,0-.34,0-.39.06-.04.04-.04.14-.04.21v1.89c.71,0,.98-.18,1.08-.92h.28c0,.34-.05.66-.05,1l.05,1.1v.11h-.28c-.1-.81-.47-.91-1.09-.91v1.52c.04.72.24.8.77.8v.31c-.45-.04-.94-.04-1.41-.04-.4,0-.81.02-1.2.04v-.31c.54,0,.7-.12.7-.8v-3.38c0-.66-.16-.75-.7-.77v-.31h4.08c0,.47.08.96.08,1.45h-.29Z"/><path class="v" d="M169.4,192.64c-.4,0-.81,0-1.22.04v-.31c.42,0,.66-.13.7-.63v-3.29c-.46,1.42-1.02,2.8-1.49,4.23h-.36l-1.61-4.28v2.86c0,.68.1,1,.72,1.11v.31c-.34-.04-.69-.04-1.03-.04-.25,0-.51.02-.77.04v-.31c.61-.08.71-.33.71-.98v-3.64c-.16-.28-.44-.27-.71-.32v-.31c.33,0,.67.02.97.02.25,0,.53-.02.81-.02l1.49,3.9c.47-1.3.93-2.58,1.32-3.9.27,0,.52.02.78.02.32,0,.69-.02,1.02-.02v.31c-.53,0-.7.11-.7.77v3.32c0,.2,0,.37.04.53.13.33.41.29.65.33v.31c-.42-.04-.88-.04-1.33-.04"/><path class="v" d="M174.79,192.64c-.4,0-.81.02-1.2.04v-.31c.21-.04.63,0,.63-.35s-.21-.75-.31-1.06h-1.67c-.11.28-.25.58-.28.91,0,.47.35.41.66.49v.31c-.38-.02-.74-.04-1.08-.04-.24,0-.49.02-.75.04v-.31c.59-.08.8-.71,1-1.24l1.51-4.11h.39l1.56,4.44c.23.58.28.83.89.91v.31c-.44-.02-.89-.04-1.35-.04M173.1,188.58l-.7,1.97h1.38l-.68-1.97Z"/><path class="v" d="M181.17,187.69c-.09.18-.09.44-.09.66v4.46h-.4l-3.4-4.37v2.71c0,.7,0,1.11.7,1.23v.31c-.35-.04-.67-.04-1.01-.04-.26,0-.5,0-.75.04v-.31c.54-.08.66-.36.66-.95v-3.45c-.17-.32-.38-.56-.74-.56v-.32c.25.02.5.04.77.04s.52-.02.79-.04l2.98,3.85v-2.36c0-.68-.04-1.1-.69-1.15v-.33c.24.02.48.04.77.04.32,0,.65-.02,1-.04v.33c-.23.04-.48.05-.59.26"/><path class="v" d="M185.78,192.64c-.41,0-.79.02-1.2.04v-.31c.21-.04.63,0,.63-.35s-.2-.75-.3-1.06h-1.7c-.08.28-.22.58-.25.91,0,.47.31.41.63.49v.31c-.38-.02-.7-.04-1.04-.04-.25,0-.49.02-.78.04v-.31c.61-.08.82-.71,1-1.24l1.54-4.11h.33l1.61,4.44c.22.58.27.83.89.91v.31c-.47-.02-.93-.04-1.36-.04M184.1,188.58l-.74,1.97h1.4l-.66-1.97Z"/><path class="v" d="M192.24,191.2v1.01c-.21.03-.38.04-.56.08-.63.17-1.12.49-1.78.49-1.5,0-2.58-1.11-2.58-2.8s1.08-2.98,2.66-2.98c.48,0,1,.17,1.4.53l.16-.49h.3l.07,1.77h-.32c-.21-.78-.67-1.39-1.44-1.39-1.18,0-1.49,1.42-1.49,2.49,0,1.01.28,2.47,1.44,2.47.66,0,.98-.33.98-1.03,0-.61-.11-.69-.62-.78v-.29h2.27v.29c-.44.08-.49.2-.49.63"/><path class="v" d="M197.35,191.85v.84h-.98l-.79-.02h-1.31c-.42,0-.85.02-1.27.02v-.31c.51,0,.7-.12.7-.8v-3.38c0-.66-.19-.75-.7-.77v-.31h4.05c0,.49,0,.98.01,1.47h-.27c-.15-.92-.67-1.06-1.45-1.06-.14,0-.42,0-.47.06-.03.03-.03.1-.03.15v1.9c.63,0,.98-.18,1.02-.92h.3c0,.33-.06.7-.06,1.05l.06,1.03v.13h-.3c-.11-.76-.33-.91-1.02-.91v1.07c0,.86.13,1.21.93,1.21s1.14-.35,1.28-1.24h.32c-.03.29-.03.52-.03.8"/><path class="v" d="M202.73,192.64c-.41,0-.82,0-1.22.04v-.31c.42,0,.67-.13.67-.63v-3.29c-.44,1.42-1.03,2.8-1.5,4.23h-.36l-1.56-4.28v2.86c0,.68.06,1,.7,1.11v.31c-.34-.04-.68-.04-1.04-.04-.24,0-.49.02-.78.04v-.31c.64-.08.76-.33.76-.98v-3.64c-.21-.28-.47-.27-.76-.32v-.31c.35,0,.66.02.99.02.27,0,.53-.02.77-.02l1.51,3.9c.47-1.3.95-2.58,1.35-3.9.25,0,.53.02.77.02.33,0,.68-.02,1.04-.02v.31c-.55,0-.7.11-.74.77v3.32c0,.2,0,.37.05.53.14.33.45.29.69.33v.31c-.44-.04-.9-.04-1.33-.04"/><path class="v" d="M208.69,191.85c0,.27,0,.54.01.84h-1.01l-.74-.02h-1.34c-.4,0-.81.02-1.29.02v-.31c.56,0,.72-.12.75-.8v-3.38c-.03-.66-.19-.75-.75-.77v-.31h4.07c.01.49.01.98.08,1.47h-.3c-.18-.92-.71-1.06-1.46-1.06-.15,0-.45,0-.46.06-.05.03-.05.1-.05.15v1.9c.61,0,1.04-.18,1.05-.92h.29c0,.33,0,.7,0,1.05v1.03s0,.13,0,.13h-.29c-.14-.76-.33-.91-1.05-.91v1.07c0,.86.15,1.21.94,1.21s1.15-.35,1.31-1.24h.29c-.02.29-.05.52-.05.8"/><path class="v" d="M214.04,187.69c-.13.18-.13.44-.13.66v4.46h-.39l-3.42-4.37v2.71c0,.7,0,1.11.72,1.23v.31c-.35-.04-.66-.04-1-.04-.25,0-.51,0-.78.04v-.31c.57-.08.67-.36.67-.95v-3.45c-.16-.32-.37-.56-.73-.56v-.32c.26.02.49.04.79.04.25,0,.51-.02.79-.04l2.97,3.85v-2.36c0-.68-.04-1.1-.7-1.15v-.33c.26.02.52.04.77.04.32,0,.65-.02.99-.04v.33c-.2.04-.43.05-.55.26"/><path class="v" d="M219.46,188.71c-.09-.9-.58-1.17-1.29-1.17-.1,0-.17.02-.19.04-.06.04-.06.17-.06.29v3.71c0,.72.21.8.76.8v.31c-.44-.02-.92-.04-1.35-.04-.46,0-.88,0-1.35.04v-.31c.56,0,.77-.08.77-.8v-3.86c0-.11-.04-.14-.14-.14l-.21-.02c-.79,0-1.07.23-1.26,1.15h-.31c.01-.55.07-1.08.07-1.6h4.83c0,.51.04,1.05.06,1.6h-.33Z"/><rect class="v" x="101.02" y="181.82" width="121.41" height=".68"/><path d="M104.9,124.19v13.37c0,4.44,1.89,5.87,7.38,5.87v2.07h-27.26v-2.07c5.45,0,7.36-1.42,7.36-5.87v-30.57c0-4.45-1.91-5.85-7.36-5.85v-2.09h27.39c17.09,0,23.55,5.97,23.55,12.26,0,11.66-13.65,12.88-24.51,12.88h-6.55ZM104.9,121.71h4.46c9.08,0,13.32-2.81,13.32-10.29,0-6.92-4.46-9.91-11.64-9.91-6.15,0-6.15,1.91-6.15,6.27v13.93Z"/><path d="M149,106.99c0-4.45-1.91-5.85-7.4-5.85v-2.09h27.28v2.09c-5.49,0-7.4,1.39-7.4,5.85v30.57c0,4.44,1.91,5.87,7.4,5.87v2.07h-27.28v-2.07c5.48,0,7.4-1.42,7.4-5.87v-30.57Z"/><path d="M235.44,137.56c0,4.44,1.91,5.87,7.4,5.87v2.09l-27.29-.02v-2.07c5.49,0,7.4-1.42,7.4-5.87v-33.27h-.14l-17.16,41.2h-2.74l-17.28-39.91h-.15v25.82c0,10.15.66,11.42,7.46,12.02v2.07h-19.25v-2.07c6.69-1.09,7.84-1.79,7.84-12.02v-24.42c0-4.75-2.3-5.85-7.4-5.85v-2.09h22.31l12.21,29.13,12.47-29.13h21.73v2.09c-5.49.3-7.4,1.01-7.4,5.85v30.57Z"/><path class="v" d="M104.9,122.32v13.41c0,4.43,1.89,5.83,7.38,5.83v2.1h-27.26v-2.1c5.45,0,7.36-1.4,7.36-5.83v-30.6c0-4.46-1.91-5.87-7.36-5.87v-2.07h27.39c17.09,0,23.55,5.96,23.55,12.25,0,11.68-13.65,12.88-24.51,12.88h-6.55ZM104.9,119.84h4.46c9.08,0,13.32-2.79,13.32-10.28,0-6.93-4.46-9.91-11.64-9.91-6.15,0-6.15,1.92-6.15,6.27v13.92Z"/><path class="v" d="M149,105.13c0-4.46-1.91-5.85-7.4-5.85v-2.09h27.28v2.09c-5.49,0-7.4,1.38-7.4,5.85v30.6c0,4.43,1.91,5.83,7.4,5.83v2.1h-27.28v-2.1c5.48,0,7.4-1.4,7.4-5.83v-30.6Z"/><path class="v" d="M235.44,135.73c0,4.43,1.91,5.83,7.4,5.83v2.1h-27.29v-2.1c5.49,0,7.4-1.4,7.4-5.83v-33.28h-.14l-17.16,41.2h-2.74l-17.28-39.93h-.15v25.83c0,10.15.66,11.43,7.46,12v2.1h-19.25v-2.1c6.69-1.07,7.84-1.78,7.84-12v-24.43c0-4.78-2.3-5.87-7.4-5.87v-2.07h22.31l12.21,29.13,12.47-29.13h21.73v2.07c-5.49.32-7.4,1.03-7.4,5.87v30.6Z"/><path class="aj" d="M113.75,276.79s-15.05-9.88-11.68-28.3c0,0,19,7.45,11.68,28.3"/><path class="aj" d="M85.77,255.75s-11.68-13.38-3.93-31.06c0,0,16.04,11.9,3.93,31.06"/><path class="aj" d="M66.02,232.44s-9.02-15.19,1.57-31.66c0,0,13.51,14.36-1.57,31.66"/><path class="aj" d="M35.09,160.46s-3.83-18.32,10.24-32.05c0,0,8.04,18.84-10.24,32.05"/><path class="aj" d="M112.22,276.75s-8.85-12.02-34.38-.61c0,0,21.01,9.97,34.38.61"/><path class="aj" d="M85.03,256.16s-5.79-14.01-32.51-8.04c0,0,17.77,14.54,32.51,8.04"/><path class="aj" d="M64.91,232.57s-3.45-14.86-30.41-12.7c0,0,15.02,17.11,30.41,12.7"/><path class="aj" d="M30.13,134.72s13.53-8.84,2.45-31.74c0,0-11.95,19.88-2.45,31.74"/><path class="aj" d="M33.89,161.17s1.69-16.32-22.54-24.12c0,0,7.71,22.89,22.54,24.12"/><path class="aj" d="M50.92,207.8s-6.69-16.55,5.92-31.77c0,0,11.13,16.34-5.92,31.77"/><path class="aj" d="M49.93,207.45s-.89-15.42-27.46-17.74c0,0,11.74,19.62,27.46,17.74"/><path class="aj" d="M41.09,183.63s-5.27-17.05,8.55-31.16c0,0,9.72,17.21-8.55,31.16"/><path class="aj" d="M40.04,183.42s1.28-15.39-24.73-21.32c0,0,8.89,21.03,24.73,21.32"/><path class="aj" d="M212.94,276.79s15.07-9.88,11.68-28.3c0,0-19,7.45-11.68,28.3"/><path class="aj" d="M240.92,255.75s11.65-13.38,3.9-31.06c0,0-16.01,11.9-3.9,31.06"/><path class="aj" d="M260.63,232.46s9.03-15.2-1.55-31.67c0,0-13.51,14.36,1.55,31.67"/><path class="aj" d="M291.58,160.46s3.87-18.32-10.22-32.05c0,0-8.04,18.86,10.22,32.05"/><path class="aj" d="M214.44,276.75s8.87-12.02,34.4-.61c0,0-20.99,9.97-34.4.61"/><path class="aj" d="M241.65,256.16s5.79-14.01,32.49-8.04c0,0-17.74,14.54-32.49,8.04"/><path class="aj" d="M261.77,232.57s3.46-14.86,30.43-12.7c0,0-15.03,17.13-30.43,12.7"/><path class="aj" d="M296.57,134.72s-13.57-8.84-2.45-31.74c0,0,11.89,19.88,2.45,31.74"/><path class="aj" d="M292.76,161.17s-1.66-16.32,22.6-24.12c0,0-7.7,22.89-22.6,24.12"/><path class="aj" d="M275.77,207.8s6.68-16.55-5.9-31.77c0,0-11.15,16.34,5.9,31.77"/><path class="aj" d="M276.76,207.45s.88-15.42,27.46-17.74c0,0-11.74,19.63-27.46,17.74"/><path class="aj" d="M285.59,183.63s5.26-17.05-8.55-31.16c0,0-9.73,17.21,8.55,31.16"/><path class="aj" d="M286.66,183.42s-1.3-15.39,24.73-21.32c0,0-8.91,21.03-24.73,21.32"/><path class="ai" d="M295.83,130.85c0,.28-2.12,30.07-16.47,64.52-8.42,20.2-19.63,37.85-33.24,52.51-15.19,16.28-33.48,28.86-54.49,37.48,4.2-3.58,8.26-9.05,9.3-17.14,0,0-16.28,1.15-19.46,16.48-.64,2.41-3.62,9.51-18.13,9.51s-17.52-7.11-18.12-9.51c-3.21-15.33-19.48-16.48-19.48-16.48,1.1,8.09,5.13,13.55,9.33,17.14-21.01-8.61-39.29-21.2-54.5-37.48-13.63-14.66-24.83-32.34-33.23-52.51-14.36-34.45-16.48-64.24-16.48-64.52h-1.32c.02.28.53,30.63,15.04,65.56,8.54,20.52,19.94,38.5,33.8,53.41,15.63,16.8,34.52,29.69,56.16,38.48-5.7-.17-13.69,1.49-24.23,7.92,0,0,17.13,2.52,30.74-1.47,7.38-2.16,15.55,2.38,15.55,2.38-1.8,0-11.19,2.3-11.19,2.3-.4,3.23,2.14,5.16,2.14,5.16,0,0,1.91.58,6.96-2.98,4.78-3.33,8.41-3.31,8.82-3.29h.04c.41-.02,4.05-.04,8.82,3.29,5.06,3.55,6.97,2.98,6.97,2.98,0,0,2.52-1.93,2.13-5.16,0,0-9.39-2.3-11.19-2.3,0,0,8.17-4.55,15.53-2.38,13.62,4,30.79,1.47,30.79,1.47-10.56-6.42-18.57-8.09-24.26-7.92,21.65-8.79,40.5-21.68,56.14-38.48,13.89-14.91,25.27-32.89,33.82-53.41,14.53-34.93,15.06-65.28,15.06-65.56h-1.34ZM145.15,291.95h0,0Z"/><path class="v" d="M11.02,210.82c7.67,10.81-10.89,33.17-11.02,33.33,0,0,13.65-8.05,33.21,3.13-.24,1.19-.81,4-.81,4l-4.21,20.65.1.54c.96,6.26,8.91,9.99,24.21,11.35h.09s.02,0,.02,0c13.74.69,32.23-.15,53.28-13.02l9.1-5.6,3.52-2.18c7.66-4.79,20.54-12.8,27.1-15.07,3.12-1.06,6.35-1.88,9.58-2.35,5.15-.8,10.43-.82,15.66-.1,8.54,1.2,17.11,4.39,25.44,9.57l3.93,2.43v-.26c3.68,2.18,8.17,4.87,13.87,8.38l9.12,5.6c21.2,12.95,37.77,13.28,51.67,12.58h.08c15.32-1.37,23.25-5.08,24.25-11.36l.08-.52s-4.74-23.48-4.99-24.67c15.23-9.71,32.7-4.43,32.7-4.43-.13-.16-18.21-21.21-10.54-32.02l4.09-5.75-6.59,1.23c-.13.02-11.92,2.27-23.64,5.78-22.39,6.65-25.57,12.01-25.81,15.95v.87c0,.11.62,18.47.78,23.13-9-.31-18.38-3.37-27.94-9.22l-9.08-5.58c-14.17-8.69-22.67-13.72-29.86-17.2l-1.8-.82-.04.02c-.37-.13-.7-.26-.99-.36-4.53-1.86-9.14-3.36-13.75-4.43-26.55-6.18-46.19,2.35-51.66,5.16-7.6,3.52-16.39,8.71-30.94,17.63l-9.09,5.58c-9.52,5.85-18.9,8.91-27.95,9.22.18-4.67.81-23.03.81-23.13,0-.09.01-.28.01-.28v-.58c-.27-3.94-3.44-9.3-25.83-15.95-11.74-3.5-23.54-5.76-23.62-5.78l-6.62-1.23,4.07,5.75ZM63.01,228.23v.14-.14ZM264.51,228.35v-.11.14-.03Z"/><g class="ag"><g class="z"><polygon class="ad" points="55.89 256.99 -3.98 234.49 14.99 184.06 74.84 206.53 55.89 256.99"/></g></g><path class="w" d="M60.34,228.16c-.06,1.99-1.87,4.06-6.16,6.1h0c-10.72,5.1-16.91,7.29-18.22,12.63h0l-.58,2.92c.66,3.28,6.15,5.44,14.92,6.65h0c3.31.45,6.32.61,9.14.54h0l.96-28.85h-.05Z"/><g class="t"><g class="al"><polygon class="y" points="267.8 266.96 327.66 244.46 308.72 194.08 248.84 216.58 267.8 266.96"/></g></g><g class="ac"><g class="ab"><rect class="ah" x="266.61" y="227.27" width="25.04" height="28.88"/></g></g><g class="u"><g class="ae"><rect class="ap" x="26.49" y="209.22" width="277.89" height="77.2"/></g></g><path d="M59.82,273.39l.02-5.01c-.59.35-2.12.44-3.16.49-.94.04-1.97.4-2.01,1.42-.02,1.57,1.98,1.46,3.42,1.11v1.9c-2.83.38-5.67.19-5.64-3.01.04-1.98,1.29-3.11,3.54-3.28,1.4-.12,3.8.15,3.8-1.07,0-.79-1.06-1.23-2.29-1.23s-2.33.48-2.52,1.49l-2.26-.03c.38-2.43,2.69-3.27,4.83-3.27.55,0,1.1.08,1.61.18.31-.12.49-.39.49-.74h2.37c0,.63-.56,1.18-1.12,1.46.73.51,1.18,1.26,1.18,2.34l-.04,7.26-2.21-.02Z"/><path d="M71.1,272.45l-.78-6.81c-.17-1.24-1.21-1.67-2.62-1.53-1.09.15-1.94.69-2.16,1.2.35.18.83.47.88.83.06.53-.57.83-.53,1.47l.46,3.61,1.3-.16.23,1.73-3.54.42-.65-5.34c-.04-.59.72-.88.67-1.31-.03-.24-1.16-.66-1.16-.66.1-2.03,1.93-3.29,4.32-3.56,2.42-.28,4.67.48,4.97,2.89l.77,6.96-2.17.26Z"/><path d="M77.78,271.17l-1.65-7.06c-.21-.9-1.41-1.22-3.11-.54l-.41-1.74c2.65-1.09,5.09-.71,5.6,1.38l1.7,7.44-2.14.51Z"/><path d="M86.62,268.75c-2.31.82-4.75.54-5.53-1.75l-2.35-6.56,2.07-.73,2.29,6.43c.44,1.21,1.67,1.33,2.89.92,1.2-.44,2.08-1.37,1.68-2.52l-2.31-6.46,2.07-.74,2.35,6.56c.83,2.28-.93,4.06-3.16,4.84"/><polygon points="82.46 257.97 81.45 255.65 83.49 254.79 83.94 255.81 89.11 253.58 89.65 254.86 82.46 257.97"/><path d="M100.03,262.65l-.63-1.26c-.27,1-1.13,2.29-2.35,2.91-2.04,1.02-3.75.64-4.76-1.4l-3.15-6.3,1.97-.99,3.17,6.33c.49,1.02,1.35,1.07,2.26.63,1.58-.81,2.1-2.71,1.67-3.57l-2.76-5.55,1.97-.99,4.58,9.19-1.97,1Z"/><path d="M109.85,257.07l-3.49-5.91c-.61-1.06-1.73-1.06-2.95-.32-.94.55-1.52,1.4-1.49,1.95.42.03.95.11,1.11.4.29.47-.17,1.01.13,1.55l2.74,4.67-1.9,1.11-2.74-4.65c-.28-.51.28-1.07.07-1.45-.13-.23-1.33-.15-1.33-.15-.73-1.86.45-3.78,2.53-4.99,2.1-1.24,4.44-1.42,5.7.64l3.53,6.05-1.91,1.11Z"/><path d="M115.63,253.48l-3.88-6.11c-.48-.77-1.76-.69-3.13.54l-.96-1.52c2.17-1.93,4.57-2.35,5.72-.52l4.14,6.41-1.89,1.2Z"/><path d="M122.95,248.89c-1.93,1.3-4.22,1.91-6.08-.8l1.85-1.24c1,1.5,2.33,1.16,3.24.54,1.06-.71,1.85-1.68,1.13-2.76-.58-.9-1.75-.47-2.61.03-2.2,1.15-4.08,2.19-5.38.25-.98-1.46-.04-3.57,1.94-4.89,1.85-1.19,4.22-1.74,5.63.23l-1.82,1.21c-.72-.86-1.99-.49-2.88.1-.85.58-1.51,1.44-1.12,2.02.37.58,1.63-.11,2.8-.75,1.81-.99,3.83-1.62,5.22.49,1.55,2.34.02,4.26-1.95,5.55"/><path d="M130.3,244.15l-3.98-4.23-.81-.52,2.21-1.19,3.11,3.35c1.14-.86,1.45-2.73.45-4.58-.85-1.52-2.34-2.04-3.77-1.24-1.08.59-1.68,1.52-1.56,2.57l-1.88,1.01c-.67-1.82.25-3.86,2.59-5.13,2.53-1.4,5.05-.95,6.56,1.78,1.95,3.52.55,6.65-2.93,8.2"/><polygon points="127.15 232.46 126.06 230.18 128.08 229.23 128.55 230.27 133.63 227.87 134.23 229.11 127.15 232.46"/><path d="M145.64,237.07l-2.37-6.44c-.44-1.18-1.79-1.26-3.13-.75-1.36.51-2.33,1.44-1.89,2.61l.89,2.39c.21.57.63,2.3.63,2.3l.07-.02s.03-1.17.23-1.91l.67-2.34-1.01.39-.59-1.56,3.08-1.15.49,1.33-1.92,6.95-2.22.82-2.46-6.57c-.81-2.23,1.14-4.1,3.35-4.94,2.31-.85,4.97-.7,5.82,1.53l2.45,6.57-2.11.79Z"/><path d="M156.68,234.58l-1.11-6.8c-.19-1.21-1.23-1.6-2.63-1.38-1.11.19-1.91.78-2.11,1.29.39.17.86.46.89.8.09.51-.56.86-.42,1.49l.88,5.34-2.18.33-.88-5.31c-.1-.59.67-.91.58-1.36-.05-.24-1.18-.62-1.18-.62,0-1.98,1.78-3.35,4.15-3.75,2.38-.39,4.66.29,5.08,2.68l1.12,6.93-2.19.35Z"/><path d="M163.5,234.25l.07-7.25c0-.9-1.08-1.51-2.91-1.24l.02-1.79c2.85-.4,5.12.51,5.09,2.68l-.07,7.62-2.2-.02Z"/><path d="M172.03,235.23c-2.32-.4-4.38-1.52-3.87-4.78l2.22.39c-.35,1.76.84,2.42,1.94,2.61,1.27.23,2.49.05,2.73-1.22.19-1.05-.92-1.52-1.89-1.79-2.4-.65-4.53-1.21-4.13-3.52.3-1.7,2.45-2.59,4.77-2.16,2.19.36,4.27,1.58,3.97,4.01l-2.18-.39c.1-1.07-1.12-1.7-2.13-1.88-1.02-.18-2.11.03-2.21.72-.11.68,1.23,1.02,2.53,1.37,2.03.55,3.9,1.44,3.46,3.95-.48,2.72-2.91,3.11-5.2,2.7"/><path d="M182.84,238.11c-2.3-.82-3.98-2.55-3.2-4.84l2.36-6.57,2.07.76-2.3,6.45c-.42,1.16.47,2.08,1.68,2.52,1.19.42,2.45.29,2.87-.9l3.44-9.59,2.09.75-3.48,9.71c-.79,2.25-3.28,2.52-5.52,1.72"/><polygon points="185.63 226.27 186.67 223.97 188.66 224.87 188.2 225.9 194.05 228.49 193.51 229.77 185.63 226.27"/><path d="M198.33,248.4l-3.61-2,.82-1.47,3.45,1.92c1.28.66,2.21.37,2.59-.46-.47.08-1.31.12-2.47-.52-1.63-.88-2.82-2.36-1.66-4.48l1.92-3.49c.6-1.08,0-2.06-1.21-2.71-.97-.54-1.98-.61-2.45-.3.19.36.4.86.22,1.19-.26.47-.95.35-1.28.89l-1.72,3.22,1.17.63-.83,1.55-3.14-1.71,2.61-4.72c.27-.54,1.08-.35,1.29-.72.11-.23-.58-1.22-.58-1.22,1.26-1.56,3.5-1.54,5.6-.38,2.14,1.16,3.5,3.11,2.35,5.22l-1.95,3.53c-.52.96-.04,1.61.75,2.04.91.51,2.17.52,2.76-.56l3.33-6.06,1.95,1.08-4.61,8.36c-1.14,2.06-3.13,2.35-5.31,1.16"/><path d="M213.03,257.32l-3.51-2.15.86-1.45,3.37,2.06c1.24.76,2.23.49,2.62-.31-.49.04-1.31.04-2.48-.65-1.56-.96-2.67-2.49-1.42-4.54l2.08-3.42c.66-1.02.12-2.02-1.09-2.77-.93-.54-1.95-.67-2.43-.4.2.39.36.88.2,1.19-.32.47-.99.31-1.35.86l-1.88,3.1,1.14.69-.91,1.51-3-1.83,2.77-4.62c.32-.49,1.1-.24,1.34-.63.14-.21-.53-1.22-.53-1.22,1.36-1.52,3.56-1.4,5.6-.15,2.09,1.28,3.38,3.26,2.11,5.32l-2.11,3.43c-.56.97-.11,1.59.67,2.09.9.55,2.15.62,2.78-.43l3.61-5.9,1.89,1.17-5,8.14c-1.19,2-3.22,2.21-5.32.92"/><path d="M221.95,259.39l3.69-6.25c.48-.76-.18-1.84-1.91-2.52l.93-1.56c2.68,1.08,4.2,3.04,3.08,4.88l-3.88,6.57-1.91-1.13Z"/><path d="M232.05,265.03l3.22-6.04c.58-1.08-.03-2.05-1.27-2.72-.95-.52-1.95-.54-2.45-.23.24.35.42.83.24,1.14-.24.49-.95.38-1.28.95l-2.5,4.75-2.75-1.46.84-1.61.76.43,1.71-3.17c.29-.53,1.11-.31,1.31-.71.1-.21-.59-1.2-.59-1.2,1.21-1.59,3.47-1.59,5.56-.45,2.18,1.15,3.56,3.08,2.4,5.19l-3.29,6.17-1.92-1.04Z"/><polygon points="232 252.33 232.56 251.09 240.12 254.57 239.53 255.86 232 252.33"/><path d="M240.72,269.08c-2.31-.86-3.46-2.57-3.16-4.91l2.24.81c0,1.26.62,2.08,1.54,2.42,1.53.56,2.86-.12,3.71-2.37.86-2.31.26-3.67-1.27-4.25-.89-.32-1.91-.12-2.75.81l-2.2-.82c1.3-1.93,3.27-2.53,5.59-1.67,2.44.91,4.06,3.01,2.7,6.68-1.36,3.7-3.97,4.21-6.39,3.3"/><polygon points="244.03 258.12 244.69 255.69 246.83 256.27 246.53 257.36 251.95 258.84 251.6 260.18 244.03 258.12"/><path d="M260.35,273.39c-1.2-.14-2.13-.85-2.59-1.6l-.17,1.08-2.19-.29.99-7.39c.08-.61-.38-1.14-.88-1.2l-1.75.86-1.52-1.3c-.48-.06-1.06.33-1.13.95l-.47,3.52c-.1.63-.39,1.92-.39,1.92h.07s.73-.97,1.25-1.56l1.4-1.57-1.02-.13.2-1.64,3.27.43-.19,1.41-4.68,5.05-2.61-.37.97-7.21c.21-1.66,1.64-2.85,3.83-2.69l1.28,1.14,1.57-.75c2.17.4,3.2,1.95,2.99,3.59l-.47,3.62c-.13.86.62,2,2.02,2.19.8.11,1.51-.1,1.68-1.33l.93-6.93,2.18.29-.95,7.06c-.35,2.59-2.06,3.06-3.62,2.85"/><path d="M272.93,273.41v-1.42c-.69.81-2.02,1.61-3.38,1.65-2.25.02-3.67-1.03-3.67-3.31l-.12-7.06,2.21-.04.11,7.1c0,1.09.77,1.56,1.76,1.53,1.76-.02,3.07-1.53,3.05-2.47l-.09-6.21,2.21-.06.17,10.28-2.24.03Z"/><path d="M273.73,260.74c-.56.03-.86.4-.84.89l.02.24-2.18.2-.11-.84c-.09-1.18.77-1.83,1.84-1.94l2.35-.22.15,1.51-1.24.15Z"/></g></svg>