<?xml version="1.0" encoding="UTF-8"?>
<svg id="Layer_2" data-name="Layer 2" xmlns="http://www.w3.org/2000/svg" width="240" height="307.7737" viewBox="0 0 240 307.7737">
  <g id="Layer_1-2" data-name="Layer 1">
    <g>
      <path d="M119.9837,307.7737C53.8247,307.7737,0,238.6098,0,153.5963c0-41.097,12.4503-79.6766,35.0568-108.6313C57.696,15.9688,87.8569,0,119.9837,0s62.299,15.9688,84.9456,44.9646c22.6156,28.9568,35.0707,67.5358,35.0707,108.6318,0,85.0135-53.8391,154.1773-120.0163,154.1773Z" fill="#8c6f0e"/>
      <path d="M119.9832,304.1686C55.8119,304.1686,3.6051,236.6221,3.6051,153.5958,3.6051,70.8908,55.8119,3.6051,119.9832,3.6051s116.4117,67.2857,116.4117,149.9907c0,83.0262-52.2223,150.5728-116.4117,150.5728ZM119.9832,5.6447C56.9365,5.6447,5.6447,72.0153,5.6447,153.5958c0,81.9017,51.2918,148.5332,114.3385,148.5332s114.3721-66.6315,114.3721-148.5332c0-81.5805-51.3073-147.9511-114.3721-147.9511Z" fill="#fff"/>
      <g>
        <g>
          <path d="M209.3183,145.2483c-.3919-.07-.7969-.0788-1.1745-.2025-.4411-.1456-.8177-.44-1.1515-.7618-1.0257-.9873-1.7372-2.2867-2.0623-3.6724-.1248-.5342-.1938-1.0914-.0876-1.6288.1379-.6972.5615-1.3135.6852-2.013.0777-.4357.046-.9194.3065-1.2763.2813-.3842.8396-.5211,1.0476-.949.1554-.3175.0679-.6973.1379-1.0432.1828-.902,1.2741-1.2315,1.9594-1.8456.3525-.3163.6086-.7279.9666-1.0377.6217-.5396,1.4766-.7104,2.2954-.7914.4597-.046.96-.0843,1.3059-.3919.1981-.1762.3218-.4214.5101-.6075.2507-.2463.5955-.3689.9304-.4729,1.3344-.416,2.7223-.66,4.118-.7246-.6108-.0186-1.0432.5933-1.2511,1.168-.3076.8527-.3853,1.7875-.2233,2.6807.1357.7455.4357,1.4657.4543,2.2232.0142.6108-.1565,1.2139-.1478,1.8247.0208,1.3278.8855,2.6293.5298,3.9089-.1095.3908-.3262.7411-.4762,1.1176-.3152.7882-.3317,1.6649-.6009,2.4684s-.9425,1.5927-1.7897,1.5467c-.1489-.0077-.2988-.0427-.4477-.0252-.232.0285-.4291.1773-.625.3065-1.0344.6863-2.3534.9282-3.5641.6545-.555-.1259-1.0848-.3546-1.6452-.4554" fill="#27330e"/>
          <path d="M208.3262,140.2959c1.92,5.2805,5.2783,10.029,9.6152,13.5996-.1905.1533-.4663.1905-.6918.0953-2.5319-1.0771-4.0873-3.6791-5.9186-5.7325-1.7711-1.9845-3.4229-4.2198-3.9363-6.8294-.0285-.1456-.0525-.2966-.0186-.44.0952-.3941.5561-.601.9501-.693" fill="#27330e"/>
          <path d="M208.2351,143.4244c.3754.2595.7367.5517,1.0027.9228.2671.3733.4291.821.4619,1.2786-.4357-.115-.8877.0689-1.3354.1106-.8232.0788-1.6704-.3722-2.0667-1.0968-.2529-.4619-.2945-1.1066.0974-1.4581.2485-.2233.6185-.2725.9458-.2003.3262.0734.6196.2529.8943.4433" fill="#27330e"/>
          <path d="M207.0634,146.3769c.1576-.428.5331-.7564.9633-.9074.4302-.1511.9085-.1346,1.3453-.0065-.3098.2879-.7608.3459-1.18.4093-.4182.0624-.8735.1664-1.1285.5046" fill="#27330e"/>
          <path d="M208.5471,145.7471c-.0536.4291.1051.879.4149,1.1811-.1642-.2726-.2102-.613-.1259-.9184.046-.1675.1303-.3306.1182-.5036-.0109-.173-.1795-.3514-.3404-.2868.0099.1774-.0449.3514-.0668.5276" fill="#27330e"/>
          <path d="M204.9425,137.9272c-.5068-.4783-1.064-.9172-1.7021-1.1975-.6382-.2813-1.3661-.3963-2.0404-.2189-.4926.1302-.9326.4061-1.342.7104-.3842.2857-.7476.5988-1.11.9107-.0525.046-.1073.0941-.1335.1587-.0274.0701-.0164.15-.0044.2244.1237.7761.3262,1.5938.8976,2.1334.486.4619,1.1669.6491,1.8269.7695.7728.1412,1.5577.2135,2.3436.2135.3218.0011.6568-.0142.9425-.1631.509-.266.7203-.8713.8768-1.4241.1073-.3765.2102-.7761.1149-1.1559-.0974-.3842-.382-.6896-.6699-.9611" fill="#fff232"/>
          <path d="M208.5725,137.9145c-.2277.4762-.7684.7148-1.2851.821-.752.1565-1.5763.104-2.2286-.301-.5156-.3196-.8812-.8275-1.2336-1.3234-.3415-.4806-.6907-.9764-.8407-1.5478-.2233-.8473.0328-1.7766.5594-2.4761.2769-.3667.6239-.6819.8549-1.0793.2463.2923.6995.2321,1.0804.2058.5878-.0416,1.1931.0624,1.7098.3469.5167.2835.9381.7542,1.1143,1.3168.2156.6841.0613,1.4274.1631,2.1378.0919.6393.3842,1.3158.1062,1.8992" fill="#ffe626"/>
          <path d="M204.1258,147.1138c.3459.0778.7214.1522,1.0454.0099.2605-.1149.4444-.3503.6119-.5802.3678-.5035.7159-1.0201,1.0432-1.5489.174-.2835.3448-.5736.4368-.8932.2036-.7104-.0153-1.4942-.4444-2.0962-.3557-.4991-.8932-.9118-1.5051-.9402-.6031-.0285-1.1647.3174-1.6003.7344-.4367.417-.7914.9162-1.2457,1.3125-.2627.2288-.5626.4302-.7356.7322-.2069.3624-.1948.8067-.1368,1.2206.0471.3361.1204.6688.2178.9939.0514.1708.1138.3448.2408.4707.1543.1522.3776.2058.59.254.4937.1094.9884.22,1.4821.3305" fill="#ffe626"/>
          <path d="M210.6822,134.9355c.3886.2595.7772.5178,1.1658.7772.197.1313.3995.2671.5331.4631.2846.4148.1883.9709.2704,1.4668.0788.4773.3317.9271.3152,1.411-.0109.3174-.139.6239-.3218.8834-.5211.7378-1.5161,1.1044-2.3907.879-.1303-.0328-.2605-.0777-.3941-.0645-.3733.0372-.5791.4969-.9469.5714-.2539.0514-.5134-.1084-.6546-.3251s-.1883-.4805-.2222-.7378c-.1357-1.0344-.0832-2.1772.5725-2.9894.2189-.2715.4981-.4937.6874-.7871.1609-.2506.2507-.5396.393-.8013.162-.2966.3941-.5549.6721-.7487.0482-.0329.1007-.0657.1587-.0646.0602,0,.1127.0339.162.0667" fill="#fff232"/>
          <path d="M206.8592,141.8981c.0919-.2342.5517-.336.7389-.5046.6338-.5746,1.5314-.8538,2.3764-.7191.6863.1095,1.3267.4882,1.7547,1.0366.0832.1072.162.2288.1708.3656.0197.3186-.3218.5211-.5101.7793-.4072.5561-.0843,1.3979-.4346,1.9912-.1565.2671-.4291.4434-.7027.5889-.5167.2747-1.1745.4674-1.6649.1477-.278-.1817-.5922-.3404-.7422-.6348-.1664-.3284-.3131-.6459-.4794-.9742-.2879-.5681-.74-1.4832-.5068-2.0765" fill="#fff232"/>
          <path d="M206.0855,135.8262c.1521.9644-.22,1.9944-.9523,2.6391-.7323.6459-1.8017.8834-2.7387.6108.4433.1062.8702.2922,1.2347.5659.5725.4291.9775,1.0749,1.1154,1.7766.1379.7028.0055,1.4537-.3623,2.0667.4784-.6896,1.2446-1.1701,2.071-1.3135.8275-.1423,1.7054.0514,2.4016.521-.4499-.7224-.5572-1.6496-.2813-2.4552.2747-.8057.9271-1.4734,1.7251-1.7678-.7991.173-1.6737.185-2.394-.2014-.9118-.4893-1.3956-1.4985-1.8193-2.4421" fill="#dee9f2"/>
          <path d="M207.9547,139.2588c-.0723-.058-.1598-.0908-.2496-.116-.2791-.0766-.5834-.0744-.8527.0339-.2682.1072-.4959.3251-.5922.5988-.1182.3393-.0263.7214.1521,1.0333.1215.2135.289.4094.5112.5145.2233.104.5057.1007.6984-.0514.0624-.0504.1127-.1128.162-.174.2419-.3021.4948-.6437.4762-1.0301-.0055-.1106-.0339-.2189-.0624-.3273-.046-.1773-.1007-.3667-.243-.4816" fill="#ccdeec"/>
          <path d="M215.7596,152.9987c.0854-.4641-.1248-.9249-.3317-1.3496-.289-.5922-.5834-1.1866-.972-1.7186-1.5697-2.1542-4.604-2.9861-7.1632-2.2396-2.5592.7455-4.5854,2.8843-5.5311,5.3768.6491-.8976,3.656-.5725,5.5158-.2288.9217.1697,1.8663.3415,2.7387.6841,1.0891.4259,2.2527.6634,3.4218.6962.9545.0285,2.1487-.2803,2.3217-1.2206" fill="#12491d"/>
          <path d="M218.0099,148.7221s2.1192-.1302,2.5373-.8078c.417-.6776.3536-.9983,1.2085-1.342.8538-.3437.6042.3777,1.5051-.7509.9019-1.1275,1.2303-1.1625,1.2117-2.4837-.0175-1.3202-.2113-1.1395-.2901-1.8259-.0788-.6852.0832-.764-.289-1.6102-.3722-.8462-.44-.7651-.8911-1.7721-.4499-1.0093-.8538-1.2293-1.3978-1.7164-.5451-.487-1.1505-.9337-1.3913-1.3026-.2386-.3667-.2277-.3284-.7191.104-.3295.2912-.6568.5943-1.2851.8713-.6272.2769-1.2752.5911-1.7996,1.1143-.5232.5243-.7301.5549-1.0826,1.2435-.3525.6896-.7126,1.3508-1.18,1.8575-.4674.508-.6031.3623-.8429,1.3267-.2408.9654-.5276,1.666-.5068,2.3688.0219.7027-.6787.416.289,1.6102.9676,1.1953,1.1296,1.6408,2.2396,2.2702,1.11.6294,2.1728,1.0103,2.4859.9031.0821-.0274.1839-.0526.1839-.0526" fill="#ce2a85"/>
          <path d="M222.0027,151.2677s.5966.8352,1.6835.6469c1.088-.1871,2.869-.4039,3.3539-1.2938.486-.8888.648-.937.9282-2.0743.2813-1.1362.1193-1.0891.3711-1.4263,0,0-.8111-.069-1.1318-.4138-.3218-.3459-1.3278-.1817-2.1597-.7717-.833-.59-2.5428-.1303-3.0595.5046-.5156.6348-1.527.9326-1.7667,1.3102-.2408.3787-.8089.2376-.6623,1.3365.1478,1.099.8834,1.8062,1.4296,2.1717.5473.3667.74-.173,1.0136.0098" fill="#ce2a85"/>
          <path d="M215.9685,153.2627s-.011.0099-.0296.0274c-.0646.0613-.2145.2091-.2507.3032-.0471.1205.1872.1281.243.0723.0044-.0044.0077-.0088.012-.0132.278-.3229.6907-.4882.6907-.4882l.6163-.4455.7816-.405-.2397-.2157c-.3842.1127-.7312.5002-1.0191.7169s-.775.4259-.775.4259l-.0295.0218Z" fill="#12491d"/>
          <path d="M217.3943,147.9332c.0252-.4083.0963-.6436.2605-1.1307.1642-.4882.1051-.3163.2737-.937.1686-.6217.2748-.7838.5637-1.2205.289-.4367.4422-.4379.6327-.9108.1904-.474.0865-.7509.5123-1.0957s.44-.3711.5495-.4466c0,0,.1357-.8089.6097-.6185.4729.1894-.0285.7991-.1664.9272-.1379.1281-.1084.2298-.174.3809s-.3886.6196-.6973.8418c-.3076.2222-.4324.5451-.5166.8549-.0854.3109-.0197.5331-.2441,1.0388-.2255.5046-.3295.821-.5189,1.0749-.1894.2529-.3273.381-.3755.8133-.0493.4313-.0328.7126-.2923.8768s-.4477.0438-.417-.4488" fill="#9d0365"/>
          <path d="M218.6359,148.5621s.521-.0218.683-.4422c.1609-.4214.2156-.4587.3743-.9665.1587-.5079.1117-.5166.44-1.1187.3284-.601.3656-.7006.717-1.2205.3525-.5211.2682-.5845.5265-.902.2572-.3174.5385-.3339.5473-.601.0098-.266-.0394-.3612-.3163-.4772-.2759-.1171-.6108.3109-.6612.5889-.0493.2791-.1434.4816-.255.625-.1117.1423-.2879.59-.3985.8856-.1105.2966-.2507.6447-.474.9304-.2233.2857-.5791.7191-.7991,1.0914-.22.3721-.4116.3186-.5123.7224-.1018.4029-.3109.6623.0591.949" fill="#bf1177"/>
          <path d="M229.3172,145.2269c-.1314.5167-.4324,1.4887-1.1789,2.2353-.7465.7465-.9414.6009-1.6835,1.4635s-1.6846.4028-2.6041,1.2588c-.9195.856-1.0257.5943-1.7437,1.0398-.7192.4456-.4685.8987-.8921,1.0531-.4225.1533,0-.4981-.3076-.8472-.3076-.3481-1.1132-.6973-1.5379-1.7438s.1204-.8856.1872-1.2566.0066-.1773.2124-.4717c.2069-.2956.7695-.8713,1.261-1.191.4915-.3208,1.0596-1.2786,1.3114-1.6157.2528-.3383.7586-.8089.9151-.972.1576-.1631.8253-1.18,1.0465-1.4208.2222-.2409.5276-.5615.7017-.7038.7191-.5933,1.4142-1.3672,4.1212-1.4088,0,0,.3809.6382.3831,1.6825.0033,1.18.1259,1.6452-.1915,2.8985" fill="#ce2a85"/>
          <path d="M217.6726,148.7302c.0766-.0405.3864-.1795.5604-.5604.173-.3798.208-.4127.336-1.0213.1292-.6086.0197-.5331.1872-.9337.1675-.4006.0887-.4433.3065-.7487.2178-.3065.2605-.3842.3765-.8144.1149-.4291-.011-.2594.1806-.5802.1915-.3196.3327-.3612.2703-.6502-.0635-.289-.1817-.1664-.2594-.2091-.0788-.0427-.0744-.1762-.2933-.0241-.2178.1522-.3131.2025-.3974.6656-.0832.4641-.046.3656-.1828.6469-.1368.2824-.1314.5221-.2616.9786-.1292.4554-.3853,1.0793-.5462,1.2807-.1598.2004-.4422.8111-.555,1.1735-.1127.3623-.0503.6513-.0088.7936.0416.1412.1916.0536.2868.0033" fill="#bf1177"/>
          <path d="M222.9039,149.762c-.0307-.0832-.2573-.7739-1.238-.9249-.9819-.15-3.679-.5583-4.361-.8844-.682-.3273-1.0355-.6327-1.469-.7104,0,0-.1073.0317-.2441-.6316-.1357-.6622.0974-1.4635-.5101-2.1345-.6075-.671-.4444-.5134-.8954-.5561-.4521-.0438-.8002-.0295-1.1789.3755-.3787.4039-.5878.7881-.9994,1.0847-.4105.2966-.7892.7006-.6447,1.3902.1445.6896.3021,1.7273.7925,2.198.4904.4707.1915.8516.2857.971.0931.1182.5353-.5682,1.3234-.4773.7881.0898.6097.3765,1.5051.4357.8965.0591,1.0169-.3284,1.3705-.0219.3536.3065.5276-.0963.5407.544.012.6404-.2113,1.6726.4368,2.1849.6491.5122.8779.5921,1.1877.8516.3109.2606.844.7772,1.9605.3908.8067-.4434,1.5905-.9665,1.6715-1.4876.081-.5221.4423-1.1844.4729-1.7799.0296-.5943.1313-.4477-.0065-.8177" fill="#c01480"/>
          <path d="M221.6655,148.8374c-.9819-.151-3.679-.5582-4.361-.8855-.682-.3262-1.0355-.6327-1.4679-.7104,0,0-.1084.0317-.2441-.6306-.1368-.6633.0963-1.4635-.5112-2.1345-.6064-.671-.4433-.5145-.8954-.5572,0,0,.7115-.7651,2.9139,3.0387,0,0,1.2993.2332,1.7766.5615,0,0,.9228.5484,1.4252.6644,0,0,1.0957.4389,1.3639.6535" fill="#d2368b"/>
          <path d="M215.8293,153.7195c-.2967.3076-.5068,1.0016-.6546,1.457-.15.4608-.2299.6381-.4269.9381l-.4543-.3503s.4663-.7301.6907-1.2347c.2244-.5058.4576-.6841.5659-1.2873s.3163-1.3891.6962-2.1159.382-.7936.5167-1.0082c.1335-.2157.2091-.6327.3623-1.007.1532-.3755-.0383-.8024.0843-1.0574.1226-.2562.1204-.1894.139.0241,0,0-.127.3897.1215.7115,0,0-.0066.2003-.0788.3306-.0711.1313-.2945.417-.3328.7356-.0383.3186-.0876.2233.0033.4597.0919.2364-.1883.2539-.3196.5561-.1303.3021-.74,1.2939-.8472,2.4236,0,0,.0416.313-.0657.4246" fill="#12491d"/>
          <path d="M221.0144,141.6671c.104-.1762.0416-.3492.0416-.3492,0,0-.1434.0405-.2715.1478.0328-.2934-.1511-.2431-.2364-.0263-.0307-.2595-.3076-.2857-.2452.081-.1401-.1697-.3415-.1915-.3415-.1915,0,0-.0306.1817.0799.3689-.2255-.1784-.3175.0252-.1817.1839-.2562-.0569-.2649.2922-.0164.2715-.2485.0208-.312.2025-.312.2025,0,0,.2211.1401.3065.0219-.1029.2113.0821.3896.1708.2266-.0044.1905.1423.1795.2211.0514-.0438.1346.092.3842.092.3842,0,0,.1795-.1521.1828-.3722.0591.2759.3601.1894.3043-.023.1544.1412.3021-.0689.1697-.2047.139.1325.3722.0493.3722.0493,0,0-.0405-.2014-.1741-.2781.1248-.0033.1587-.3043-.0131-.2977.1587-.081.069-.3405-.1489-.2463M220.5536,142.1378c-.0788.0471-.1949.0339-.2408-.0405-.0427-.0712-.011-.1368.0744-.1806.0755-.0383.1368-.0613.2014.0055.0624.0624.0328.1762-.035.2156" fill="#fff"/>
          <path d="M220.478,141.9901c.0109.0219.0076.046-.0219.0603-.0241.0131-.0471.012-.0613-.0176-.0142-.0263.0066-.046.023-.0547.0164-.0088.046-.0153.0602.012" fill="#fbfdc0"/>
          <path d="M220.8741,141.7932c.324-.1828.1784-.5068.1784-.5068,0,0-.2156.1511-.3437.3043-.2025.3361-.2277.3634-.4094-.1018-.1401-.1707-.3415-.1904-.3415-.1904,0,0-.0317.1806.0799.3678.4061.2715.185.3984-.1992.4553-.1926.0296-.312.2025-.312.2025,0,0,.2211.1402.3076.0219.4641-.2364.6458-.3558.3667.2266-.0438.1346.116.4356.116.4356,0,0,.1806-.1521.1839-.3721.0099-.5627.1073-.5178.474-.2277.1379.1324.3711.0492.3711.0492,0,0-.0394-.2014-.174-.278-.4149-.081-.7104-.1183-.2977-.3864M220.5687,142.1676c-.1741.0887-.2474-.0164-.2791-.0591-.0525-.0689,0-.1785.0832-.2211.1215-.0624.2058-.0317.243.0361.0252.0449.0799.1784-.0471.2441" fill="#ffff82"/>
          <path d="M220.6007,144.299c.2638.0219.4291-.1466.4291-.1466,0,0-.1281-.1445-.3251-.2332.359-.1259.1981-.3119-.1007-.289.2835-.1807.1587-.5178-.2321-.2386.1182-.2594.0296-.5046.0296-.5046,0,0-.2277.0657-.3831.2999.081-.3623-.2069-.3546-.3141-.1084-.0788-.3294-.4904-.1434-.3262.1336-.1642-.2769-.4105-.2485-.4105-.2485,0,0-.0394.3349.1467.3678-.3032-.0011-.4072.3141-.1675.3262-.2233.1018-.127.266.0646.2857-.1806.0241-.3952.3218-.3952.3218,0,0,.278.1237.5364.0044-.2879.2233-.0186.5243.1959.3404-.0766.2584.2507.312.3339.0821-.0755.2354.1511.4597.1511.4597,0,0,.2124-.1598.2255-.3579.0744.1423.4433.0132.3393-.1828.1839.139.4346-.1106.2025-.312M219.795,144.0286c-.0985-.0657-.15-.2079-.0876-.3021.0591-.0898.1522-.0898.2507-.0142.0865.0645.1478.1237.1073.2364-.0383.1073-.1861.1358-.2703.0799" fill="#fff"/>
          <path d="M219.9242,143.8579c-.0197.0252-.0493.0339-.0832.0088-.0274-.0208-.0394-.0482-.0142-.0821.023-.0296.058-.0186.0777-.0044.0186.0154.0438.046.0197.0777" fill="#fbfdc0"/>
          <path d="M220.3755,144.2073c.3952.2737.6885-.0777.6885-.0777,0,0-.2966-.1653-.5462-.2266-.5046-.047-.5495-.0613-.1117-.5342.1193-.2584.0296-.5036.0296-.5036,0,0-.2266.0646-.3831.2988-.0865.625-.3579.4401-.6403.0252-.1423-.2069-.4094-.2485-.4094-.2485,0,0-.0394.3361.1456.3689.5353.4061.7772.5506-.0558.5539-.1806.0241-.4411.3798-.4411.3798,0,0,.278.1237.5353.0033.659-.3043.6623-.1664.5298.4236-.0755.2342.1521.4587.1521.4587,0,0,.2124-.1587.2255-.358-.1401-.5276-.2616-.8921.2813-.5637M219.7691,144.0628c-.2014-.1521-.1193-.2977-.0887-.3568.0514-.1007.208-.1007.3032-.0285.1412.1073.1533.2211.0952.3021-.0383.0548-.162.1949-.3098.0832" fill="#ffff82"/>
          <path d="M222.5978,143.4075c.2408-.1095.3021-.3372.3021-.3372,0,0-.1817-.0645-.3963-.046.2518-.2857.0208-.3689-.2299-.2025.1598-.2966-.1127-.5287-.3185-.0952-.023-.2835-.22-.4554-.22-.4554,0,0-.1675.1686-.1883.4488-.1062-.3557-.3536-.208-.3273.0591-.2288-.2495-.4981.1128-.22.2748-.278-.162-.4783-.0164-.4783-.0164,0,0,.1291.3119.3076.2495-.266.1478-.2025.4729.0121.3667-.1456.1981.0186.2944.1959.2178-.1456.1084-.1872.474-.1872.474,0,0,.3021-.0274.4685-.2584-.1423.3361.2397.4674.3382.2014.0591.2638.37.1511.3317-.0909.0482.243.3557.3273.3557.3273,0,0,.1073-.2431.0219-.4226.1346.0887.394-.2046.208-.324.2277.0317.3251-.3098.0241-.3711M221.7626,143.564c-.1182-.0088-.2321-.1084-.2244-.2211.0076-.1073.0898-.1521.2124-.1346.1073.0142.1894.0361.2091.1532.0197.1128-.0963.2102-.197.2025" fill="#fff"/>
          <path d="M221.792,143.3519c-.0044.0307-.0263.0536-.0679.0482-.035-.0055-.058-.023-.0525-.0645.0055-.0372.0416-.0449.0657-.0416.023.0044.0602.0186.0548.058" fill="#fbfdc0"/>
          <path d="M222.3564,143.4369c.4784.046.5637-.4039.5637-.4039,0,0-.3393,0-.5878.0689-.463.2047-.5101.2146-.3579-.4116-.0219-.2846-.22-.4554-.22-.4554,0,0-.1664.1686-.1883.4488.2288.5878-.0985.5583-.5473.3349-.2244-.1127-.4784-.0175-.4784-.0175,0,0,.1292.312.3076.2507.6644.0931.9458.1007.2211.5101-.1467.1094-.2003.5473-.2003.5473,0,0,.3032-.0285.4696-.2584.4258-.5867.4959-.4674.6688.1106.0482.243.3558.3273.3558.3273,0,0,.1084-.2419.0219-.4225-.3787-.393-.6622-.6513-.0285-.6294M221.7566,143.6065c-.2496-.0339-.2496-.2014-.2518-.2682-.0044-.1127.1336-.1893.2518-.1729.1751.0241.2408.1182.2299.2178-.0066.0668-.0471.2485-.2299.2233" fill="#ffff82"/>
        </g>
        <g>
          <path d="M29.4875,145.1688c.3919-.07.7969-.0788,1.1745-.2025.4411-.1456.8177-.44,1.1515-.7618,1.0257-.9873,1.7372-2.2867,2.0623-3.6724.1248-.5342.1938-1.0914.0876-1.6288-.1379-.6972-.5615-1.3135-.6852-2.013-.0777-.4357-.046-.9194-.3065-1.2763-.2813-.3842-.8396-.5211-1.0476-.949-.1554-.3175-.0679-.6973-.1379-1.0432-.1828-.902-1.2741-1.2315-1.9594-1.8456-.3525-.3163-.6086-.7279-.9666-1.0377-.6217-.5396-1.4766-.7093-2.2954-.7914-.4597-.046-.96-.0843-1.3059-.3919-.1981-.1762-.3218-.4214-.5101-.6075-.2507-.2463-.5955-.3689-.9304-.4729-1.3343-.4148-2.7223-.66-4.118-.7246.6108-.0186,1.0432.5933,1.2512,1.168.3076.8527.3853,1.7875.2233,2.6807-.1357.7455-.4357,1.4657-.4543,2.2232-.0142.6108.1565,1.2139.1478,1.8247-.0208,1.3278-.8856,2.6293-.5298,3.9089.1095.3908.3262.7411.4762,1.1176.3153.7882.3317,1.6649.601,2.4684.2693.8035.9425,1.5927,1.7897,1.5467.1489-.0077.2988-.0427.4477-.0252.2321.0285.4291.1773.625.3065,1.0344.6863,2.3534.9282,3.5641.6545.555-.1259,1.0848-.3546,1.6452-.4554" fill="#27330e"/>
          <path d="M30.4795,140.2162c-1.92,5.2805-5.2783,10.029-9.6152,13.5996.1905.1533.4663.1905.6918.0953,2.5319-1.0771,4.0873-3.6791,5.9186-5.7325,1.7711-1.9845,3.4229-4.2198,3.9363-6.8294.0285-.1456.0525-.2966.0186-.44-.0952-.3941-.5561-.601-.9501-.693" fill="#27330e"/>
          <path d="M30.5708,143.345c-.3755.2595-.7367.5517-1.0027.9228-.2671.3733-.4291.821-.4619,1.2786.4357-.115.8877.0689,1.3354.1106.8232.0777,1.6704-.3722,2.0667-1.0968.2529-.4619.2945-1.1066-.0974-1.4581-.2485-.2233-.6185-.2725-.9458-.2003-.3262.0734-.6196.2529-.8943.4433" fill="#27330e"/>
          <path d="M31.7425,146.2975c-.1576-.428-.5331-.7564-.9633-.9074s-.9085-.1346-1.3453-.0065c.3098.2879.7608.3459,1.18.4093.4182.0624.8735.1664,1.1286.5046" fill="#27330e"/>
          <path d="M30.2586,145.6676c.0536.4291-.1051.879-.4149,1.1811.1642-.2726.2102-.613.1259-.9184-.046-.1675-.1303-.3306-.1182-.5036.0109-.173.1795-.3514.3404-.2868-.0099.1774.0449.3514.0668.5276" fill="#27330e"/>
          <path d="M33.8632,137.8477c.5068-.4783,1.064-.9172,1.7021-1.1975.6382-.2813,1.3661-.3963,2.0404-.2189.4926.1302.9326.4061,1.342.7104.3842.2857.7476.5988,1.1099.9107.0525.046.1073.0941.1335.1587.0274.0701.0164.15.0044.2244-.1237.7761-.3262,1.5938-.8976,2.1345-.486.4608-1.1669.648-1.8269.7684-.7728.1412-1.5577.2135-2.3436.2135-.3218.0011-.6568-.0142-.9425-.1631-.509-.266-.7203-.8713-.8768-1.4241-.1073-.3765-.2102-.7761-.1149-1.1559.0974-.3842.382-.6896.6699-.9611" fill="#fff232"/>
          <path d="M30.2333,137.835c.2277.4762.7684.7148,1.2851.821.752.1565,1.5763.104,2.2287-.301.5156-.3196.8812-.8275,1.2336-1.3234.3415-.4806.6907-.9764.8407-1.5478.2233-.8462-.0328-1.7766-.5594-2.4761-.2769-.3667-.6239-.6819-.8549-1.0793-.2463.2923-.6995.2321-1.0804.2058-.5878-.0416-1.1931.0624-1.7098.3469-.5167.2835-.9381.7542-1.1143,1.3168-.2156.6841-.0613,1.4274-.1631,2.1378-.0919.6393-.3842,1.3158-.1062,1.8992" fill="#ffe626"/>
          <path d="M34.6799,147.0343c-.3459.0778-.7214.1522-1.0454.0099-.2605-.1149-.4444-.3503-.6119-.5802-.3678-.5035-.7159-1.0201-1.0432-1.5489-.174-.2835-.3448-.5736-.4368-.8932-.2036-.7104.0153-1.4942.4444-2.0962.3558-.4991.8932-.9118,1.5051-.9402.6031-.0285,1.1647.3174,1.6003.7344.4367.417.7914.9162,1.2457,1.3125.2627.2288.5626.4302.7356.7322.2069.3624.1948.8067.1368,1.2206-.0471.3361-.1204.6688-.2178.9939-.0515.1708-.1138.3448-.2408.4707-.1543.1522-.3776.2058-.59.254-.4937.1094-.9884.22-1.4821.3305" fill="#ffe626"/>
          <path d="M28.1236,134.856c-.3886.2595-.7772.5178-1.1658.7772-.197.1313-.3995.2671-.5331.4631-.2846.4148-.1883.9709-.2704,1.4668-.0788.4773-.3317.9271-.3153,1.411.0109.3174.139.6239.3218.8834.521.7378,1.5161,1.1044,2.3907.879.1303-.0328.2605-.0777.3941-.0645.3733.0372.5791.4969.9468.5714.254.0514.5134-.1084.6546-.3251s.1883-.4805.2222-.7378c.1357-1.0344.0832-2.1772-.5725-2.9894-.2189-.2715-.4981-.4937-.6874-.7871-.1609-.2506-.2507-.5396-.393-.8013-.162-.2966-.3941-.5549-.6721-.7487-.0482-.0329-.1007-.0657-.1587-.0646-.0602,0-.1127.0339-.162.0667" fill="#fff232"/>
          <path d="M31.9466,141.8188c-.092-.2342-.5517-.336-.7389-.5046-.6338-.5746-1.5314-.8538-2.3764-.7191-.6863.1095-1.3267.4882-1.7547,1.0366-.0832.1072-.162.2288-.1708.3656-.0197.3186.3218.5211.5101.7783.4072.5572.0843,1.3989.4346,1.9922.1565.2671.4291.4434.7027.5889.5167.2747,1.1745.4674,1.6649.1477.278-.1817.5922-.3404.7422-.636.1664-.3284.3131-.6447.4794-.9731.2879-.5681.74-1.4832.5068-2.0765" fill="#fff232"/>
          <path d="M32.7202,135.7469c-.1522.9644.22,1.9944.9523,2.6391.7323.6459,1.8018.8834,2.7387.6108-.4433.1062-.8702.2922-1.2347.5659-.5725.4291-.9775,1.0749-1.1154,1.7766-.1379.7028-.0055,1.4537.3623,2.0667-.4784-.6896-1.2446-1.1701-2.071-1.3135-.8275-.1423-1.7054.0514-2.4016.521.4499-.7224.5572-1.6496.2813-2.4552-.2747-.8057-.9271-1.4734-1.7251-1.7678.7991.1718,1.6737.185,2.3939-.2014.9118-.4893,1.3956-1.4985,1.8193-2.4421" fill="#dee9f2"/>
          <path d="M30.8512,139.1793c.0722-.058.1598-.0908.2496-.116.2791-.0766.5834-.0744.8527.0339.2682.1072.4959.3251.5922.5988.1182.3393.0263.7214-.1522,1.0333-.1215.2135-.289.4094-.5112.5145-.2233.104-.5057.1018-.6984-.0514-.0624-.0504-.1127-.1128-.162-.174-.2419-.3021-.4948-.6437-.4762-1.0301.0055-.1106.0339-.2189.0624-.3273.046-.1773.1007-.3667.243-.4816" fill="#ccdeec"/>
          <path d="M23.0463,152.9191c-.0854-.4641.1248-.9249.3317-1.3496.289-.5922.5834-1.1866.972-1.7186,1.5697-2.1542,4.604-2.9861,7.1632-2.2396,2.5592.7455,4.5854,2.8843,5.5311,5.3768-.6491-.8976-3.656-.5725-5.5158-.2288-.9217.1697-1.8663.3415-2.7387.6841-1.0891.4259-2.2527.6634-3.4218.6962-.9545.0285-2.1487-.2803-2.3217-1.2206" fill="#12491d"/>
          <path d="M20.7958,148.6426s-2.1192-.1302-2.5373-.8078c-.4171-.6776-.3536-.9983-1.2085-1.342-.8538-.3437-.6042.3777-1.5051-.7509-.902-1.1275-1.2304-1.1625-1.2118-2.4837.0175-1.3202.2113-1.1395.2901-1.8259.0788-.6852-.0832-.764.289-1.6102.3722-.8462.44-.764.891-1.7721.4499-1.0082.8538-1.2293,1.3978-1.7164.5451-.487,1.1505-.9337,1.3913-1.3026.2386-.3667.2277-.3284.7192.104.3295.2912.6568.5943,1.2851.8713.6272.2769,1.2752.5911,1.7996,1.1143.5232.5243.7301.5549,1.0826,1.2435.3525.6896.7126,1.3508,1.18,1.8575.4674.508.6031.3623.8429,1.3267.2408.9654.5276,1.666.5068,2.3688-.0219.7027.6787.416-.289,1.6102-.9676,1.1953-1.1296,1.6408-2.2396,2.2702s-2.1728,1.0103-2.4859.9031c-.0821-.0274-.1839-.0526-.1839-.0526" fill="#ce2a85"/>
          <path d="M16.8031,151.1882s-.5966.8352-1.6835.6469c-1.0881-.1871-2.869-.4039-3.3539-1.2938-.486-.8888-.648-.937-.9282-2.0743-.2813-1.1362-.1193-1.0891-.3711-1.4263,0,0,.8111-.069,1.1318-.4138.3218-.3459,1.3278-.1817,2.1597-.7717.833-.59,2.5428-.1303,3.0595.5046.5156.6348,1.527.9326,1.7667,1.3102.2408.3787.8089.2376.6622,1.3365-.1478,1.099-.8834,1.8062-1.4296,2.1717-.5473.3667-.74-.173-1.0136.0098" fill="#ce2a85"/>
          <path d="M22.8374,153.1831s.0109.0099.0295.0274c.0646.0613.2146.2091.2507.3032.0471.1193-.1872.1281-.243.0723-.0044-.0044-.0077-.0088-.012-.0132-.278-.3229-.6907-.4882-.6907-.4882l-.6163-.4455-.7816-.405.2397-.2157c.3842.1127.7312.5002,1.0191.7169s.775.4259.775.4259l.0296.0218Z" fill="#12491d"/>
          <path d="M21.4115,147.8537c-.0252-.4083-.0963-.6436-.2605-1.1307-.1642-.4882-.1051-.3163-.2737-.937-.1686-.6217-.2747-.7838-.5637-1.2205s-.4422-.4379-.6327-.9108c-.1905-.474-.0865-.7509-.5123-1.0957s-.44-.3711-.5495-.4466c0,0-.1357-.8089-.6097-.6185-.4729.1894.0285.7991.1664.9272s.1084.2298.174.3809.3886.6196.6973.8418c.3076.2222.4324.5451.5167.8549.0854.3109.0197.5331.2441,1.0388.2255.5046.3295.821.5189,1.0749.1894.2529.3273.382.3755.8133.0493.4313.0328.7126.2923.8768s.4477.0438.4171-.4488" fill="#9d0365"/>
          <path d="M20.1699,148.4828s-.521-.0218-.683-.4422c-.1609-.4214-.2156-.4597-.3744-.9665-.1587-.5079-.1116-.5166-.44-1.1187s-.3656-.7006-.717-1.2216c-.3525-.5199-.2682-.5834-.5265-.9009-.2572-.3174-.5386-.3339-.5473-.601-.0098-.266.0394-.3612.3163-.4783.2758-.116.6108.3119.6612.59.0493.2791.1434.4816.255.625.1117.1423.2879.59.3984.8856.1106.2966.2507.6447.474.9304.2233.2857.5791.7191.7991,1.0914.22.3721.4116.3186.5123.7224.1018.4029.3109.6623-.0591.949" fill="#bf1177"/>
          <path d="M9.4887,145.1474c.1313.5167.4324,1.4887,1.1789,2.2353s.9414.6009,1.6835,1.4635,1.6846.4028,2.6041,1.2588c.9195.856,1.0257.5943,1.7437,1.0398.7192.4456.4685.8987.8921,1.0531.4225.1533,0-.4981.3076-.8472.3076-.3481,1.1132-.6973,1.5379-1.7438s-.1204-.8856-.1872-1.2566c-.0668-.3711-.0066-.1773-.2124-.4717-.2069-.2956-.7695-.8713-1.261-1.191-.4915-.3208-1.0596-1.2786-1.3114-1.6157-.2529-.3383-.7586-.8089-.9151-.972-.1576-.1631-.8253-1.18-1.0465-1.4208-.2222-.2409-.5276-.5615-.7017-.7038-.7192-.5933-1.4143-1.3672-4.1213-1.4088,0,0-.3809.6382-.3831,1.6825-.0033,1.18-.1259,1.6452.1916,2.8985" fill="#ce2a85"/>
          <path d="M21.1332,148.6505c-.0766-.0405-.3864-.1795-.5604-.5604-.173-.3798-.208-.4127-.336-1.0213-.1292-.6086-.0197-.5331-.1872-.9337-.1675-.4006-.0887-.4433-.3065-.7487-.2178-.3065-.2605-.3842-.3766-.8133-.1149-.4302.0109-.2605-.1806-.5813-.1916-.3196-.3328-.3612-.2704-.6502.0635-.289.1817-.1664.2594-.2091.0788-.0427.0744-.1762.2934-.0241.2189.1522.3131.2025.3973.6656.0832.4641.046.3656.1828.6469.1368.2824.1325.5221.2616.9786.1292.4554.3853,1.0793.5462,1.2807.1598.2004.4422.8111.555,1.1735.1127.3623.0504.6513.0088.7936-.0416.1412-.1916.0536-.2868.0033" fill="#bf1177"/>
          <path d="M15.9019,149.6825c.0306-.0832.2572-.7739,1.238-.9249.9819-.15,3.679-.5583,4.361-.8844.682-.3273,1.0355-.6327,1.469-.7104,0,0,.1073.0317.2441-.6316.1357-.6622-.0974-1.4635.5101-2.1345.6075-.671.4444-.5134.8954-.5561.4521-.0438.8002-.0295,1.1789.3755.3787.4039.5878.7881.9994,1.0847.4105.2966.7892.7006.6447,1.3902-.1445.6896-.3021,1.7273-.7925,2.198-.4904.4707-.1916.8516-.2857.971-.093.1182-.5353-.5682-1.3234-.4773-.7881.0898-.6097.3765-1.5051.4357-.8965.0591-1.0169-.3284-1.3705-.0219-.3536.3065-.5276-.0963-.5407.544-.012.6404.2113,1.6726-.4368,2.1849-.6491.5122-.8779.5921-1.1877.8516-.3109.2606-.844.7772-1.9605.3908-.8067-.4423-1.5905-.9665-1.6715-1.4876-.081-.5221-.4422-1.1844-.4729-1.7799-.0296-.5943-.1314-.4477.0066-.8177" fill="#c01480"/>
          <path d="M17.1402,148.758c.9819-.151,3.679-.5582,4.361-.8855.682-.3262,1.0355-.6327,1.4679-.7104,0,0,.1084.0317.2441-.6306.1368-.6633-.0963-1.4635.5112-2.1345.6064-.671.4433-.5145.8954-.5572,0,0-.7115-.7651-2.9139,3.0387,0,0-1.2993.2332-1.7766.5615,0,0-.9228.5484-1.4252.6644,0,0-1.0957.4389-1.3639.6535" fill="#d2368b"/>
          <path d="M22.9764,153.6399c.2966.3076.5068,1.0016.6546,1.457.15.4608.2299.6381.4269.9381l.4543-.3503s-.4663-.7301-.6907-1.2347c-.2244-.5058-.4576-.6841-.5659-1.2873s-.3163-1.3891-.6962-2.1159-.382-.7936-.5167-1.0082c-.1335-.2157-.2091-.6327-.3623-1.007-.1532-.3755.0383-.8024-.0843-1.0574-.1226-.2562-.1204-.1894-.139.0241,0,0,.127.3897-.1215.7115,0,0,.0066.2003.0788.3306.0711.1313.2945.417.3328.7356.0383.3186.0876.2233-.0033.4597-.0919.2364.1883.2539.3196.5561.1303.3021.74,1.2939.8472,2.4236,0,0-.0416.313.0657.4246" fill="#12491d"/>
          <path d="M17.6422,141.8336c-.1719-.0065-.1379.2945-.0131.2978-.1335.0766-.173.2791-.173.2791,0,0,.2332.0821.3711-.0492-.1325.1357.0153.3459.1697.2046-.0558.2113.2452.2988.3043.0219.0033.22.1828.3733.1828.3733,0,0,.1368-.2507.0919-.3853.0788.1281.2255.139.2211-.0514.0887.1642.2737-.0154.1708-.2266.0854.1193.3065-.0218.3065-.0218,0,0-.0624-.1807-.3109-.2014.2485.0208.2386-.3295-.0175-.2726.1357-.1587.0438-.3623-.1817-.1828.1116-.1883.0799-.3689.0799-.3689,0,0-.2014.0208-.3415.1905.0624-.3667-.2145-.3405-.2452-.081-.0854-.2167-.2682-.2671-.2353.0263-.1292-.1072-.2726-.1466-.2726-.1466,0,0-.0624.1718.0416.3481-.2178-.0941-.3076.1653-.1489.2463M18.2169,141.8424c.0646-.0657.127-.0438.2014-.0043.0854.0427.1171.1084.0744.1795-.0449.0755-.162.0876-.2408.0405-.0679-.0394-.0974-.1533-.035-.2157" fill="#fff"/>
          <path d="M18.3278,141.9106c-.0109.0219-.0077.046.0219.0603.0241.0131.0471.012.0613-.0176.0142-.0251-.0066-.046-.023-.0547-.0164-.0088-.046-.0153-.0602.012" fill="#fbfdc0"/>
          <path d="M17.6342,142.0997c-.1357.0766-.174.2791-.174.2791,0,0,.2321.0832.3711-.0492.3667-.2912.4641-.335.474.2266.0033.2201.1828.3733.1828.3733,0,0,.1609-.3021.116-.4367-.278-.5823-.0963-.4619.3678-.2255.0854.1183.3065-.023.3065-.023,0,0-.1193-.173-.312-.2014-.3842-.0569-.6053-.1839-.1981-.4553.1106-.1883.0799-.3689.0799-.3689,0,0-.2014.0197-.3426.1905-.1806.4652-.2069.4389-.4094.1029-.127-.1543-.3426-.3054-.3426-.3054,0,0-.1456.324.1784.5068.4127.2682.1171.3065-.2977.3864M18.1903,141.8435c.0372-.0678.1204-.0985.243-.035.0832.0416.1357.1511.0832.2211-.0317.0416-.1062.1478-.2791.058-.1281-.0657-.0722-.1981-.0471-.2441" fill="#ffff82"/>
          <path d="M18.4074,144.5322c-.104.1949.2649.3251.3393.1817.0131.1981.2255.358.2255.358,0,0,.2277-.2244.1511-.4598.0843.2299.4105.1773.3339-.0821.2145.1839.4849-.1171.197-.3404.2572.1204.5353-.0033.5353-.0033,0,0-.2145-.2988-.3952-.3218.1927-.0208.2879-.185.0646-.2868.2397-.0109.1357-.3262-.1675-.3251.1861-.0328.1467-.3689.1467-.3689,0,0-.2463-.0285-.4094.2485.1631-.2769-.2485-.463-.3262-.1324-.1073-.2474-.3963-.2551-.3152.1072-.1554-.2342-.3831-.2999-.3831-.2999,0,0-.0887.2463.0306.5046-.3919-.278-.5167.058-.2332.2386-.2988-.023-.4597.1631-.1007.289-.197.0887-.324.2332-.324.2332,0,0,.1653.1686.428.1478-.2321.2003.0197.4499.2025.3119M18.7401,143.8688c-.0405-.1116.0208-.1707.1073-.2364.0985-.0756.1926-.0756.2507.0142.0624.0952.0109.2364-.0876.3021-.0843.0569-.2321.0273-.2704-.08" fill="#fff"/>
          <path d="M18.8816,143.7783c.0197.0252.0493.0339.0832.0088.0274-.0208.0394-.0482.0142-.0821-.023-.0296-.058-.0186-.0777-.0044-.0186.0154-.0438.046-.0197.0777" fill="#fbfdc0"/>
          <path d="M18.7123,144.6907c.0131.1992.2255.359.2255.359,0,0,.2277-.2244.1511-.4598-.1313-.5889-.1281-.7268.5298-.4225.2583.1193.5364-.0043.5364-.0043,0,0-.2605-.3558-.4422-.3799-.833-.0033-.5911-.1466-.0558-.5528.185-.0339.1467-.3689.1467-.3689,0,0-.2682.0405-.4105.2485-.2813.4138-.5528.5999-.6404-.0252-.1554-.2342-.3831-.2999-.3831-.2999,0,0-.0898.2452.0296.5046.4389.4729.393.4871-.1116.5331-.2496.0624-.5462.2277-.5462.2277,0,0,.2945.3514.6885.0777.544-.3284.4214.0361.2824.5627M18.7266,143.9003c-.058-.081-.046-.1959.0952-.3021.0952-.0723.2518-.0723.3032.0273.0317.0602.1127.2058-.0887.358-.1478.1105-.2715-.0285-.3098-.0832" fill="#ffff82"/>
          <path d="M16.232,143.6984c-.1861.1205.0733.4138.208.3251-.0854.1795.0219.4226.0219.4226,0,0,.3076-.0854.3558-.3273-.0383.2408.2726.3546.3317.0909.0985.2649.4805.1336.3382-.2014.1664.2299.4685.2584.4685.2584,0,0-.0416-.3657-.1872-.474.1773.0756.3415-.0208.1959-.2178.2145.1062.278-.22.012-.3667.1784.0624.3076-.2507.3076-.2507,0,0-.2003-.1444-.4783.0176.278-.162.0088-.5255-.22-.2748.0274-.2682-.2211-.4148-.3273-.0591-.0208-.2802-.1883-.4488-.1883-.4488,0,0-.197.1708-.22.4554-.2058-.4346-.4784-.2014-.3185.0941-.2507-.1653-.4816-.0821-.2299.2036-.2145-.0186-.3963.0449-.3963.0449,0,0,.0613.2277.3021.3383-.301.0613-.2036.4017.0241.3699M16.8461,143.2824c.0197-.1171.1018-.139.2091-.1543.1226-.0175.2047.0285.2124.1347.0077.1138-.1062.2123-.2244.2222-.1007.0076-.2156-.0898-.197-.2026" fill="#fff"/>
          <path d="M17.0138,143.2725c.0044.0307.0263.0536.0679.0482.035-.0055.058-.023.0525-.0645-.0055-.0372-.0416-.0449-.0657-.0416-.023.0044-.0602.0186-.0547.058" fill="#fbfdc0"/>
          <path d="M16.4204,143.9864c-.0854.1806.0219.4225.0219.4225,0,0,.3076-.0842.3557-.3262.173-.579.243-.6984.6699-.1116.1664.231.4696.2583.4696.2583,0,0-.0536-.4378-.2003-.5473-.7257-.4083-.4444-.416.2211-.5101.1773.0613.3076-.2507.3076-.2507,0,0-.254-.0941-.4794.0176-.4477.2243-.7761.2539-.5462-.3339-.0219-.2813-.1894-.4488-.1894-.4488,0,0-.197.1697-.22.4542.1522.6261.1062.6163-.3568.4116-.2485-.0679-.5878-.0679-.5878-.0679,0,0,.0854.4499.5626.4028.6349-.0218.3503.2376-.0285.6294M16.8189,143.3033c-.0109-.0985.0547-.1926.231-.2178.1182-.0164.255.0602.2507.173-.0022.0667-.0022.2342-.2518.2682-.1828.0252-.2233-.1565-.2299-.2233" fill="#ffff82"/>
        </g>
      </g>
      <path d="M119.9832,44.7941c-40.756,0-75.188,49.8252-75.188,108.8018,0,59.2925,34.432,109.3838,75.188,109.3838s75.2217-50.0913,75.2217-109.3838c0-58.9766-34.447-108.8018-75.2217-108.8018Z" fill="#34b3d1"/>
      <path d="M119.9832,42.7545c-41.8619,0-77.2276,50.7594-77.2276,110.8413,0,60.3978,35.3658,111.4234,77.2276,111.4234s77.2613-51.0256,77.2613-111.4234c0-60.0819-35.3813-110.8413-77.2613-110.8413ZM119.9832,262.9796c-40.756,0-75.188-50.0913-75.188-109.3838,0-58.9766,34.432-108.8018,75.188-108.8018s75.2217,49.8252,75.2217,108.8018c0,59.2925-34.447,109.3838-75.2217,109.3838Z" fill="#fff"/>
      <g>
        <path d="M173.4755,96.8175c-1.6376,2.3765-15.6378,23.9121-25.8769,38.5767-3.9319,5.6516-15.9892,17.7876-23.1152,17.7876-1.966,0-3.2773-1.8838-3.2773-3.6867,0-4.2602,3.1153-8.93,5.5716-12.6166,1.064-1.6375,10.2413-14.4184,17.0389-25.7247,1.7207-2.7847,3.2773-6.1442,3.2773-9.2573,0-4.3424-4.0129-6.3904-7.8638-6.3904-10.9791,0-25.3975,10.5686-25.3975,22.3676,0,4.014,2.7847,6.8808,6.7998,6.8808,4.5055,0,8.1112-3.4415,10.4865-6.8808l-.8188-.1642c-2.0491,2.9489-5.9788,6.143-9.5845,6.143s-5.981-2.5395-5.981-6.143c0-11.5527,13.5164-21.3025,24.2503-21.3025,2.1279,0,4.2614,1.3114,4.2614,3.6878,0,4.6686-3.3605,9.6678-5.9011,13.3534-8.2195,11.9927-12.7086,18.8045-15.1562,22.6587-7.5025,9.2737-17.0805,16.5026-25.7751,16.5026-5.4655,0-12.5433-2.8942-12.5433-9.3273,0-1.3475.2737-2.1313,1.0432-3.2434.2014-.2912.474-.5495.7411-.913.046-.0613.0963-.1215.1445-.1861.3492.4116.5046.7618.7356,1.0377.9556,1.122,1.8324,1.191,3.4448,1.2129,2.5735.0328,4.3457-2.4115,4.3457-4.9849,0-2.7355-2.8964-5.1458-5.3089-5.1458-4.986,0-8.2031,5.6264-8.2031,9.9709,0,8.6847,8.0422,13.188,15.7626,13.188,8.1046,0,14.8573-3.6342,20.7147-8.5413-.2638,1.0169-.428,2.0447-.428,3.0814,0,3.5225,2.8679,5.5705,6.2284,5.5705,2.5625,0,5.2093-.5451,7.577-1.5062,4.3665-1.7689,8.202-4.6697,11.7245-7.7455,1.2632-1.1044,2.5997-2.1126,3.8279-3.2587.2222-.208.4444-.4182.6611-.6316,2.6972-2.6107,5.0889-5.518,7.4566-8.4231,6.675-8.19,12.0529-16.519,17.7843-25.3767,1.4274-2.2013,2.8493-4.4048,4.2646-6.6137.2485-.3875,2.0842-3.956,2.4936-3.956h-5.4052Z" fill="#fff"/>
        <path d="M81.7269,183.9651c2.8011,5.993,4.2625,11.3063,4.5153,16.5715.3908,9.3624-3.4645,16.8802-9.5178,18.5342-2.5122.6863-5.7435-.6852-6.976-2.9007-2.5417-4.5635-3.0759-12.8345-1.1866-20.417,1.3672-5.6329,3.9374-11.2199,7.7893-17.0094-3.6331-4.7912-9.1171-7.1227-13.8656-5.8245-8.0937,2.2133-10.7831,11.4421-5.9121,20.1783,1.1964,2.1509,2.788,4.0468,5.1929,6.2437l-.8626.7608c-3.0879-2.4607-5.1217-4.7594-6.7177-7.6274-5.1228-9.197-2.105-18.2124,6.9235-20.6818,5.5859-1.527,11.3304.5079,16.1993,5.7895,2.3206-2.9642,6.5272-5.6198,10.7142-6.7626,5.8628-1.6036,11.5012.2364,13.8634,4.4738,2.3611,4.2395,2.2111,9.1642-.44,18.0799l-.5178,1.5686.3514.0558c1.6058-4.0479,2.7267-6.0817,4.3643-8.3345l4.1519-5.6428c6.0347-8.0378,6.8972-13.6073,3.0835-20.4552-2.7989-5.0221-6.7057-7.4084-10.3343-6.4156-1.2096.3295-1.8849,1.0399-1.5587,1.6244l.9392.7225c1.122.671,1.5259,1.0103,1.8521,1.5981.7629,1.3672-.1642,2.9774-2.0261,3.4831-1.677.4587-3.4645-.2539-4.1902-1.5566-1.4898-2.6764.6984-6.0522,4.5164-7.0976,4.5591-1.2478,9.3656,1.7952,12.8181,7.9897,3.8509,6.9137,4.5657,13.7813,2.1509,20.2276-1.8017,4.8514-3.8487,7.1402-10.5073,11.7432-4.2833,2.8974-6.6498,5.1995-7.4894,7.1555-.1916.428-.4554.7268-.6404.7772-.093.0251-.3174.012-.4816-.0941-.1292-.0406-.2955-.1445-.2955-.1445-.1456-.2606-.0493-.6634.1062-1.157l1.1888-3.2543,1.5752-4.4912c.7312-2.1532,1.3256-5.321,1.4876-7.9196.1664-3.3529-.1576-5.668-1.2446-7.6252-1.6726-2.9993-4.5887-4.3796-7.3832-3.6167-3.1613.8647-7.0625,4.639-11.3184,11.0601l-.3174.3908ZM80.7275,185.4406c-2.5975,2.6633-4.9028,6.5984-7.9973,13.7562-3.2018,7.3373-3.7108,12.5882-1.5292,16.5015.9808,1.7591,3.2313,2.7223,5.1874,2.1882,3.1602-.8659,5.8705-4.0873,7.2256-8.5896,1.585-5.2432,1.4186-10.157-.3886-17.2534-.6929-2.5899-1.7021-5.1688-2.4979-6.6028" fill="#fff"/>
        <path d="M114.0268,221.3534c-7.4434,0-13.0129-2.4892-13.0129-5.7084,0-2.8012,3.4535-5.53,6.9114-5.53,1.8598,0,3.1897.9797,3.1897,2.3108,0,1.3989-1.4175,2.6599-3.1,2.6599-.6218,0-1.3322-.1412-1.9517-.4214l-1.1494-.4182-.798-.1412c-.8856,0-1.5084.7005-1.5084,1.5401,0,2.6599,4.8371,4.5197,11.3053,4.5197,1.6102.0931,3.4864-.1806,5.3823-.787,11.7267-3.7534,22.708-15.3138,29.8526-31.7057,6.1277-13.662,7.67-22.951,4.893-28.3683-1.9342-3.7787-6.3149-4.951-12.0025-3.1306-3.3353,1.0662-6.3433,2.776-9.2583,5.2848-1.0913.7334-4.6237,4.2997-4.6237,4.2997-1.9035,2.0218-3.4108,3.9965-5.4031,7.2869-4.0315,6.6838-6.3346,11.8198-7.785,17.5961-1.631,6.2471-1.5149,11.1871.2364,14.6099,1.3179,2.5659,4.3063,3.6845,7.3712,2.7038,4.3314-1.3847,9.0033-6.1989,12.0452-12.5641,2.2341-4.8634,3.1459-9.6404,2.1258-11.6359-.6207-1.2117-2.0152-1.6769-3.5477-1.1876-5.6877,1.8193-9.9326,8.9036-11.0196,18.4608l-1.1723-.0383c-.1784-2.6009.4214-5.529,1.8663-9.0602,2.1553-5.4217,5.7161-9.1313,10.0476-10.5171,2.7059-.8659,5.4797.2375,6.7188,2.6621,1.6419,3.2072,1.18,7.8385-1.2774,11.858-3.5269,6.0259-9.9096,11.3885-15.4189,13.1497-3.6987,1.1833-7.6263-.1324-9.1992-3.1996-1.9725-3.8487-2.0677-8.9606-.335-15.8228,1.6168-6.0762,4.0939-11.6829,8.0761-17.8511,2.024-3.2215,3.6933-5.4961,5.2575-7.16,0,0,3.5039-3.5651,4.7299-4.4989l1.0432-.833c3.5302-2.5395,5.692-3.6451,8.5786-4.57,4.8733-1.5566,8.7055-1.4548,12.2751.3886,2.6643,1.3048,5.0068,3.6265,6.2492,6.0489,4.7134,9.197,1.5828,22.1475-8.5414,35.5917-8.364,11.14-19.4865,19.7623-29.5921,22.9936-2.7749.8888-5.2848,1.2479-7.4588,1.1844" fill="#fff"/>
        <path d="M106.6439,159.5738c2.7825.1237,5.2268-.9118,7.5244-2.4377,1.7919-1.1833,3.3736-2.6675,4.9094-4.1551,1.3792-1.3114,2.7114-2.6261,4.002-3.9899l2.9927-3.2171c4.9499-5.241,11.9325-9.2846,19.3125-8.7055,3.1044.2452,8.6661,1.6726,8.3476,5.761-.1149,1.457-1.3486,2.7322-2.8997,2.6107-1.365-.1084-2.325-1.1274-2.2111-2.5384.1084-1.411,1.168-2.2736,2.5362-2.2604.1434.012.428-.0132.4466-.2485.0394-.4707-.6425-.8549-1.0038-1.0716-1.4132-.6776-2.8931-1.0783-4.4475-1.1986-2.6764-.2101-5.3013.671-7.542,2.151-2.1958,1.4362-4.06,3.5137-5.8639,5.4074-3.0989,3.3495-6.293,6.6936-9.9129,9.4367-4.1749,3.2226-9.9501,5.7019-15.3072,5.2826-.2375-.0175-.5156-.0897-.7487-.1084l-.1346-.7181Z" fill="#fff"/>
      </g>
      <g>
        <path d="M37.1525,108.1983c-.0219-.0048-.0476-.0118-1.4132-.3634-1.4784-.3806-4.5249-1.1657-10.8324-2.7895-.4741-.1267-.9738.1593-1.0914.6157-.1187.4554.1817.9439.6553,1.0674l10.6282,2.7505c-1.6275,1.612-2.712,2.8397-3.4079,3.8579l-7.0776-1.8311c-1.2731-.333-2.4228.3052-2.7344,1.5099-.2934,1.1385.4116,2.3084,1.5714,2.6077.5393.14,1.1352.0647,1.6312-.2106.5152-.2843.8782-.7477,1.0219-1.3041.0358-.1384.0588-.2769.0663-.4046l4.6751,1.2095c-.0428.1197-.0722.2314-.1026.3485-.3239,1.2534.1208,2.1048,1.2518,2.3982.3228.0834.6868.1272,1.0615.1272,1.256,0,2.6249-.4912,2.9172-1.6173.201-.7771-.2416-1.7862-1.3063-2.0626l-1.0845-.2811c1.1695-1.4784,2.4469-2.8349,3.9023-4.1455l-.0016-.0027c.2239-.1817.3196-.4784.256-.8001-.0668-.3378-.2966-.6045-.5863-.6799ZM32.1877,115.7474c.0241-.0925.0668-.1956.1117-.3047.0283-.0689.0577-.14.0828-.2101.6638.171,1.1256.2849,1.433.3602.4254.1042.6392.1571.6441.1865.0123.0604-.0251.1192-.1112.1748-.3944.256-1.7141.3346-2.0952.0604-.0764-.0551-.1042-.1181-.085-.1924l.0198-.0748ZM24.6488,113.7318c-.0935.3565-.4655.5703-.8322.4778-.3592-.093-.5858-.4687-.4955-.821.0861-.3324.3816-.4987.6622-.4987.0577,0,.1149.0069.1689.0208.3656.0946.5885.4629.4965.821Z" fill="#fff"/>
        <path d="M43.8908,89.7281l-6.8152-2.7542c-.6841-.2758-1.4175-.3137-2.24-.1176l-.3335-.5505c-.023-.031-.0379-.0588-.0513-.0834-.0171-.0305-.0315-.0572-.0545-.078-.2427-.3469-.6189-.6526-.9835-.8001-.69-.2785-1.2801-.1491-1.6516.0086-.527.2239-.9637.6601-1.1673,1.1668-.2138.5275-.2101,1.1288.0107,1.65.2218.5222.6478.9327,1.1999,1.1561.8525.3447,1.4848.0925,2.2839-.3009l.0529-.0214,4.3833,6.4603c-7.013-2.8338-7.8569-3.1861-7.8879-3.2021l-.016-.0091c-.5676-.2288-1.1807-.2165-1.7226.0347-.4976.2304-.8953.6414-1.092,1.1272-.2213.5478-.2138,1.1395.0208,1.6665.2298.5168.6531.9215,1.1919,1.139,1.1197.4506,2.3913-.0743,2.8349-1.1711.0363-.093.0631-.2266.0903-.3699l8.5507,3.456c.1245.0508.2448.0738.3576.0738.3736-.0005.6676-.2491.7942-.5617.1069-.2619.078-.5655-.0775-.814-.8846-1.3111-1.782-2.6297-2.6494-3.9049-.9931-1.4586-2.0193-2.9664-3.0343-4.4758.2165.0037.3244.047.5382.1336l6.8163,2.7553c.4468.1769.9744-.0449,1.1534-.4891.1705-.4212-.0641-.9466-.5024-1.124ZM31.8724,87.0365c.0567-.1422.1764-.2608.3282-.3255.1502-.0636.3148-.0684.4548-.0139.0053.0037.0107.0075.016.0107.1347.0855.2117.155.2288.2063l.4083.5965-.2491.1438-.0957.0433c-.295.1336-.4891.2229-.7531.116-.1545-.062-.2742-.178-.3373-.326-.0609-.1438-.0615-.3036-.0011-.4511ZM30.4581,94.4856c-.1406.3437-.542.5029-.8867.3651-.3447-.14-.5206-.542-.3848-.8782.1058-.2592.3592-.4164.6275-.4164.0866,0,.1742.016.2592.0502.3501.1427.5222.5366.3848.8792Z" fill="#fff"/>
        <path d="M51.2816,75.6862l-8.7351-4.9445v-.0005c-1.9669-1.1112-3.9627-.0583-4.8424,1.4955-1.0134,1.7905-.4511,3.9114.5553,5.2192l.0347.0454.0064-.0112c.1149.147.2801.2288.4639.2288h.0182c.217-.0064.4169-.1261.5211-.3121.1828-.3218.0909-.5035-.2138-1.1058l-.054-.1069c-.3661-.9182-.3132-2.3849.1138-3.1385.2758-.4885.7317-.8418,1.2507-.9696.4858-.1213.9813-.039,1.3993.2304l8.6255,4.882c.4174.2368.9663.0903,1.1999-.3191.1133-.201.1374-.4393.0673-.6702-.0673-.2229-.217-.4132-.411-.5227Z" fill="#fff"/>
        <path d="M59.672,61.37l-6.8633-5.1984c-.782-.5927-1.6879-.8386-2.6094-.7103-.9754.1347-1.8996.6938-2.5345,1.534-1.1401,1.5035-1.2486,3.5837-.2822,5.4298.0903.1652.279.2737.5046.2908.0198.0016.039.0021.0583.0021.2026,0,.3859-.0796.4885-.2149.1978-.2614.132-.4794.0315-.8097l-.0139-.0465c-.0989-.2881-.2298-.7344-.2234-1.2769.0176-.6478.1577-1.5762.7237-2.3218.3426-.4522.8113-.7547,1.3202-.8514.5217-.0999,1.0503.0294,1.4869.3602l5.1465,3.898c-.0893.0775-.1758.171-.2571.2785-.3747.4933-.5099,1.0973-.3816,1.7013.1122.5254.4222,1.0241.8295,1.3325.3993.3025.8611.4613,1.3271.4613.1112,0,.2223-.0086.3335-.0267.5366-.0882,1.0364-.3918,1.3699-.8322.7884-1.0422.3779-2.3683-.4548-2.9995ZM59.068,62.9826c.0214.1732-.0251.3512-.1288.4874v.0005c-.1064.1406-.2608.232-.4356.256-.1807.0267-.3656-.0224-.5152-.1358-.1384-.1053-.2341-.2662-.263-.4426-.0294-.1828.0139-.3624.1224-.5051.1299-.1716.3292-.2619.5323-.2619.1454,0,.2929.0465.4185.1411.1507.1144.2464.2774.2694.4602Z" fill="#fff"/>
        <path d="M41.2568,58.704c.0134.0005.0267.0011.0406.0011.3944,0,.8418-.3218.9557-.6964.2651-.9043.5933-1.5725,1.0326-2.1037,1.3212-1.5933,3.3218-2.3646,4.7526-1.8338.6195.2304.7777.0396,1.015-.2512l.0166-.0203c.5414-.6783-.0545-1.1732-.4901-1.5345-2.0743-1.7194-5.3347-2.3389-6.9873-.3431-1.0187,1.2288-1.3816,3.2908-1.0508,5.9659.124.6815.5008.8039.7151.8162ZM41.9982,54.9167c.1983-.6986.4554-1.2325.7841-1.6286.4773-.5767,1.1908-.8755,2.0594-.8755.2549,0,.5238.0257.8033.078-1.3442.4719-2.5703,1.287-3.6468,2.426Z" fill="#fff"/>
        <path d="M66.942,40.2579c-.5874-.6334-1.1983-.9781-1.8146-1.0246-.0476-.0032-.0957-.0053-.1432-.0053-.5607,0-1.1117.248-1.6403.7387-1.217,1.1299-.9113,2.1828-.3057,3.6618l2.4805,5.7543-4.1684-4.4913c-.8937-.9637-2.2053-1.0476-3.1171-.2026-.4153.3854-.6547.9108-.6745,1.48-.0203.5762.1897,1.1315.5911,1.5639.3944.4249.938.6724,1.5302.6959.0299.0011.0593.0016.0893.0016.5409,0,1.0588-.1951,1.4324-.542.0775-.0722.1871-.1903.263-.2961l6.262,6.7479c.2079.2234.4522.3169.6836.3169.2282,0,.4442-.0903.6002-.2352.2886-.2678.349-.6419.1668-1.0257l-4.6896-10.7768-.0144-.0374c-.1988-.5233-.356-.9364.0657-1.3282.5147-.4773.8776-.0839,1.0738.1267l7.4406,8.0162c.3282.3512.8995.3731,1.2507.047.1577-.1459.2491-.3522.2576-.5815.0086-.2421-.077-.4784-.2346-.6478l-7.385-7.9563ZM60.3892,46.3275c-.0091.1737-.0861.341-.2122.4575-.1229.1149-.2817.1769-.4484.1769h-.0246c-.1839-.0069-.3554-.0861-.4826-.2229-.1229-.132-.1897-.3137-.1828-.4987.0064-.1785.0802-.3415.2079-.4597.124-.1154.2817-.178.4474-.178.0086,0,.0166.0005.0246.0005.1828.0069.3592.0887.4848.2239.1288.139.1951.3164.186.5003Z" fill="#fff"/>
        <path d="M82.7077,27.5585c-.1149-.1951-.3153-.3431-.5494-.4057-.2341-.0641-.4789-.0342-.6702.0791-.1913.1128-.3319.3116-.3864.5452-.054.2314-.0187.4773.0973.6735l5.3769,9.1033c.3944.6681-.1368,1.4591-1.5366,2.2871-.7216.4254-1.325.6526-1.7948.6745-.4233.016-.7376-.1304-.9241-.4474l-1.6398-2.7729c-.5398-.9156-.326-1.8531.713-3.1331.2785-.318.2325-.7467.0641-1.03-.1277-.2175-.3116-.3624-.5323-.4201-.2191-.0572-.4623-.0208-.6654.0994-.4019.2373-.636.658-.8423,1.0294-.0641.1149-.1245.2239-.1881.325-.2881.1005-.6462.1074-.9872.016.0128-.0075.023-.0139.0278-.0171.4896-.2886.8365-.7595.976-1.3255s.054-1.1529-.2411-1.6521c-.3073-.5201-.7632-.8707-1.3186-1.0134-.5511-.1411-1.1459-.0561-1.6355.2341-.674.3982-1.0219.9562-1.0342,1.658-.0107.5821.2084,1.2571.651,2.0059.7066,1.1967,1.7558,1.8883,2.9578,1.9498-.0572.7061.1309,1.4313.5591,2.1572l1.6387,2.774c.4313.7301,1.0593,1.1844,1.8172,1.3127.1555.0267.3169.0401.4837.0401.8146-.0005,1.759-.3148,2.8157-.9391,1.0203-.6024,1.775-1.2918,2.1828-1.9931.5158-.8851.5029-1.798-.0369-2.712l-5.378-9.1028ZM76.7942,31.6976c.1048-.062.2202-.0909.3346-.0909.2336,0,.4629.1219.5911.3405.1924.3244.0898.7413-.2282.93-.1529.0909-.3335.116-.504.0711-.178-.046-.3276-.1593-.4217-.3196-.1887-.3196-.0844-.7461.2282-.9311Z" fill="#fff"/>
        <path d="M100.6845,23.2292c-.302-.9525-.9583-1.6916-1.8488-2.0824-.8226-.3613-1.813-.4046-2.7157-.1181-1.96.6205-2.9926,2.5575-3.146,4.201l-.0053.0556.0123-.0032c-.0171.1919.0529.3699.1962.496.1636.1432.3923.1919.5965.1272.3506-.1112.4067-.3057.5938-.9508l.0347-.1197c.3576-.922,1.3945-1.96,2.2197-2.2219.5356-.1689,1.1101-.1187,1.5762.1411.4367.2421.7445.6392.868,1.1203l2.9963,9.4491c.0668.2122.2223.3982.4265.5094.1336.0732.2779.1106.4212.1106.0839,0,.1673-.0128.248-.0385.2127-.0668.3891-.2181.4965-.4249.1112-.2138.1342-.4623.0641-.6815l-3.0343-9.5694Z" fill="#fff"/>
        <path d="M116.811,17.3103c-.0583,0-.1171.0016-.1753.0043-1.504.0759-2.7462.8103-3.6911,2.1818-.7563,1.0973-1.3079,2.5703-1.6398,4.378-.0738.4345-.0347.7301.1197.9038.1074.1208.2651.1748.4805.1662.4495-.0235.6259-.5457.8931-1.3367l.0401-.1187c.4303-1.34,1.3255-4.1284,3.7606-4.4597.0208-.0011.0417-.0016.0631-.0016,1.0123,0,2.3336.853,2.3966,1.8055l.0037.0764c-.6104-.3068-1.3571-.4981-1.7285-.4981-.0166,0-.0326.0005-.0476.0011-1.8274.0925-3.4453,2.8884-4.2379,5.619-.2849,1.0353-.6125,2.5212-.5543,3.7221.0673,1.3138,1.1283,2.0658,2.1518,2.0652.0347,0,.0689-.0005.1037-.0021,1.1828-.0609,2.0957-1.0839,2.0348-2.2812-.0588-1.1315-1.0545-2.0802-2.1572-2.0802-.0326,0-.0652.0005-.0983.0021l-.0128.0011c.5345-2.6633,1.9183-5.2128,2.8606-5.2604.0155-.0011.0315-.0016.0481-.0016.5633,0,1.2731.4874,1.7472,1.2053l.3683,7.2856c.0241.465.4254.8407.8872.8407.0139,0,.0278,0,.0417-.0005.4784-.0251.8477-.442.8231-.93l-.4928-9.7586c-.0941-1.8589-2.0059-3.5287-3.9883-3.5287ZM114.6405,30.3298c-.3549,0-.6526-.2854-.6708-.651-.0182-.3715.2731-.7007.6355-.7183.0107-.0005.0219-.0011.0331-.0011.3544,0,.6521.2854.6713.651.0182.3773-.2672.6996-.636.7183-.0112.0005-.0224.0011-.0331.0011Z" fill="#fff"/>
        <path d="M124.3301,8.4064h-.0091c-.3121,0-.6702.6205-1.0102,1.2555-.744,1.2721-1.8017,2.7472-3.4052,2.9247.116-.2512.1812-.5339.194-.8413.0412-1.1107-.8504-2.0829-1.9466-2.124-.023-.0005-.046-.0011-.0684-.0011-.4842,0-.9712.1935-1.3458.5366-.4116.3773-.6499.8931-.6713,1.4527-.0759,2.0481,2.0642,2.6767,3.3411,2.7259.046.0016.0914.0021.1368.0021,2.4415,0,4.1749-2.4453,4.6543-3.2069.2924-.4725.7002-1.728.7066-1.8627.0118-.3341.0294-.8381-.5762-.8616ZM117.6272,11.1942c.1251-.1165.2843-.1796.45-.1796.008,0,.0155,0,.0235.0005.418.0166.6563.3741.6446.7103-.015.3763-.3298.6751-.6948.6585-.1785-.0064-.3426-.0818-.4629-.2117-.1245-.1342-.1892-.3111-.1817-.4981.0059-.1791.0866-.3538.2213-.48Z" fill="#fff"/>
        <path d="M140.8355,20.0603c-.4538-.1069-.9418.2159-1.0503.6831l-2.3827,10.2995c-.0861.3736-.357.6147-.8055.7167-.4559.1053-1.0898.0641-1.8846-.1203-.8156-.1881-1.4094-.4399-1.7643-.7477-.3234-.2801-.4447-.604-.3618-.9626l.7258-3.1369c.2394-1.0364,1.0406-1.5687,2.6767-1.7798.4212-.0374.6836-.3784.7574-.6996.1304-.566-.2266-.961-.6467-1.0588-.4559-.1032-.9172.0385-1.3234.1657-.1251.039-.2432.0759-.3581.1053-.279-.1261-.543-.3693-.7269-.6702.0075.0016.0139.0032.0192.0043l.0139.0032c1.154.2683,2.3138-.4725,2.5864-1.6494.3057-1.3255-.5746-2.364-1.6024-2.6024-.7606-.1742-1.3971-.0118-1.8915.488-.4094.4148-.7157,1.0545-.9113,1.9012-.3137,1.3533-.031,2.5773.7964,3.4528-.5291.473-.8931,1.1283-1.0823,1.9471l-.7269,3.1385c-.1913.8263-.0497,1.5885.4105,2.2042.5564.7445,1.5687,1.2913,3.0091,1.6254.6259.1443,1.2127.217,1.743.217.4479,0,.8562-.0518,1.2127-.1555.984-.2865,1.604-.9562,1.8424-1.9904l2.3843-10.3c.108-.4677-.1999-.9712-.659-1.0781ZM134.8563,20.8759c-.0417.1823-.1491.3351-.3025.4308-.1507.0935-.3357.1245-.5046.0861-.3608-.0839-.5847-.4511-.4992-.8183.0828-.3624.4548-.6002.8071-.5168.1737.0401.3202.1443.4132.2934.0962.155.1277.3463.0861.5249Z" fill="#fff"/>
        <path d="M171.0318,26.1614c.0983-.1903.078-.4238.0326-.5291-.1849-.4281-1.6088.0855-2.9295.6008-.2394.0935-.4655.1817-.4987.1833l-.008-.0011-.008.0027c-2.1561.7109-4.139,1.1187-6.4293,1.3218-.5227.0379-1.0219.0561-1.8499.0861l-.5222.0192c-.3581-.5666-1.2133-1.0273-1.3843-1.1155-2.093-.9402-4.2246-.5174-6.3374,1.2587-.7183.6109-1.5372,1.5596-1.8253,2.1144-.078.1507-.1005.3153-.0641.4634.0406.1636.1486.295.3132.38.3923.202.5756.0299,1.5938-.9134l.016-.015c.0722-.0625.1464-.1283.2234-.1962,1.2416-1.0946,3.1182-2.7494,5.1588-1.6451.9765.5794,1.728,1.8771,1.2448,2.8119l-.0331.0647c-.3789-.6264-.9284-1.1352-1.287-1.3207-1.6131-.8333-4.4175.7691-6.4763,2.7291-.7691.7526-1.8012,1.8723-2.3517,2.9359-.6243,1.209-.0283,2.433.9086,2.9177,1.07.5532,2.3464.1374,2.9065-.946.256-.4955.3057-1.0984.1368-1.6537-.1705-.558-.5489-1.0235-1.0385-1.2769l-.0118-.0059c1.8017-2.0316,4.2721-3.5415,5.1065-3.1112.5147.2656.9086,1.0668.9594,1.9509l-3.3501,6.4796c-.2207.4265-.047.9728.3784,1.1935.1293.0668.2672.0983.4041.0983.3202,0,.6312-.1748.79-.4794,4.1834-8.0937,4.5511-8.8062,4.5511-8.8056.116-.2234.4703-1.031.2122-2.1427.5409-.0219,1.0674-.0898,1.5773-.1555.4046-.0524.8231-.1064,1.2341-.1347,1.015-.0866,4.5837-1.0123,5.4726-1.3506.7536-.2603,2.8739-1.2122,3.185-1.8135ZM150.1126,36.6907c-.1967.3816-.6163.4527-.9102.3014-.3282-.17-.4548-.5815-.2811-.9166.171-.3298.5874-.4687.9102-.2998.1646.085.2827.2288.333.4057.0476.1678.0289.3538-.0518.5094Z" fill="#fff"/>
        <path d="M173.5551,37.4048c-1.4618-1.1914-3.5361-1.3736-5.4181-.4741-.1684.085-.2838.2704-.3084.4965-.0241.2234.0502.4351.194.5516.2571.2079.4784.1491.8146.0583l.0406-.0107c.2924-.0882.7371-.2047,1.2854-.1769.6457.0401,1.5676.2122,2.294.8049.922.751,1.0903,1.9648.3912,2.8231l-4.0781,5.0038c-.0738-.0919-.1641-.1812-.2688-.2662-1.03-.8375-2.3827-.4752-3.0487.3405-.8595,1.0545-.5265,2.3752.2913,3.0428.4014.3266.8541.4671,1.2951.4671.6729,0,1.3196-.3271,1.7184-.8162l5.4389-6.6741c1.2972-1.5922,1.0214-3.8151-.6414-5.1706ZM167.6378,48.3355c-.2405.2934-.6676.3421-.9525.1074-.1374-.1117-.2229-.2699-.2411-.4452-.0187-.1833.0358-.364.1545-.5094.1122-.139.2822-.2293.4661-.2485.0241-.0027.0481-.0037.0716-.0037.1523,0,.2972.0508.4137.1459.2865.2325.326.6606.0877.9535Z" fill="#fff"/>
        <path d="M182.8348,64.3925c1.0332-.8766.8103-1.8568.4874-2.6211.279-.1208.6066-.2849.9444-.5719l6.2535-5.3058c.1774-.1507.287-.3624.3084-.5965.0219-.2378-.0513-.4693-.2052-.651-.3009-.3538-.8782-.3955-1.2379-.0898l-6.2529,5.3058c-.2191.1865-.4554.3095-.8113.4217-.7397-.7686-2.247-2.1043-4.1925-2.619l7.0124-5.9493c.4923-.418.7905-.9786.8397-1.5778.0449-.5527-.1293-1.0903-.4901-1.5153-.7665-.9017-2.1331-1.0054-3.0466-.2298-.434.3677-.7109.9182-.759,1.5105-.047.5767.1224,1.1246.4778,1.5431.0791.0935.1871.1972.2843.2747l-7.0183,5.9558c-.4431.3554-.4415.6964-.3618.9198.1224.3442.5174.6098.7798.6098h.0032c.1048-.0069.2101-.0102.3159-.0102,1.4485,0,3.0027.6237,4.2256,1.7061-.1026.0577-.2229.1416-.325.2282-1.0374.8798-.9508,2.2384-.2683,3.0444.4164.4896,1.0128.7408,1.6168.7408.5003,0,1.0059-.1721,1.4196-.5233ZM184.2549,50.5499c-.1427.1213-.3212.1823-.5019.1646-.1764-.0144-.3421-.0994-.4543-.2325-.2384-.2817-.1983-.7098.0893-.9535.1277-.1085.287-.1619.4452-.1619.1919,0,.3816.078.5104.2298.1149.1352.17.3063.1555.4816-.0155.1817-.1042.3538-.2443.4719ZM181.0223,62.2567c.1224-.1042.2843-.1619.4495-.1619.0128,0,.0262.0005.0396.0011.1849.0102.3506.0914.4666.2288.1149.1352.1705.3057.1566.4805-.015.1823-.1037.3549-.2443.4736-.1427.1213-.3175.1839-.5013.1646-.1764-.015-.3421-.0994-.4543-.233-.1176-.1384-.1726-.3137-.155-.4944.0182-.1785.1042-.3415.2427-.4591Z" fill="#fff"/>
        <path d="M200.0799,68.4225c-.4645-.7691-1.5398-1.4939-2.8066-1.8905-1.3143-.4121-2.5522-.3838-3.3079.0727-.7889.4757-1.472,1.1192-2.1321,1.7419-.2966.2795-.6034.5687-.9102.8322l-.1272.1149c-1.3731,1.2352-2.7932,2.5126-4.0172,3.2507-.4254.2576-.5575.7916-.3004,1.2154.2427.4019.7958.5339,1.2079.2859,1.3966-.845,2.9311-.7542,4.4154-.6665.3506.0208.713.0422,1.061.0497.1625.0043.3319.0123.5051.0208.9247.0454,1.969.0941,2.7253-.364,1.0251-.6195,1.3661-1.9429.759-2.9493-.6013-.9952-1.9616-1.3223-2.9712-.713-.7868.4762-1.209,1.4522-1.0177,2.3368-.2737,0-.6451-.0102-1.0369-.0208-.5206-.0139-1.0561-.031-1.4249-.0219.3725-.3287.5906-.5275.8851-.7958.124-.1128.2608-.2378.4281-.3896l.209-.1887c.9434-.8546,1.8349-1.6617,2.6158-2.2005,1.0059-.5922,3.1417.2325,3.7248,1.1956.6713,1.1123.2501,3.0963-.791,3.7248l-7.8526,4.743c-.3966.2394-.5441.8124-.3089,1.2021.1144.1897.3153.3314.5505.3886.0754.0182.1518.0273.2266.0273.1582,0,.3111-.0401.4393-.1176l7.7452-4.6773c1.9429-1.1737,2.6895-4.2481,1.5067-6.207ZM194.9435,70.6877c.3159-.1919.7445-.0919.9337.2191.0962.1593.1213.3447.0711.5211-.0476.1678-.1614.3164-.3121.4073-.1609.0978-.3496.1277-.5265.0807-.1684-.0438-.3164-.1534-.4057-.3004-.1903-.3153-.0828-.7317.2394-.9279Z" fill="#fff"/>
        <path d="M187.0299,77.3874c-.5259-.1545-1.085-.0951-1.573.1716-.48.2624-.8445.7178-1,1.2496-.1507.5142-.0962,1.0481.1534,1.5035l.0123.0219c.0401.0727.0759.1368.1181.1972l-2.9258,1.6002c-.4201.2293-.5911.7942-.3661,1.2085.1502.2737.4687.4329.7878.4329.1454,0,.2918-.0331.4217-.1042,1.6655-.9113,3.8264-2.0904,4.6618-2.5335l.0583-.031c.9813-.5372,1.3661-1.8039.8402-2.766-.2485-.4538-.6815-.8007-1.1887-.9508ZM186.1208,78.7386c.0994-.0545.2127-.0823.3276-.0823.0673,0,.1352.0096.201.0289.171.0502.3105.1614.3928.3132.0855.1555.1058.3341.0567.5019-.0513.1758-.1732.3271-.3351.4158-.1657.0909-.356.1112-.5307.0577-.1668-.0513-.3095-.1668-.3918-.3175-.178-.3239-.0524-.7355.2795-.9177Z" fill="#fff"/>
        <path d="M217.9119,92.8153c-.2437-.0786-.4741-.1529-.5003-.1721l-.0139-.0091c-1.8812-.7212-3.5053-1.5543-5.1686-2.6265.2824-.0008.5869-.1185.8446-.2186,1.2726-.4933,2.4159-1.3677,3.1358-2.3988.8044-1.1507,1.0064-2.4062.5687-3.5351-.5778-1.4885-2.2015-2.8109-4.6981-3.8248-.6531-.2245-.9444.0449-1.0593.2261-.2175.3415-.1603.9172.1208,1.2085.6596.6729,1.0834,1.2854,1.333,1.929.7477,1.9295.4474,4.0509-.7135,5.0429-.5024.4297-.4132.6596-.2779,1.0075l.0102.0262c.0161.0392.0372.0639.0551.0981-.4075-.2873-.8101-.5914-1.411-1.0457l-.4597-.3474c.0807-.6665-.2892-1.5628-.3661-1.7392-1.008-2.0134-2.8755-3.0337-5.5533-3.0337-.0508,0-.1021.0005-.1534.0011-.9476.0203-2.1812.2384-2.751.4864-.1705.0732-.2977.1983-.3581.3517-.0567.1432-.0502.3014.0176.4575.1737.4025.4222.387,1.8028.3014l.0315-.0016c.0951-.0032.1935-.0069.2956-.0112,1.6542-.0647,4.1561-.1598,5.038,1.9872.3918,1.0652.1545,2.5447-.8124,2.9648l-.0679.0289c.1026-.7253-.0016-1.4661-.1619-1.8349-.7237-1.6708-3.9081-2.2031-6.7425-1.9808-1.0722.0957-2.5805.3105-3.6773.7873-.5633.2443-.9851.6815-1.1882,1.2304-.1897.5142-.1726,1.0994.0465,1.6045.48,1.1032,1.7296,1.5901,2.8493,1.1042.512-.2223.9316-.658,1.1518-1.1951.2213-.5398.2223-1.139.0032-1.6441l-.0053-.0134c2.6804-.4361,5.5501-.0406,5.9237.8188.2298.5318.0283,1.4014-.4901,2.1176l-6.6917,2.9017c-.4404.1913-.6521.7242-.4623,1.1641.1448.333.4714.5318.8135.5318.1176,0,.2373-.0235.3517-.0732,8.3599-3.6254,9.0932-3.944,9.0932-3.944.2314-.0994,1.0177-.5008,1.5195-1.526.4351.326.8883.6077,1.3271.8803.3447.2143.7012.4361,1.0358.6718.8391.574,4.1898,2.1134,5.0942,2.4132.7499.2742,2.9963.8744,3.6126.6082.1962-.085.3314-.2822.3608-.3891.1277-.4484-1.3025-.9514-2.6526-1.387ZM214.3068,87.1161c.2432-1.4062.1283-2.8734-.341-4.3651.5126.512.853.9968,1.0385,1.4773v.0005c.3522.9022.1042,1.9236-.6975,2.8873ZM197.7025,89.1627c-.0695.1603-.202.2924-.3634.3624-.3458.1497-.7472-.0043-.8953-.3415-.1475-.3394.015-.7376.3613-.8883.3399-.1497.751.0091.8963.3426.0738.17.0743.3565.0011.5249Z" fill="#fff"/>
        <path d="M215.1892,105.8541c.3244-.5607.6355-1.2416.3496-2.2219-.4912-1.6729-4.0503-2.9439-5.4507-2.5351-1.0476.4361-2.2545,1.0449-3.4031,1.6377-1.6975.8856-3.4683,1.7836-4.8227,2.1791-.2314.0679-.4212.2191-.535.4271-.1106.202-.1352.4351-.0706.6563.0636.2181.2122.4003.419.5126.2074.1122.4479.1384.6756.0727,1.3832-.4073,2.9765.1758,4.5164.7371,1.5147.5521,2.9455,1.0748,4.1738.7151,1.1112-.325,1.8071-1.566,1.4891-2.6564-.3308-1.1278-1.5345-1.774-2.6863-1.4356-.9033.2646-1.5532,1.0674-1.5944,1.9616-.4463-.0454-.9562-.1908-1.495-.3442-.4078-.1165-.829-.2362-1.225-.3111.6435-.2934,1.3726-.6531,2.2235-1.0973l.2603-.1374c.9621-.5067,1.8712-.9851,2.642-1.2566.0198,0,.0396-.0005.0593-.0005,1.1737,0,2.5816.6002,3.1102,1.3319.0369.3554-.1395.7162-.3137,1.0716-.2266.4527-.3896.8327-.2651,1.2592.1277.4351.6088.7937,1.132,1.1529.0502.0353.1005.0706.1502.1053.1486.1042.3116.2186.3961.2966h-.0091c-.0999,0-.2475.0267-.4308.0802l-10.8105,3.1625c-.2218.0652-.4158.2234-.5313.4351-.1117.2042-.1384.434-.0759.6473.109.3715.4928.6323.875.6323.0754,0,.1507-.0102.2239-.0315l10.826-3.1658c.5569-.163,1.2881-.4789,1.6051-1.0588.1801-.3292.2084-.7087.0855-1.1283-.2325-.7942-.9332-1.3571-1.4933-1.6938ZM209.8465,105.6659c.0887-.1555.2341-.2694.4089-.3207.062-.0182.1256-.0267.1881-.0267.2945,0,.5724.1908.6558.4784.0502.1694.0315.3474-.0518.5008-.0877.1609-.2394.2827-.4169.3346-.1774.0534-.3645.0342-.5238-.0534-.155-.0855-.2721-.2304-.3202-.3982-.0513-.1742-.0299-.357.0599-.5147Z" fill="#fff"/>
      </g>
      <g>
        <path d="M18.6694,174.0106c-.046-.6633-.0197-1.2818.0766-1.8422.0952-.5593.2375-1.0749.4214-1.5336.1762-.4532.3875-.8713.6261-1.2402.1959-.3043.5637-.3448.8571-.3787.1007-.011.2518-.0273.2988-.0536.0044-.0033.0055-.0065.0099-.0098.0996-.1193.2758-.1379.4006-.0427.1237.0952.1522.2693.0624.3973-.0055.0088-.012.0176-.0175.0241.0033.0273.0361.2178.0536.3328.0493.2988.1051.6382-.0657.879-.1916.2692-.3612.5736-.5079.9031-.1489.3273-.2682.7126-.3547,1.1449-.1653.8363-.0952,2.0491.2375,2.9709.1631.4575.3733.8505.6261,1.1701.2474.3141.5276.5593.8308.7268.2912.1609.5955.2288.9282.2058.3623-.0252.6809-.1149.9425-.2682.266-.1543.5112-.3963.729-.7181.2343-.3426.4521-.8001.648-1.3595.2047-.5801.4335-1.3059.6776-2.1608.4039-1.5248.9961-2.7311,1.7601-3.5761.7794-.8659,1.666-1.3727,2.6348-1.5106.5539-.0865,1.1187-.0471,1.6781.1182.5604.1642,1.0727.4619,1.5237.8845.4433.4181.8177.9501,1.111,1.5817.5714,1.227.7225,2.9182.3229,4.79-.1401.6502-.5714,1.0672-.9545,1.434-.1861.1806-.3634.3503-.4696.5199-.0865.1358-.266.1774-.4017.0909-.1401-.0842-.1784-.2638-.0952-.4006.0952-.1511.0701-.4631.046-.7761-.0274-.3448-.0591-.7411.0482-1.1066.1817-.6283.2441-1.377.1861-2.2243-.0668-.9643-.3579-1.7218-.8669-2.2484-.5013-.5221-1.0727-.7531-1.7448-.706-.6929.047-1.2687.4105-1.7623,1.1099-.521.7356-.9545,1.7536-1.2873,3.0267-.1926.706-.4006,1.377-.6196,1.9944-.2233.6294-.497,1.1942-.8144,1.6814-.3251.4959-.717.8965-1.1658,1.1899-.4543.2999-1.0169.474-1.6704.5189-1.3135.0908-2.441-.3306-3.3495-1.2523-.8987-.9074-1.4329-2.3479-1.5894-4.2866" fill="#fff"/>
        <path d="M79.2739,281.0074c-.567-.4083-1.0508-.844-1.4372-1.2971-.3875-.4542-.7104-.9118-.9545-1.3661-.2474-.4433-.4422-.8932-.5791-1.3332-.1127-.3612.104-.682.2758-.9392.0602-.0876.1489-.22.1598-.2759,0-.0044-.0011-.0088-.0011-.0131-.0285-.1609.0755-.3142.2364-.3492.1631-.0372.324.0591.3656.2167.0033.0099.0055.0186.0077.0296.0241.0153.2003.1182.3054.1817.2747.1598.5867.3426.6666.6414.0898.335.2189.6765.3864,1.0125.1642.3404.3952.6929.6852,1.0519.5659.6951,1.5949,1.4504,2.5658,1.805.4806.1762.9414.2715,1.3727.2846.4214.0131.81-.046,1.1526-.1762.324-.1226.5933-.3273.7969-.6031.2266-.3065.3689-.6217.4236-.9337.0547-.3152.0263-.6743-.0854-1.0651-.1193-.4171-.3404-.8987-.6601-1.4307-.3273-.5506-.7619-1.2194-1.2884-1.9922-.9589-1.3464-1.5325-2.6293-1.6989-3.8082-.1697-1.203.023-2.2527.5692-3.1197.3054-.4991.7214-.9239,1.2336-1.261.5156-.3393,1.1056-.5484,1.7547-.625.6349-.0755,1.3201-.0175,2.0338.174,1.3814.3667,2.8581,1.3847,4.095,2.9566.4313.5484.4751,1.1723.5134,1.724.0175.2715.0361.5276.1018.7268.0514.1598-.0383.3317-.1992.3831-.1631.0547-.335-.035-.3897-.1949-.0602-.1784-.3306-.3678-.5988-.5582-.2988-.2102-.6393-.451-.8615-.7805-.3853-.567-.949-1.1209-1.6748-1.643-.8254-.5933-1.6343-.868-2.4071-.8144-.764.0492-1.3398.3503-1.7591.9184-.4324.5867-.5287,1.2906-.2966,2.1564.2419.9107.7706,1.9408,1.573,3.0584.4368.6239.8396,1.2413,1.1942,1.8357.359.6053.6283,1.2041.8045,1.7809.1817.5933.2386,1.1745.173,1.7295-.0668.5637-.3087,1.1307-.7159,1.6824-.8199,1.1111-1.9265,1.7306-3.2893,1.839-1.3453.1073-2.8756-.4335-4.5503-1.6091" fill="#fff"/>
        <path d="M212.1432,218.1752c-.2923.5911-.625,1.11-.9906,1.5435-.3623.4324-.7433.8045-1.1329,1.1078-.3776.2999-.7706.5549-1.1636.7542-.324.162-.6612.0153-.9315-.1029-.0919-.0394-.2321-.1007-.2879-.104,0,0-.0077.0033-.011.0054-.1467.0515-.3076-.0196-.3678-.1642-.058-.1445.0055-.3076.1456-.3733.0088-.0044.0197-.0077.0274-.011.0099-.0252.0777-.2047.1204-.3119.1073-.2824.231-.5999.4959-.7236.2999-.1346.5988-.3109.8943-.5221.2999-.2113.5867-.4762.8812-.8079.5637-.6348,1.1089-1.7152,1.2851-2.672.0887-.474.1029-.9184.046-1.3179-.0558-.3919-.1762-.7422-.3525-1.0399-.1708-.2813-.4006-.4904-.7006-.6371-.3317-.162-.6425-.2408-.9501-.2408-.3054.0011-.6393.0854-.9895.2517-.3744.1785-.7925.4631-1.2435.8472-.474.4007-1.0344.9118-1.6693,1.5183-1.1154,1.1111-2.2319,1.851-3.3167,2.1958-1.1067.3547-2.1279.3503-3.0376-.0142-.52-.2014-.9884-.5177-1.3891-.9381-.4039-.4225-.6984-.9359-.8757-1.5215-.173-.579-.2299-1.2238-.1664-1.9145.1226-1.3398.8429-2.8723,2.1247-4.2767.4477-.4883,1.0289-.6316,1.5423-.7564.2529-.0613.4915-.1193.6699-.2123.1423-.0744.3185-.0197.393.1215.0777.1434.0208.3175-.1204.3919-.1565.0832-.2955.3711-.428.6447-.1532.3087-.3218.6655-.5966.9271-.474.451-.9031,1.0629-1.2785,1.8204-.4258.8604-.5528,1.654-.3776,2.3622.1708.6995.5484,1.1833,1.1537,1.4789.6228.3043,1.3037.2791,2.082-.0766.8199-.3733,1.7054-1.0311,2.6304-1.9583.52-.5101,1.0377-.9829,1.5379-1.4066.509-.428,1.0301-.7761,1.5478-1.0366.5265-.2638,1.0662-.4126,1.6036-.4433.5462-.0296,1.1198.1007,1.7054.3875,1.1822.5768,1.9462,1.5018,2.2692,2.7475.3207,1.2281.0591,2.7344-.7783,4.478" fill="#fff"/>
        <path d="M21.2665,193.0187c-.4171-1.7984-.2988-3.3671.3492-4.6598.6612-1.3136,1.8871-2.186,3.6484-2.5954l9.8133-2.2779c.0591-.0142.1204-.0098.1762.012l1.0815.4182c.1861.0722.2485.3405.1127.486l-.7848.8516c-.0394.0449-.0931.0745-.1533.0887l-9.7826,2.2713c-.6491.15-1.1778.3919-1.5697.7192-.3973.3284-.6951.7115-.8867,1.1373-.1937.4335-.301.9184-.3185,1.4438-.0317,1.0519.2332,2.2462.7476,3.2204.2474.4641.5572.8527.9228,1.1559.3601.2988.7958.5101,1.296.6305.5002.1193,1.0815.104,1.7262-.046l9.6874-2.2483c.0536-.0121.1084-.0099.1609.0065l1.1712.3787c.2014.0645.2693.3579.1171.5035l-.8867.8582c-.0394.0383-.0876.0646-.1412.0766l-9.7181,2.2561c-1.7591.4083-3.2412.1773-4.4081-.6874-1.1483-.8528-1.943-2.198-2.3611-3.9998" fill="#fff"/>
        <path d="M63.9769,269.861c-1.4175-1.1844-2.2692-2.5078-2.5297-3.9286-.2638-1.4471.1894-2.8821,1.3486-4.2701l6.4583-7.7313c.0394-.0471.0909-.081.1489-.0963l1.1154-.3185c.1916-.0548.4028.1215.3831.3207l-.1138,1.1515c-.0055.0602-.0296.1171-.069.1631l-6.4386,7.7073c-.4258.5101-.7027,1.0213-.8221,1.5215-.1171.4991-.1248.9841-.0208,1.4394.1073.4641.3142.9162.6163,1.3442.6097.8637,1.5456,1.6551,2.5384,2.1214.4751.22.9567.3437,1.4318.3667.4674.0219.9436-.0723,1.4143-.278.4707-.2069.9261-.5692,1.3508-1.0771l6.3762-7.6317c.035-.0427.0799-.0734.1325-.0909l1.1625-.405c.1992-.069.4291.1237.3963.3316l-.1905,1.2183c-.0088.0548-.0306.1051-.0668.1467l-6.3959,7.6558c-1.1581,1.3869-2.4804,2.0951-3.9308,2.1093-1.4329.0099-2.8778-.5856-4.2953-1.77" fill="#fff"/>
        <path d="M139.7944,289.7254c-1.7755.5112-3.3474.4751-4.6708-.1062-1.3464-.59-2.2823-1.77-2.7825-3.5083l-2.7869-9.6809c-.0164-.0591-.0153-.1204.0044-.1773l.3601-1.1012c.0624-.1894.3262-.266.4794-.1379l.891.7389c.0471.0383.0799.0898.0974.1489l2.7771,9.6502c.1839.6403.4532,1.1559.7991,1.5314.3514.3798.7476.6578,1.1822.8253.4455.1707.9359.2528,1.458.243,1.0585-.0219,2.2363-.3514,3.1788-.9151.4499-.2704.8221-.5999,1.1067-.9808.278-.3744.4685-.8199.5615-1.3278.093-.5046.0471-1.0848-.1357-1.7207l-2.7508-9.5571c-.0142-.0525-.0153-.1084-.0011-.1609l.3174-1.1899c.0274-.1018.1051-.1839.208-.2135.1018-.0296.2113-.0011.289.0701l.9009.8407c.0405.0383.0701.0854.0854.1379l2.7584,9.5867c.4992,1.7361.347,3.2302-.4554,4.4387-.7925,1.191-2.094,2.0546-3.8717,2.5658" fill="#fff"/>
        <path d="M29.4187,217.1478c-.0219-.0591-.0252-.1247-.0066-.1861l.3448-1.157c.0164-.0525.0471-.0996.0887-.1346l2.7497-2.3962-2.4126-6.3302-3.517-.0044c-.0471-.0011-.0941-.0131-.1368-.035l-1.1778-.6305c-.1171-.0635-.1729-.2003-.1445-.3262.0339-.1291.1489-.2189.2824-.2189.0328-.0154.1335-.1368.1948-.2102.1532-.185.3459-.417.6382-.4149,2.5964.0175,4.9477.0329,7.0505.0504l8.0116.047c.405.0197.7049.1117.9293.2813.2167.162.3229.2551.3842.3306.1379.2781.1565.5473.0427.8593-.1303.3579-.2211.4849-.2791.5494-.0919.1358-.2791.2014-.4926.1555-.0372-.0077-.0722-.0153-.1051-.0241l-10.8773,9.7849c-.0449.0405-.1007.0646-.162.0722l-1.1023.1226c-.0952.011-.1905-.0285-.254-.1029-.0208-.0252-.0372-.0525-.0493-.0821M31.9506,206.9656l1.9484,5.1141,5.5804-5.0868-7.5288-.0274Z" fill="#fff"/>
        <path d="M37.206,234.6591l-.5594-1.0223c-.0482-.0887-.0493-.196-.0022-.2857l6.5809-12.5838-9.0909,4.975c-.0416.0219-.0876.0351-.1368.0372l-1.4383.0449c-.1138.0044-.2321-.0657-.2747-.1598-.0536-.1018-.0449-.2255.0197-.3186l.8746-1.2183c.0274-.0372.0624-.0679.1018-.0897l11.4049-6.2405c.1565-.0854.2189-.1565.2441-.2003.0569-.1007.0996-.1905.1313-.2759l.0941-.2495c.0679-.1598.2003-.2682.3974-.3306.2014-.0285.3941-.0164.648.0218.3163.0504.5659.2233.7203.5058.0646.1171.0843.2682.0635.4729-.0186.1696-.0591.3328-.1215.4882l-7.3405,13.3336,10.0257-5.4863c.0427-.023.0898-.0361.139-.0372l1.4099-.0307c.2255-.0043.3831.2835.2572.4707l-.7848,1.1724c-.0274.0405-.0635.0733-.1062.0963l-12.8465,7.0297c-.1467.0799-.3306.0274-.4105-.1193" fill="#fff"/>
        <path d="M165.0681,277.8041l-.9786.6338c-.0843.0548-.1915.0635-.2846.0219l-13.0348-5.634,5.6318,8.699c.0252.0405.0416.0854.046.1325l.1521,1.4307c.0131.1149-.0263.2255-.1379.2879-.0974.0613-.2211.0613-.3185.0033l-1.2829-.7805c-.0394-.0241-.0722-.0569-.0963-.0952l-7.0658-10.9134c-.0974-.15-.1719-.2069-.2189-.2299-.1007-.0492-.1916-.0843-.2769-.1084l-.2616-.0777c-.1664-.0548-.2857-.1828-.3579-.3765-.0438-.196-.046-.3908-.0252-.6459.023-.3152.1784-.5768.4499-.7531.1117-.0723.2605-.1029.4663-.0974.1751.0065.3426.035.5002.0876l13.835,6.3346-6.2109-9.5933c-.0274-.0416-.0427-.0876-.0471-.1357l-.1336-1.4055c-.023-.2233.2529-.4028.4499-.2912l1.2271.6973c.0416.0241.0766.058.104.0985l7.9579,12.2926c.0908.1401.0514.3273-.0887.4181" fill="#fff"/>
        <path d="M49.2501,253.6378l-2.5373-3.0606c-.1073-.1292-.0887-.3186.0394-.4258l11.0229-9.1401c.1423-.1182.197-.2091.2167-.2649.0438-.1051.0668-.1981.0722-.2802.0109-.1248.0241-.2332.0405-.3273.0328-.1806.1511-.3306.3317-.4247.1894-.0668.3842-.0941.6404-.1018.3174-.011.5955.1116.8002.359.0854.1018.1325.2463.1522.451.0099.1193.0088.2386-.0044.3579l1.9276,2.3239c.7772.937,1.377,1.9342,1.7831,2.9631.4105,1.0333.6064,2.0863.5801,3.1295-.0285,1.0454-.3043,2.0798-.8177,3.0748-.5145.995-1.2938,1.9276-2.3162,2.7759-1.041.8637-2.1126,1.4646-3.1832,1.7842-1.0694.3196-2.1389.4028-3.1821.2474-1.0377-.1609-2.0415-.5429-2.9839-1.1417-.9359-.5889-1.805-1.3628-2.5822-2.2998M49.2293,250.6166l1.6901,2.0382c.6283.7575,1.3179,1.3518,2.0502,1.7678.7203.4094,1.481.6458,2.2549.7049.7717.0591,1.562-.0492,2.348-.3185.7848-.2693,1.5609-.7192,2.3042-1.3343.856-.7104,1.481-1.4712,1.8576-2.2615.3755-.7914.5539-1.6047.5309-2.4202-.023-.8242-.2255-1.6573-.5999-2.4793-.382-.8297-.9064-1.6496-1.5587-2.4355l-1.1209-1.3519-9.7564,8.0904Z" fill="#fff"/>
        <path d="M94.8847,287.6113l-1.2315-.4269c-.1576-.0547-.2397-.2266-.185-.3842l5.206-15.0193c.0547-.1576.2255-.2419.3842-.1872l1.2304.4269c.1576.0547.2408.2266.1861.3842l-5.206,15.0193c-.0547.1576-.2266.2419-.3842.1872" fill="#fff"/>
        <path d="M108.6724,290.8762l-1.2763-.2572c-.1631-.0339-.2682-.1926-.2354-.3568l2.8482-14.1021-4.0063-.8089c-.2518-.0503-.4083-.243-.4105-.498,0-.1193.0022-.2474.0055-.3831.0055-.3197.0558-.5386.1609-.682.0952-.1325.2955-.2748.7038-.1926l9.6436,1.9484c.3273.0657.5211.2189.5747.4521.0405.1708.0033.3919-.1171.6907-.0482.1248-.0963.243-.1423.3503-.1007.2386-.3196.3546-.5725.3032l-3.9724-.8024-2.8482,14.1021c-.0328.1631-.1916.2693-.3557.2364" fill="#fff"/>
        <path d="M173.2023,272.3145h0c-.0788.0657-.1839.0865-.2824.0559l-1.1318-.3426c-.0569-.0175-.1062-.0503-.1434-.0963l-8.9737-10.7733c-.0416-.0493-.0657-.1106-.069-.174l-.0679-1.0979c-.011-.1905.1883-.3558.3733-.3109l1.0695.2638c.0613.0142.1182.0492.1598.0996l8.9726,10.7733c.0372.0449.0624.1007.0679.1598l.1313,1.1778c.012.0996-.0284.2003-.1062.2649" fill="#fff"/>
        <path d="M184.3131,262.2504c-.0197.0219-.0405.0427-.0646.0613-.2408.1817-.532.2747-.8658.278-.4203.0044-.6754-.1281-.7575-.3963l-.0536-.2146-14.2662-5.2203c-.0613-.0219-.1149-.0657-.1511-.1226l-.579-.9282c-.0525-.0854-.0613-.1915-.0197-.2824.0427-.093.1259-.1565.2222-.1762l1.284-.231c.0536-.0099.1095-.0044.1609.0142l12.667,4.7846-6.2733-12.1065c-.0252-.0503-.0372-.1095-.0328-.1675l.1138-1.2063c.0109-.093.0668-.1784.1423-.2288.0821-.0504.1817-.058.2704-.023l.925.3678c.0679.0274.1226.0777.1565.1434l3.3671,6.6148c.4608.9315.9151,1.8313,1.3639,2.7016.451.8779.8527,1.6616,1.2041,2.3578.3525.6951.7476,1.4515,1.1844,2.267.0701.2353.1073.4915.1445.8757v.0011c.0394.4225-.0044.6808-.1423.8363" fill="#fff"/>
        <path d="M197.7309,245.5669l-3.9987,5.9121c-.093.1379-.2813.1741-.4192.0799l-11.8613-8.0214c-.1554-.1051-.2561-.1314-.3142-.1358-.1116-.0099-.2091-.0065-.2933.0099-.1182.0241-.2255.0416-.3207.0536-.1817.0186-.3601-.0514-.5013-.1992-.1193-.1708-.1992-.3492-.2769-.5878-.1007-.2999-.0602-.6021.1193-.868.0744-.1106.2003-.1971.3908-.2726.1127-.0427.2266-.0755.3459-.0963l3.5159-5.1995c.0274-.0405.0668-.0744.1084-.0974l1.2326-.6546c.0996-.0514.2189-.046.312.0176.0919.0623.1423.1707.1313.2824l-.1478,1.3869c-.0066.0482-.023.0963-.0504.1368l-3.1164,4.6084,4.2198,2.8537,2.6227-3.8771c.0252-.0383.0602-.0689.0996-.0909l1.3026-.7597c.0996-.0591.2244-.0547.3207.011.0963.0646.1467.1784.1292.2934l-.2189,1.492c-.0066.0449-.023.0887-.0482.1259l-2.6227,3.8783,4.6938,3.1744,3.0617-4.5273c.0263-.0383.0624-.0701.104-.0931l1.2687-.7082c.0996-.0558.2211-.0503.3152.0132.0952.0646.1456.1751.1303.289l-.1861,1.4394c-.0055.0471-.0219.092-.0482.1313" fill="#fff"/>
        <path d="M207.3173,228.7482c-.0252.0526-.0668.0963-.1182.127l-1.4372.8626c-.0339.0218-.0733.0361-.1149.0405l-6.4933.8593-1.1045,2.302,4.2143,2.024c.0416.0186.0755.047.1029.0799l.9972,1.2205c.0733.0898.0897.2124.0416.3186-.0547.0679-.1522.1718-.2693.174l-1.4887.0273c-.0471.0011-.0941-.0098-.1368-.0295l-11.7092-5.622c-.1686-.081-.2737-.0931-.3317-.0898-.1127.0088-.2091.0263-.2879.0536-.1127.0416-.2156.0744-.3087.0996-.1204.0317-.3109.0383-.5221-.1204-.1456-.1555-.2507-.3196-.3634-.543-.1445-.2802-.1478-.5856-.0076-.8768.0569-.1204.1686-.2244.347-.3273.104-.0602.2146-.1084.3262-.1456l1.1877-2.4739c.335-.6962.7378-1.3464,1.1986-1.932.4663-.5943,1.0071-1.0771,1.6069-1.4317.6097-.3568,1.2916-.5637,2.0294-.6152.7433-.0514,1.5609.1358,2.429.5517.6568.3163,1.192.6962,1.5894,1.1307.4006.4324.6962.9064.8834,1.4066.1861.4926.2857,1.0257.2945,1.5806.0088.3996-.0219.798-.0854,1.1899l6.05-.7903c.0558-.0066.1106.0011.1609.023l1.168.5189c.1051.046.173.1444.1806.2572.0022.0525-.0076.1051-.0284.1499M196.3853,232.1404l.9239-1.9232c.6283-1.3092.8374-2.4159.6163-3.2904-.2156-.8681-.7553-1.4986-1.6463-1.9255-.7969-.3831-1.6124-.4094-2.4903-.081-.8724.3229-1.6452,1.1789-2.2987,2.5406l-.9085,1.8926,5.8037,2.7869Z" fill="#fff"/>
        <path d="M217.0194,203.9444c-.0307.1138-.127.2004-.2419.2201l-1.5489.2583c-.0427.0066-.0865.0044-.1281-.0076l-12.7633-3.4284c-.0471-.0132-.0898-.0361-.1259-.0689l-1.0399-.9535c-.0832-.0766-.1171-.1926-.0876-.301.0285-.1095.1171-.1927.2266-.2167l1.3781-.3043c.0471-.0088.0963-.0088.1434.0043l12.7622,3.4295c.0416.011.081.0307.1149.0581l1.2107.9983c.0898.0756.1303.1982.0996.3119" fill="#fff"/>
        <path d="M220.648,190.2647c-.0208.116-.1084.2102-.2222.2398l-1.5204.3929c-.0416.0099-.0854.011-.1281.0033l-12.76-2.2539-.7104,4.0249c-.0449.2529-.2332.4138-.4882.4225-.1204.0033-.2496.0044-.3875.0022-.3163.0055-.5375-.0416-.6831-.1456-.1313-.0876-.2813-.2835-.208-.6962l1.712-9.6897c.0722-.4093.2769-.5429.4378-.5834.1719-.0438.3919-.012.6929.0996.1237.0448.2441.0909.3525.1313.2419.0974.3634.3152.3185.567l-.7049,3.9899,12.6637,2.2374c.0405.0066.0777.0219.1116.0449l1.3902.9064c.1007.0657.1532.185.1346.3021l-.0011.0043Z" fill="#fff"/>
        <path d="M223.0153,174.1286c-.0088.1117-.0799.2091-.1817.2529l-1.1789.5068c-.0449.0197-.0952.0274-.1445.0241l-5.541-.4488-8.2546,3.8816c-.0394.0186-.081.0285-.1248.0285l-1.3946.0109c-.1226.0011-.231-.0711-.2791-.1817-.0504-.1116-.0263-.2386.0558-.3273l1.0782-1.1428c.0263-.0285.058-.0504.0931-.0667l7.0067-3.239-6.6126-4.5459c-.0372-.0252-.0701-.0613-.0919-.1029l-.6283-1.1395c-.0668-.1215-.0416-.2781.0635-.3711.1051-.0941.2616-.1018.3765-.0208.0525.0383.2397.0132.3634-.0043.2408-.0317.5407-.0712.7805.0996.8549.6031,1.6846,1.1844,2.487,1.7459.4663.3087.9469.6349,1.4383.9732l1.4318.9939c.4652.324.9129.6294,1.3365.9129.3974.2682.7476.5013,1.0508.7017l5.5103.4455c.0492.0033.0974.0197.139.046l1.0815.6885c.0941.0602.1478.1674.139.2791" fill="#fff"/>
      </g>
    </g>
  </g>
</svg>